<svg width="131" height="43" fill="none" xmlns="http://www.w3.org/2000/svg"><g clip-path="url(#clip0_679_3557)" fill-rule="evenodd" clip-rule="evenodd"><path d="M0 21.5V43h131V0H0v21.5zm37.008-8.088v5.194h-9.47l4.735 4.483 4.734 4.484v7.52h-7.86l-4.776-4.504-4.776-4.504v9.008H8.624V21.689c0-7.371.016-13.418.036-13.437.02-.019 6.407-.034 14.192-.034h14.155v5.194zm64.572-5.044c1.195.43 1.767 1.813 1.283 3.104-.731 1.953-3.649 1.83-4.2-.177-.523-1.9 1.14-3.566 2.917-2.927zm-16.067 2.15c.43 1.193.782 2.188.783 2.21 0 .023-.214.035-.476.027l-.476-.015-.138-.426-.138-.425-.847-.002h-.848l-.13.44-.13.439h-.956l.76-2.158c.417-1.187.77-2.188.785-2.225.02-.049.158-.062.528-.051l.502.015.781 2.17zm30.409-.013c.429 1.2.779 2.201.778 2.224 0 .022-.213.034-.471.026l-.471-.015-.139-.428-.14-.428-.846.015-.847.014-.135.426-.134.427h-.962l.789-2.203c.434-1.212.79-2.212.79-2.223 0-.01.227-.019.505-.019h.504l.779 2.184zm4.543-.35v1.836h1.856v.775h-2.784v-2.188c0-1.203.017-2.204.037-2.223.02-.019.229-.034.464-.034h.427v1.835zm-74.724.414v2.197h-.874V8.373h.874v2.196zm5.202-1.044c.415.631.864 1.31 1 1.51l.245.361-.031-.775-.063-1.512-.033-.736h.885v4.397l-.39-.015-.39-.015-.961-1.451-.96-1.452-.016 1.465-.014 1.464h-.872V8.373l.423.002.423.002.754 1.148zm8.39-.765v.388h-1.256v3.618h-.928V9.148h-1.256v-.775h3.44v.387zm6.222-.026v.362h-2.457v1.034h2.238v.723h-2.238v1.138h2.62v.775h-3.493V8.373h3.33v.361zm5.851-.281c1.067.344 1.276 1.844.332 2.379l-.28.16.487.838c.593 1.021.594.943-.009.925l-.496-.015-.45-.801-.452-.801-.363-.016-.363-.015v1.659h-.928V8.373h1.137c.884 0 1.191.017 1.385.08zm6.111 1.411c.532.806.984 1.48 1.003 1.499.02.018.022-.165.005-.406a52.008 52.008 0 01-.067-1.512l-.034-1.072h.886v4.397l-.394-.015-.393-.015-.74-1.113-.985-1.484-.246-.372.02 1.497.02 1.498h-.885V8.368l.421.015.421.015.968 1.466zM91.645 8.76v.388H90.39v3.618h-.928V9.148h-1.255v-.775h3.439v.387zm3.821 1.809v2.197h-.928V8.373h.928v2.196zm12.445-.698c1.085 1.642 1.046 1.592 1.011 1.28a37.432 37.432 0 01-.055-1.5l-.031-1.278h.876v4.393l-.395-.002h-.396l-.998-1.511-.999-1.51.038 1.511.038 1.512h-.89V8.373h.811l.99 1.498zm-7.617-.73c-1.144.493-1.019 2.587.173 2.903.674.178 1.441-.27 1.589-.927.305-1.354-.669-2.445-1.762-1.975zm-30.482.634v.68l.555-.036c.773-.05 1.002-.181 1.058-.603.067-.501-.265-.72-1.093-.72h-.52v.68zm44.532.414l-.3.949.571.014c.314.008.582.004.596-.01.014-.013-.107-.447-.27-.962l-.296-.939-.301.948zm-30.143-.834c-.018.042-.154.46-.3.93l-.267.853.574.014c.316.008.585.005.597-.006.018-.017-.446-1.548-.55-1.817-.011-.029-.035-.017-.054.026zm7.645 6.025c1.935.314 3.737 1.461 4.602 2.929l.175.298-1.656.774c-.911.426-1.675.775-1.697.775-.022 0-.136-.18-.254-.403-1.21-2.276-4.116-2.003-4.845.455-.266.9-.1 2.602.335 3.444 1.012 1.952 3.908 1.574 4.686-.612.025-.072 3.248 1.33 3.41 1.483.07.066-.68 1.173-1.072 1.582-2.02 2.114-6.267 2.535-8.845.878-3.606-2.319-3.625-8.063-.036-10.574 1.4-.979 3.25-1.345 5.197-1.03zm-13.628.045c1.299.166 2.37.532 3.292 1.125.354.227 1.087.862 1.063.92-.009.02-.568.479-1.244 1.019l-1.228.982-.31-.299c-1.182-1.142-4.357-1.274-4.357-.182 0 .5.262.62 2.025.936 2.344.419 3.17.683 4.013 1.283 1.874 1.333 1.565 4.424-.58 5.804-2.244 1.445-6.725 1.308-9.114-.279-.383-.254-1.42-1.222-1.42-1.322.001-.054 2.77-1.803 2.97-1.876.047-.017.137.056.238.196.426.585 1 .927 1.941 1.152 1.975.475 3.748-.113 3.15-1.043-.201-.312-.546-.415-2.814-.843-3.226-.61-4.42-1.594-4.42-3.643 0-2.796 2.835-4.436 6.795-3.93zM53 15.787c1.938.25 3.038 1.225 3.362 2.98.326 1.767-.495 3.281-2.117 3.902-.202.077-.36.154-.35.17.038.068 2.788 4.386 2.908 4.566l.13.195-2.242-.014-2.242-.013-1.212-2.08-1.211-2.08h-1.12v4.186h-4.039V15.712h3.78c2.967.001 3.904.017 4.353.075zm15.556 1.243v1.317h-6.004v1.706h5.568v2.636h-5.567v2.326h6.495v2.635H58.513V15.711h10.044v1.319zm33.636 2.777c.015 4.052.016 4.099.131 4.334.563 1.152 2.578 1.132 3.143-.031l.126-.258.015-4.07.016-4.07h4.035v3.708c-.001 4.57-.027 4.84-.597 5.934-1.759 3.378-8.743 3.443-10.43.098-.45-.892-.49-1.386-.49-5.98v-3.76h4.036l.015 4.095zm19.583-2.777v1.317h-5.949v1.705l2.77.013 2.77.014.015 1.305.014 1.305h-5.569v2.326h6.495v2.635h-10.534V15.711h9.988v1.319zm-72.868 2.586v1.38l1.16-.026c.887-.02 1.23-.047 1.46-.116 1.142-.34 1.266-1.92.19-2.429l-.327-.155-1.242-.017-1.241-.018v1.38zm-1.274 10.988c.386.137.784.479.971.835.21.397.2.417-.269.521-.42.094-.52.084-.52-.056 0-.689-1.326-.877-1.824-.259-.975 1.211.152 3.195 1.418 2.493.222-.124.57-.54.57-.682 0-.09-.023-.096.46.115.335.147.415.203.388.272-.728 1.84-3.562 1.615-4.064-.324-.497-1.918 1.102-3.542 2.87-2.915zm9.853.084c1.715.799 1.654 3.613-.092 4.248-1.725.628-3.296-.633-3.078-2.471a2.239 2.239 0 013.17-1.777zm8.803 1.493c.238.871.44 1.563.448 1.537l.375-1.39c.198-.74.384-1.432.414-1.538l.052-.194h1.306v4.394h-.873l.028-1.64.028-1.642-.428 1.499c-.236.825-.445 1.564-.466 1.643-.039.144-.04.144-.455.13l-.417-.016-.478-1.705-.48-1.706.024.776.05 1.718.028.943h-.927v-4.394h1.337l.434 1.585zm9.96-1.39c.03.105.216.774.412 1.485.196.71.372 1.327.39 1.37.022.053.877-2.854.893-3.037 0-.007.296-.013.656-.013h.655v4.394h-.89l.039-1.654c.021-.91.03-1.653.018-1.653s-.228.744-.48 1.653l-.46 1.654h-.825l-.455-1.64a49.8 49.8 0 00-.478-1.666c-.014-.014-.006.724.015 1.64l.04 1.666h-.891v-4.394h1.306l.055.194zm9.938 2.002v2.196h-.873v-4.393h.873v2.197zm9.115-1.81v.389h-1.255v3.618h-.928v-3.619h-1.2v-.776h3.383v.388zm8.734 0v.389h-1.256v3.618h-.928v-3.619h-1.255v-.776h3.439v.388zm8.951-.025v.362h-2.401v1.033h2.238v.724h-2.238v1.137h2.62v.775h-3.494v-4.393h3.275v.362zm9.17 0v.362h-2.456v1.033h2.238v.724h-2.238v1.137h2.62v.775h-3.493v-4.393h3.329v.362zm-66.087.38c-1.389.476-1.04 2.942.416 2.937.853-.003 1.356-.615 1.304-1.586-.056-1.056-.824-1.66-1.72-1.352z" fill="#FCC42C"/><path d="M8.679 21.655v13.386H19.54v-4.496c0-2.473.016-4.497.035-4.497.02 0 2.18 2.024 4.802 4.497l4.767 4.496h7.862v-7.416l-4.79-4.535-4.789-4.536h9.58V8.27H8.678v13.385zm91.656-13.33c-1.522.283-2.241 2.256-1.32 3.616.865 1.275 3.008 1.14 3.711-.234.912-1.786-.47-3.74-2.391-3.383zm-55.413 2.219v2.17h.819V8.373h-.819v2.17zm4.476 0v2.17h.792l-.016-1.512c-.015-1.392-.01-1.503.071-1.408.048.057.507.737 1.02 1.512l.933 1.408h.748V8.373h-.831l.035 1.176c.02.646.049 1.333.066 1.524.02.216.01.349-.023.349-.03 0-.505-.686-1.056-1.524l-1.002-1.524h-.369l-.368-.001v2.17zm6.55-1.81v.362h1.255v3.618h.82V9.096h1.255v-.723h-3.33v.362zm6.332 1.81v2.17h3.384v-.672h-2.566v-1.24h2.183v-.672h-2.183V9.096H65.5v-.723h-3.22v2.17zm6.659-.007v2.177h.818V11.06h.383c.445 0 .351-.096.954.976l.382.678h.45c.248 0 .451-.013.451-.03 0-.026-.442-.803-.826-1.452l-.16-.267.273-.14c.96-.495.796-2.01-.254-2.345-.127-.04-.64-.076-1.339-.093L68.94 8.36v2.177zm6.823.004v2.173h.762l.015-1.508.014-1.508 1 1.508 1 1.508h.702V8.373h-.778l.038 1.46c.021.803.05 1.5.065 1.55.078.26-.152-.052-1.073-1.45L76.495 8.4l-.367-.016-.367-.015v2.173zm7.213.005l-.765 2.172.44-.015.442-.015.12-.387.121-.388h1.786l.13.4.131.401h.437c.326 0 .43-.016.412-.064l-.777-2.171-.753-2.106h-.959l-.765 2.173zm5.286-1.811v.361h1.255v3.618h.82V9.096h1.255v-.723h-3.33v.362zm6.332 1.809v2.17h.819V8.373h-.82v2.17zm11.517-.003v2.173h.828l-.018-1.499c-.011-.824-.006-1.499.009-1.499.016 0 .471.67 1.013 1.486l.985 1.486.392.016.393.015V8.373h-.828l.036 1.563.036 1.563-.127-.179c-.069-.098-.534-.796-1.032-1.55l-.905-1.371-.391-.016-.391-.015v2.173zm7.276.003l-.775 2.17h.461c.309 0 .461-.02.461-.059 0-.032.051-.218.112-.413l.111-.355h1.776l.127.414.126.413h.43c.236 0 .43-.017.43-.037 0-.03-1.419-4.005-1.511-4.232-.022-.054-.147-.072-.501-.072h-.472l-.775 2.171zm6.206 0v2.17h2.675v-.723h-1.856V8.373h-.819v2.17zm-18.381-1.477c.671.226 1.052 1.005.908 1.853-.252 1.481-2.11 1.654-2.565.238-.41-1.28.532-2.471 1.657-2.091zm-30.162.078c.295.127.419.308.414.608-.008.497-.325.687-1.146.687h-.56V9.045h.533c.403.002.587.026.76.1zm13.527 1.054c.17.536.299.984.285.997-.013.012-.306.016-.652.008l-.628-.015.294-.93c.333-1.056.342-1.082.37-1.054.012.012.161.459.331.994zm30.424.02c.154.488.28.913.28.943 0 .034-.234.053-.648.053h-.647l.296-.943c.384-1.222.342-1.114.395-1.02.024.042.169.477.324.966zm-25.402 5.138c-6.606.79-7.72 10.328-1.431 12.265 2.528.78 5.495.197 7.184-1.409.488-.463 1.304-1.598 1.207-1.677-.052-.042-3.292-1.538-3.302-1.524-.006.007-.113.217-.24.466-.9 1.782-3.34 2.005-4.424.404-.672-.992-.802-2.962-.275-4.16.903-2.048 3.61-2.074 4.708-.044.127.234.246.426.265.427.019 0 .762-.34 1.652-.755l1.62-.756-.172-.291c-1.215-2.062-4.018-3.278-6.792-2.946zm-14.082.123c-2.898.438-4.559 2.39-3.99 4.69.391 1.584 1.493 2.252 4.752 2.88 2.248.434 2.54.565 2.54 1.141 0 1.476-4.282 1.064-5.352-.515-.074-.108-.1-.115-.206-.061-.295.15-2.848 1.762-2.848 1.8 0 .093.855.91 1.244 1.187 2.39 1.704 7.01 1.85 9.325.295 2.204-1.48 2.249-4.694.084-5.912-.762-.43-1.714-.7-3.55-1.012-1.983-.337-2.482-.662-2.013-1.316.56-.78 3.288-.486 4.284.46l.315.3 1.037-.826c.57-.454 1.12-.895 1.222-.978l.184-.152-.239-.233c-1.45-1.411-4.247-2.132-6.79-1.748zm-30.594 3.37c0 1.733-.016 4.41-.036 5.95l-.037 2.799h4.003V23.36h1.189l1.228 2.106 1.227 2.106 2.19.013 2.188.014-1.501-2.356c-.826-1.295-1.507-2.377-1.514-2.405-.007-.027.172-.126.397-.22 3.115-1.297 2.757-5.896-.52-6.674-.734-.175-1.171-.194-4.98-.218l-3.834-.025v3.149zm13.646 2.805V27.6h10.425v-2.533h-6.495v-2.43h5.622v-2.532h-5.567v-1.809h5.949v-2.584h-9.934v5.943zm39.642-1.77c.022 4.68.02 4.652.435 5.495 1.527 3.103 7.98 3.4 10.082.466.835-1.167.875-1.459.876-6.323v-3.811h-3.924l-.018 4.044c-.021 4.588.004 4.332-.473 4.795-.79.765-2.413.57-2.871-.343-.172-.345-.191-.794-.191-4.633l-.001-3.863h-3.936l.02 4.173zm13.631 1.77V27.6h10.426v-2.533h-6.496v-2.43h5.568v-2.532h-5.568v-1.809h5.95v-2.584h-9.88v5.943zm-60.236-3.334c.924.323 1.19 1.642.461 2.292-.338.303-.71.37-2.046.37h-1.168v-2.8l1.242.022c1.024.018 1.289.039 1.51.116zm-5.112 12.224c-1.544.253-2.278 2.09-1.425 3.573.701 1.22 2.736 1.28 3.5.105.262-.403.266-.458.041-.55l-.38-.155-.187-.077-.168.282c-.965 1.62-2.978-.252-2.041-1.897.477-.839 1.834-.804 2.015.052l.032.152.418-.101c.23-.056.423-.106.43-.113a2.017 2.017 0 00-.142-.32c-.359-.718-1.194-1.098-2.093-.95zm9.686 0c-1.771.245-2.478 2.565-1.192 3.912.547.573 1.667.766 2.444.42 1.674-.742 1.718-3.367.07-4.145-.22-.104-.889-.258-1.007-.232a16.04 16.04 0 01-.315.046zm8.393 2.222v2.17h.822l-.03-1.537a46.708 46.708 0 00-.056-1.757c-.057-.517.085-.113.543 1.538l.487 1.757h.773l.433-1.564c.632-2.279.582-2.26.544-.207l-.033 1.77h.829v-4.344l-.638.015-.638.014-.436 1.618c-.24.89-.453 1.588-.473 1.55-.02-.036-.229-.77-.464-1.63l-.427-1.563h-1.236v2.17zm10.37-.002v2.173h.82l-.026-.35c-.057-.75-.078-3.19-.027-3.087.029.057.25.812.49 1.68.242.867.452 1.617.468 1.666.025.075.095.09.407.09h.377l.08-.27c.044-.15.255-.9.467-1.667.212-.768.41-1.442.437-1.5.05-.102.028 2.35-.028 3.089l-.026.349h.82v-4.345l-.612.015-.611.014-.437 1.59c-.24.874-.453 1.589-.471 1.589-.019 0-.23-.715-.47-1.59l-.436-1.589-.61-.014-.611-.015v2.172zm10.426.002v2.17h.764v-4.34h-.764v2.17zm6.55-1.809v.362h1.256v3.618h.818l.014-1.796.014-1.796.641-.015.641-.014v-.72h-3.384v.361zm8.734 0v.362h1.255v3.618h.819V31.32h1.255v-.723h-3.329v.361zm9.06 1.81v2.17h3.439v-.672h-2.62v-1.24h2.238v-.673h-2.238V31.32h2.456v-.723h-3.275v2.17zm9.17 0v2.17h3.385v-.672h-2.624l.016-.607.015-.608 1.105-.014 1.106-.014v-.67h-2.238V31.32h2.456v-.723h-3.221v2.17zm-62.031-1.494c1.198.286 1.368 2.374.236 2.908-.984.464-1.913-.224-1.913-1.419 0-1.075.723-1.716 1.677-1.489z" fill="#040404"/><path d="M59.296 8.734c0 .213.01.3.02.194a2.127 2.127 0 000-.388c-.01-.106-.02-.02-.02.194zm6.222 0c0 .213.01.3.021.194a2.127 2.127 0 000-.388c-.011-.106-.02-.02-.02.194zm10.215 1.822l.001 2.184h.819l.004-.35.004-.349-.02.337-.02.336h-.758l-.015-2.17-.016-2.172.001 2.184zm2.716-2.029c0 .1.011.14.025.091a.401.401 0 000-.181c-.014-.05-.025-.01-.025.09zm.819 2.007l-.013 2.188-.377-.017c-.208-.01-.366 0-.352.022.045.068.73.045.758-.026.015-.036.02-1.03.012-2.21l-.015-2.144-.013 2.187zm12.341-1.8c0 .213.01.3.021.194a2.127 2.127 0 000-.388c-.011-.106-.02-.02-.02.194zm28.826 1.447c0 1.01.008 1.422.016.918.01-.505.01-1.33 0-1.835-.008-.505-.016-.092-.016.917zm-68.293-.465c0 .128.01.18.023.116a.693.693 0 000-.232c-.012-.064-.023-.012-.023.116zm54.732.13c0 .07.009.129.021.129.011 0 .033-.059.047-.13.014-.07.005-.129-.021-.129-.026 0-.047.058-.047.13zm2.036.18c0 .156.01.22.023.143a1.128 1.128 0 000-.285c-.013-.078-.023-.014-.023.142zm-30.404 0c0 .128.01.18.023.116a.693.693 0 000-.232c-.013-.064-.023-.012-.023.116zm-13.207.44c0 .199.01.274.022.166.012-.107.012-.27 0-.361-.012-.092-.022-.005-.022.195zm-13.104.775c0 .114.012.154.025.09a.532.532 0 00-.001-.207c-.014-.05-.024.003-.024.117zm17.74-.143c.112.01.296.01.41 0 .112-.012.02-.02-.206-.02-.225 0-.317.008-.204.02zm-19.753.711c0 .285.01.394.02.244.011-.15.011-.383 0-.517s-.02-.01-.02.273zm58.76.92c.025.023.214.034.421.025l.376-.015-.42-.026c-.231-.014-.401-.006-.377.016zm-63.814.023c.128.01.325.01.437 0 .112-.012.006-.02-.234-.02-.24 0-.331.009-.203.02zm4.476 0c.128.01.325.01.437 0 .111-.012.006-.02-.234-.02-.24 0-.331.009-.203.02zm2.781-.001c.097.011.269.012.382 0 .113-.01.034-.02-.176-.02s-.303.008-.206.02zm5.024 0c.129.011.325.011.437 0 .112-.01.007-.02-.233-.02-.24 0-.332.01-.204.02zm5.703.002c.473.008 1.247.008 1.719 0 .473-.01.086-.016-.86-.016-.945 0-1.332.007-.86.015zm26.61-.001c.13.01.326.01.437 0 .112-.012.007-.02-.233-.02-.24 0-.332.009-.203.02zm5.077 0c.128.01.325.01.436 0 .112-.012.007-.02-.233-.02-.24 0-.331.009-.203.02zm11.517 0c.128.01.325.01.437 0 .111-.012.006-.02-.234-.02-.24 0-.332.009-.203.02zm-5.623.102a.625.625 0 00.218-.001c.052-.013-.003-.023-.123-.023s-.163.011-.095.024zm-24.016 2.533c.128.011.325.011.437 0 .112-.011.007-.02-.234-.02-.24 0-.331.01-.203.02zm-24.836.361a.635.635 0 00.218-.001c.053-.013-.003-.023-.123-.022-.12 0-.163.01-.095.023zm53.803 3.788c0 2.117.007 2.984.015 1.925.009-1.059.009-2.791 0-3.85-.008-1.06-.015-.193-.015 1.925zm3.985-.285c0 1.962.007 2.757.015 1.767.008-.99.008-2.595 0-3.566-.008-.972-.015-.162-.015 1.8zm12.104-2.261l-.012 1.305-2.989.013-2.988.014 2.99.013c2.375.01 2.996-.001 3.017-.053.014-.036.019-.635.011-1.331l-.016-1.266-.013 1.305zm-76.84 3.166c0 2.061.007 2.904.015 1.874a285.4 285.4 0 000-3.748c-.008-1.03-.015-.187-.015 1.874zm31.865-1.928a.483.483 0 00.19 0c.053-.013.01-.024-.095-.024s-.148.01-.095.024zm-12.715.106c.836.008 2.187.008 3.003 0 .816-.008.132-.014-1.519-.014-1.65 0-2.319.006-1.484.014zm-.136 4.342c.79.008 2.067.008 2.838 0 .771-.008.125-.015-1.436-.015s-2.192.006-1.402.015zm53.242 0c.773.008 2.038.008 2.811 0 .773-.008.141-.015-1.405-.015s-2.179.006-1.406.015zm-15.011.736c0 .1.011.14.025.09a.396.396 0 000-.18c-.014-.05-.025-.01-.025.09zm-53.122-.018c.447.038 1.08.041 1.056.005-.014-.021-.3-.035-.637-.03-.335.005-.524.016-.42.025zm33.636.38c0 .1.01.14.025.09a.4.4 0 000-.18c-.014-.05-.025-.01-.025.09zm-13.635 2.558c0 .71.007 1.009.017.662.01-.346.01-.928 0-1.292s-.017-.08-.017.63zm-49.463 4.2l-.013 4.508-5.445.014-5.445.013 5.447.013c4.316.01 5.452-.001 5.472-.052.014-.036.02-2.076.012-4.535l-.015-4.47-.013 4.508zm88.654-4.11l-.16.169.177-.152c.097-.084.177-.16.177-.168 0-.04-.045-.005-.194.151zm-4.131 1.471a.622.622 0 00.218 0c.053-.014-.003-.024-.123-.023-.12 0-.163.01-.095.023zM85.34 32.78v2.184h.82v-2.196l.002-2.197-.016 2.184-.015 2.183h-.762l-.015-2.17-.015-2.17.001 2.182zm33.514 0l.001 2.184 1.706.001 1.705.001-1.691-.014-1.691-.015-.016-2.17-.015-2.17.001 2.183zm.813-.943c0 .299.009.421.02.272.011-.15.011-.394 0-.543-.011-.15-.02-.027-.02.271zM94.005 33.14l-.013 1.794-.423.017-.423.018.425.01c.53.014.48.213.462-1.876l-.015-1.757-.013 1.794zm-18.336-.967c0 .17.01.234.023.141a1.31 1.31 0 000-.31c-.013-.077-.023-.001-.023.17zm2.784 0c0 .17.01.234.023.141a1.304 1.304 0 00-.001-.31c-.012-.077-.022-.001-.022.17zm-10.371.905c0 .156.01.22.022.142a1.083 1.083 0 000-.285c-.012-.078-.022-.014-.022.143zm51.585.594c0 .341.009.474.02.295.011-.178.01-.458 0-.62-.011-.162-.02-.016-.02.325zm-54.314-.155c0 .17.01.234.023.141a1.304 1.304 0 00-.001-.31c-.012-.078-.022-.002-.022.169zm-36.833.956c.329.313.61.569.625.569.015 0-.242-.256-.57-.569-.33-.313-.612-.568-.627-.568-.015 0 .242.255.572.568zm47.204-.077c0 .17.01.234.022.14a1.294 1.294 0 000-.31c-.012-.077-.023 0-.022.17zm2.674.025c0 .157.01.22.023.142a1.089 1.089 0 000-.283c-.013-.079-.023-.015-.023.141zm-1.75.466c.018.06.117.078.428.081l.405.004-.38-.02c-.211-.01-.402-.047-.428-.08-.033-.045-.04-.04-.024.015zm-11.87.09c.128.01.325.01.437-.001.112-.011.006-.02-.234-.02-.24 0-.331.01-.203.02zm1.744-.001c.097.011.269.011.382 0 .113-.011.034-.02-.176-.02s-.303.008-.206.02zm1.75 0c.128.011.324.011.436 0 .112-.011.007-.02-.233-.02-.24 0-.332.01-.204.02zm6.877 0c.128.011.325.011.436 0 .112-.011.007-.02-.233-.02-.24 0-.331.01-.203.02zm3.439 0c.128.011.325.011.436 0 .112-.011.007-.02-.233-.02-.24 0-.332.01-.203.02zm23.525 0c.128.011.325.011.437 0 .112-.011.006-.02-.234-.02-.24 0-.331.01-.203.02zm8.462 0c.49.01 1.276.01 1.747 0 .471-.008.07-.015-.89-.015-.961 0-1.346.008-.857.016zm-54.204.102a.836.836 0 00.245 0c.068-.012.013-.022-.122-.022s-.19.01-.123.022z" fill="#44340C"/><path d="M15.765 8.257c3.913.007 10.3.007 14.192 0 3.893-.008.692-.014-7.114-.014-7.805 0-10.99.006-7.078.014zm67.948.098a.139.139 0 00-.035.091c0 .035.016.032.042-.007.026-.038.227-.068.531-.08l.49-.017-.496-.01c-.273-.006-.512.004-.532.023zm30.709.004c.144.01.365.01.491 0 .127-.011.01-.02-.261-.02-.27 0-.373.01-.23.02zm5.375 0c.127.01.336.01.464 0 .128-.011.023-.02-.232-.02s-.36.009-.232.02zm-74.904 2.184c0 1.209.007 1.703.016 1.099a94.62 94.62 0 000-2.197c-.01-.604-.016-.11-.016 1.098zm4.476 0c0 1.209.007 1.703.015 1.099.01-.604.01-1.593 0-2.197-.008-.604-.015-.11-.015 1.098zm2.717-2.015c0 .1.01.14.024.09a.401.401 0 000-.18c-.013-.05-.024-.01-.024.09zm10.164 2.015c0 1.209.007 1.703.016 1.099a94.62 94.62 0 000-2.197c-.009-.604-.016-.11-.016 1.098zm33.187.026c0 1.223.007 1.715.016 1.095.009-.62.009-1.62 0-2.222-.01-.603-.016-.095-.016 1.127zm13.417-1.99c0 .128.011.18.024.117a.698.698 0 000-.233c-.013-.064-.024-.011-.024.117zm-30.405.259c0 .1.011.14.025.09a.401.401 0 000-.18c-.014-.05-.025-.01-.025.09zm-8.667.274c-.015.037-.02.357-.01.71l.017.644.012-.681c.01-.6.023-.684.107-.705.09-.022.09-.024-.002-.03-.053-.003-.11.025-.124.062zm-13.22.022l.586.017.015 1.782.016 1.781-.002-1.796V9.122l-.601-.002-.6-.003.585.017zm1.485.027c-.014.036-.02.867-.011 1.848l.015 1.783.013-1.82.013-1.82.614-.017.614-.016-.616-.012c-.452-.008-.622.007-.642.054zm30.828-.027l.586.017.015 1.782.016 1.781-.001-1.796-.001-1.796-.6-.002-.601-.003.586.017zm1.485.027c-.014.036-.019.867-.01 1.848l.014 1.783.013-1.82.013-1.82.614-.017.614-.016-.615-.012c-.453-.008-.623.007-.643.054zm-38.22.917c0 .1.011.14.025.09a.413.413 0 000-.18c-.014-.05-.025-.01-.025.09zm26.364.31c0 .1.011.14.025.091a.41.41 0 000-.181c-.014-.05-.025-.01-.025.09zm30.406.13c0 .142.011.194.023.115a.857.857 0 00-.001-.258c-.012-.064-.023 0-.022.143zm-9.445 0c0 .113.012.154.025.09a.536.536 0 00-.001-.207c-.014-.05-.025.003-.024.117zm-49.283.336c0 .27.01.38.02.245a3.53 3.53 0 000-.491c-.01-.135-.02-.024-.02.246zm13.449-.013c.307.009.811.009 1.119 0 .307-.01.056-.017-.56-.017-.615 0-.867.007-.56.017zm6.139 1.057l-.012.812-.423.017-.423.018.425.01c.516.013.483.077.462-.896l-.017-.773-.012.812zm6.776-.295c0 .256.009.367.02.247.011-.12.012-.33 0-.465-.011-.136-.02-.038-.02.218zm7.362-.401c.173.01.456.01.628 0 .173-.01.032-.019-.314-.019-.345 0-.486.009-.314.019zm30.433 0c.189.01.483.01.655 0 .171-.01.017-.019-.344-.018-.36 0-.5.008-.311.018zm-7.393 1.124c0 .256.009.368.021.248.011-.12.011-.33 0-.466-.011-.135-.02-.037-.021.218zm-42.57-.297l1.281.015.02.348.02.348-.004-.362-.004-.362-1.296-.001-1.297-.001 1.28.015zm57.899.31l-.01.373-1.351.015-1.351.015 1.353.012c1.534.014 1.42.051 1.389-.459l-.019-.33-.011.374zm-19.991-.051l-.188.194.205-.178c.191-.166.23-.21.188-.21-.009 0-.101.087-.205.194zm-19.647.426l-.463.033.447.01c.25.005.461-.014.48-.043.019-.028.027-.047.017-.042-.01.005-.226.024-.48.042zm-10.957.038c.142.01.376.01.518 0 .143-.01.026-.02-.259-.02-.285 0-.402.01-.26.02zm13.891 0c.128.01.337.01.464 0 .128-.01.023-.02-.232-.02s-.36.01-.232.02zm27.237 0c.128.01.337.01.464 0 .128-.01.024-.02-.232-.02-.255 0-.359.01-.232.02zm3.195 0c.144.01.365.01.491 0 .127-.01.01-.02-.26-.02-.271 0-.374.01-.231.02zm-38.647 2.634a.474.474 0 00.192 0c.052-.013.01-.024-.096-.024-.105 0-.148.01-.096.024zm-32.472.687c0 .214.01.3.021.194.012-.106.012-.28 0-.387-.011-.107-.02-.02-.02.193zm57.265 3.412c0 2.089.007 2.944.015 1.899a267.27 267.27 0 000-3.799c-.008-1.044-.015-.19-.015 1.9zm9.663 2.17v5.97h10.48V25.04l-3.233-.014-3.233-.013-.016-1.163-.016-1.162.001 1.176.002 1.176 3.234.013 3.234.013V27.6h-10.425l-.014-5.957-.014-5.956v5.97zM94.975 16.71c0 .009.08.084.178.168l.177.152-.16-.168c-.15-.157-.195-.192-.195-.152zm-12.69.5c.147.142.28.259.296.259.015 0-.094-.117-.242-.259-.148-.142-.281-.258-.296-.258-.015 0 .094.116.242.258zm-33.408 1.048c-.015.036-.02.67-.011 1.408l.016 1.343.012-1.381.013-1.381 1.05-.016 1.051-.015-1.052-.012c-.808-.009-1.059.004-1.079.054zm66.917.942c0 .483.008.688.018.455.01-.233.01-.629 0-.879s-.018-.059-.018.424zm-31.11-.538c-.048.088-.078.17-.066.18.012.012.062-.06.112-.16.112-.222.073-.24-.047-.02zm-54.813-.07c1.314.009 3.463.009 4.776 0 1.313-.007.239-.013-2.388-.013s-3.701.006-2.388.014zm68.295 2.34c0 1.208.007 1.702.016 1.098.009-.604.009-1.593 0-2.197-.009-.604-.016-.11-.016 1.099zm-41.764-1.396c0 .185.01.26.022.168a1.56 1.56 0 000-.336c-.012-.092-.022-.017-.022.168zm64.961 1.86c0 .726.007 1.022.017.66.009-.363.009-.956 0-1.318-.01-.363-.017-.066-.017.659zm-33.355.053c0 .241.01.34.02.22a2.802 2.802 0 000-.44c-.01-.12-.02-.022-.02.22zm-4.042.284c0 .17.01.234.023.141a1.31 1.31 0 000-.31c-.013-.078-.023-.002-.023.169zm-21.442 2.132l.002 1.176h6.495l-3.233-.013-3.233-.014-.016-1.163-.017-1.162.002 1.176zm47.093-.892c.001.114.012.154.025.09a.53.53 0 00-.001-.207c-.014-.05-.024.003-.024.117zm-14.205 1.034c.195.097.38.176.41.176.03 0-.106-.08-.3-.176-.196-.097-.38-.176-.41-.176-.03 0 .105.08.3.176zm-12.76.077c0 .1.011.14.025.09a.4.4 0 000-.18c-.014-.05-.025-.01-.025.09zm-.411 1.422c-.05.1-.08.18-.066.18.037 0 .203-.316.178-.34-.012-.011-.063.061-.112.16zm-11.255.594c.117.113.225.207.24.207.015 0-.068-.093-.185-.207a1.487 1.487 0 00-.241-.207c-.015 0 .069.093.186.207zm14.71.078c.102.099.198.18.212.18.016 0-.056-.081-.157-.18a1.184 1.184 0 00-.213-.181c-.015 0 .056.081.158.18zM22.243 28.58c1.47 1.393 2.687 2.532 2.701 2.532.015 0-1.176-1.14-2.647-2.532-1.47-1.393-2.686-2.533-2.7-2.533-.016 0 1.175 1.14 2.646 2.533zm73.112-2.339l-.189.194.205-.178c.113-.098.205-.185.205-.194 0-.04-.047-.002-.221.178zm-34.212 1.395a586.7 586.7 0 005.24 0c1.451-.007.28-.013-2.602-.013-2.882 0-4.069.006-2.638.014zm15.37.362c.157.01.415.01.572 0 .158-.01.03-.02-.286-.02-.315 0-.444.01-.287.02zm13.836-.002c.083.012.218.012.3 0 .083-.011.015-.02-.15-.02-.165 0-.232.009-.15.02zm-15.435 4.77c0 1.208.007 1.702.015 1.098a91.37 91.37 0 000-2.196c-.008-.604-.015-.11-.015 1.098zm4.312.026c0 1.222.007 1.715.016 1.095.008-.62.008-1.62 0-2.223-.01-.602-.016-.095-.016 1.128zm21.394-1.835l.005.388.613.014.613.015.016 1.781.015 1.782-.001-1.796-.001-1.796-.612-.015-.611-.014-.021-.374-.02-.373.004.388zm3.372-.015l-.011.373-.614.015-.614.015-.001 1.809-.001 1.809.016-1.797.015-1.795h.601c.691 0 .668.016.639-.471l-.02-.33-.01.372zm-11.757.415c.188.01.483.01.655 0 .171-.01.016-.019-.344-.018-.36 0-.5.008-.311.018zm2.129 0c.188.01.483.01.654 0 .172-.01.017-.019-.343-.018-.36 0-.5.008-.311.018zm16.188.479c0 .298.009.42.02.271.011-.15.011-.393 0-.542-.011-.15-.02-.028-.02.27zm-34.885-.155c0 .128.011.18.024.116a.715.715 0 000-.232c-.013-.065-.023-.012-.023.116zm2.758-.143a.53.53 0 00.015.22c.035.142.039.137.045-.064.006-.22-.016-.278-.06-.156zm-10.342.97c0 .184.01.26.022.168a1.559 1.559 0 000-.336c-.012-.093-.022-.017-.022.167zm44.697.167l-.011.347-1.105.014-1.105.014v1.189l1.31.001 1.31.002-1.297-.015-1.296-.016v-1.134h1.093c1.237 0 1.162.03 1.131-.445l-.02-.304-.01.348zm9.115 0l-.01.347-1.105.015-1.106.016 1.107.011c1.254.014 1.176.043 1.145-.433l-.02-.304-.011.348zm-64.075.117c0 .142.01.194.023.115a.875.875 0 000-.258c-.014-.064-.024 0-.023.143zm7.533.18c0 .157.01.221.023.143a1.066 1.066 0 000-.284c-.013-.078-.023-.015-.023.142zm13.047.88c0 .184.01.26.021.167a1.558 1.558 0 000-.336c-.012-.092-.022-.016-.022.169zm-2.676 0c0 .156.01.22.022.142a1.092 1.092 0 000-.285c-.012-.078-.022-.014-.022.142zm45.258.4l1.28.015.02.348.019.348-.003-.362-.004-.362-1.296-.002-1.297-.001 1.281.015zm-66.126.132c0 .01.08.085.178.168l.177.152-.16-.168c-.15-.157-.195-.191-.195-.152zm13.17.32c.001.142.012.194.024.116a.86.86 0 000-.259c-.014-.063-.024 0-.023.143zM31.1 35.08c1.088.008 2.87.008 3.957 0 1.089-.008.198-.014-1.978-.014-2.177 0-3.067.006-1.979.014z" fill="#846414"/><path d="M8.65 21.681c0 7.39.007 10.422.015 6.736.008-3.686.008-9.733 0-13.438-.008-3.704-.014-.689-.014 6.702zm47.262-12.92c0 .227.01.314.021.192a2.46 2.46 0 000-.414c-.012-.105-.021-.006-.02.221zm12.997 1.808c0 1.223.007 1.715.016 1.095.009-.62.009-1.62 0-2.222-.009-.602-.016-.095-.016 1.127zM88.225 8.76c0 .228.01.315.022.193a2.448 2.448 0 000-.414c-.012-.105-.022-.006-.022.221zm6.338 1.81c0 1.222.007 1.714.016 1.094.009-.62.009-1.62 0-2.222-.008-.602-.016-.095-.016 1.127zm24.999 0c0 1.222.008 1.714.016 1.094.009-.62.009-1.62 0-2.222-.008-.602-.016-.095-.016 1.127zM52.087 8.89c0 .128.011.18.024.116a.71.71 0 000-.233c-.013-.064-.024-.011-.024.117zm56.768.155c0 .156.011.22.023.142a1.041 1.041 0 000-.285c-.012-.078-.023-.014-.023.143zM78.451 9.2c0 .128.01.18.024.116a.715.715 0 000-.232c-.013-.065-.024-.012-.024.116zm-8.324-.118c.098.012.246.011.327 0 .082-.012.002-.022-.178-.021-.18 0-.247.01-.15.021zm-19.947.996c0 .185.01.26.022.168a1.56 1.56 0 000-.336c-.013-.092-.023-.016-.023.168zm26.366.595c0 .284.01.394.02.244.011-.15.011-.383 0-.517s-.02-.011-.02.273zm-24.404-.233c0 .128.01.18.023.117a.693.693 0 000-.233c-.012-.064-.023-.012-.023.116zm26.364.31c0 .128.01.18.023.117a.693.693 0 000-.233c-.013-.064-.023-.012-.023.116zm30.403.233c.001.142.011.194.024.115a.89.89 0 00-.001-.258c-.013-.064-.023 0-.023.143zm-1.96.413c0 .285.009.394.02.244a4.05 4.05 0 000-.517c-.011-.134-.021-.011-.02.273zm-48.41 10.285c0 3.297.007 4.654.015 3.015.008-1.64.008-4.338 0-5.995-.008-1.659-.014-.317-.014 2.98zm9.987-4.651c0 .739.008 1.034.017.656.01-.379.01-.983 0-1.344-.01-.361-.017-.051-.017.688zm29.64.206c-.001.853.006 1.21.016.792.009-.418.009-1.115 0-1.55-.01-.436-.017-.095-.017.758zm-65.934 5.866c2.611 2.473 4.76 4.497 4.775 4.497.015 0-2.11-2.024-4.721-4.497-2.612-2.473-4.76-4.496-4.776-4.496-.015 0 2.11 2.023 4.721 4.496zm31.699-3.01c.773.008 2.038.008 2.81 0 .774-.008.141-.015-1.405-.015s-2.178.007-1.405.015zm53.277 0c.775.008 2.028.008 2.784 0 .756-.008.121-.015-1.41-.015s-2.149.007-1.374.015zm-33.246 1.202c0 .099.01.14.025.09a.402.402 0 000-.18c-.014-.05-.025-.01-.025.09zm0 .878c0 .1.01.14.025.09a.404.404 0 000-.18c-.014-.05-.025-.01-.025.09zm14.193 1.111c0 .114.011.154.025.09a.54.54 0 00-.002-.207c-.013-.049-.024.004-.023.117zm-49.278 2.223c0 1.165.007 1.65.016 1.075a83.15 83.15 0 000-2.119c-.009-.591-.016-.122-.016 1.044zm41.991 2.491a.632.632 0 00.219-.001c.052-.013-.004-.023-.124-.022-.12 0-.163.01-.095.023zm-26.326 4.796c0 1.222.008 1.715.016 1.095.009-.62.009-1.62 0-2.223-.008-.602-.016-.095-.016 1.128zm57.579-1.835c0 .213.01.3.022.194a2.091 2.091 0 000-.388c-.012-.106-.022-.019-.022.194zm-97.176.168c0 .008.669.641 1.487 1.409l1.487 1.395-1.473-1.408c-1.37-1.31-1.501-1.432-1.501-1.396zm68.199 2.055c0 1.009.007 1.421.016.917a62.36 62.36 0 000-1.835c-.009-.504-.016-.091-.016.918zm-25.062-1.24c0 .155.01.22.023.141a1.09 1.09 0 000-.284c-.013-.078-.023-.014-.023.142zm-2.728.464c0 .185.01.26.022.168a1.549 1.549 0 000-.336c-.012-.092-.022-.017-.022.168zm10.37.905c0 .17.01.234.022.14a1.29 1.29 0 000-.31c-.012-.077-.022 0-.022.17zm2.674-.026c0 .156.01.22.023.142a1.082 1.082 0 000-.284c-.013-.078-.023-.015-.023.142zm-10.37.904c0 .17.01.234.022.141a1.29 1.29 0 000-.31c-.013-.077-.023-.001-.022.17zm45.142.414c0 .227.01.314.021.192a2.376 2.376 0 000-.413c-.012-.106-.021-.007-.021.22zm-47.762.052c0 .17.01.234.022.14a1.29 1.29 0 000-.31c-.013-.077-.023-.001-.022.17z" fill="#BC9424"/></g><defs><clipPath id="clip0_679_3557"><path fill="#fff" d="M0 0h131v43H0z"/></clipPath></defs></svg>