<svg width="124" height="40" fill="none" xmlns="http://www.w3.org/2000/svg"><path fill-rule="evenodd" clip-rule="evenodd" d="M76.037 1.807c-7.56 1.16-11.562 4.465-11.097 9.164.374 3.782 2.855 5.34 10.98 6.892 5.666 1.082 7.004 1.9 6.732 4.123-.615 5.042-11.34 4.82-13.052-.27-.41-1.22-.283-1.185-4.277-1.185-4.1 0-3.874-.09-3.741 1.475.613 7.241 16.16 10.49 25.422 5.31 4.958-2.772 6.165-8.43 2.41-11.294-.538-.41-2.24-1.315-2.828-1.504-1.999-.641-2.67-.789-6.383-1.401-5.692-.94-7.438-1.958-7.142-4.166.49-3.665 9.301-4.39 12.5-1.029l.706.743h3.442c4.282 0 4.384-.04 3.759-1.483-1.738-4.013-9.904-6.53-17.431-5.375zm-61.87 1.124c-.183.169-.234.978-.262 4.177-.02 2.182-.076 4.092-.124 4.245l-.09.278H8.398c-4.53 0-5.346.028-5.653.193-.513.274-.571 7.162-.064 7.513.262.182.888.205 5.556.205 4.255 0 5.296.032 5.444.17.127.116.195 1.423.222 4.245.03 3.289.082 4.116.266 4.285.248.229 9.685.262 9.98.035.075-.057.172-1.976.216-4.265.045-2.288.14-4.23.212-4.315.097-.115.906-.155 3.122-.155 3.563 0 3.33.075 4.69-1.518 3.588-4.204 3.451-4.003 3.451-5.07 0-1.402.323-1.33-5.895-1.319-4.737.009-5.185-.008-5.374-.206-.156-.165-.206-1.162-.206-4.186 0-3.232-.042-4.014-.229-4.21-.334-.349-9.596-.444-9.968-.102zm36.136.018c-.424.17-.996.81-3.232 3.615-.514.645-1.097 1.368-1.295 1.606-.197.238-.887 1.1-1.533 1.916-.646.816-1.36 1.706-1.585 1.978-.225.272-.58.703-.786.958-.207.255-.548.672-.758.927a81.3 81.3 0 00-.82 1.02c-.242.306-.788.976-1.214 1.49a41.478 41.478 0 00-1.043 1.297c-.147.2-.447.587-.668.859-.22.272-.548.69-.728.927-.18.238-.541.683-.802.989-.26.306-.624.75-.808.989-.184.238-.545.683-.803.989-.257.305-.687.834-.955 1.174-.268.34-.855 1.063-1.303 1.607-.45.544-.883 1.1-.965 1.236-.081.136-.336.439-.566.673-1.11 1.13-.703 1.264 3.678 1.215l3.046-.034.397-.371a7.06 7.06 0 00.717-.803c.177-.238.534-.683.794-.99.261-.305.615-.75.787-.99.172-.238.511-.586.754-.772l.443-.339h6.935c8.277 0 7.79-.076 7.961 1.262.417 3.287.277 3.188 4.54 3.188 4.177 0 4.263-.029 3.02-1.02-2.23-1.775-3.162-3.271-3.45-5.53-.216-1.7-.053-2.522.508-2.567 2.057-.167 2.106-.209 1.69-1.418-.146-.426-.4-1.303-.563-1.949a137.2 137.2 0 00-.806-2.966c-.28-.986-.642-2.321-.805-2.967-.163-.646-.343-1.264-.4-1.373-.059-.11-.242-.75-.409-1.422-.27-1.087-.838-3.22-1.057-3.969-.045-.15-.234-.337-.42-.413-.505-.206-6.989-.226-7.496-.022zm45.29-.116c-.581.051-.832.365-1.234 1.547l-.33.969.378.576c1.349 2.063 1.117 3.852-.5 3.852-.995 0-1.298.268-1.575 1.394-.13.529-.28 1.014-.33 1.078-.053.065-.235.675-.405 1.357-.17.683-.376 1.333-.459 1.446-.17.234.095.8.708 1.51 2.379 2.749 1.204 8.04-2.354 10.596-1.92 1.378-2.493 1.304 9.703 1.255 12.04-.05 13.277-.174 16.159-1.633 5.371-2.718 5.418-9.195.081-11.126-.489-.177-.889-.37-.889-.428 0-.118.017-.124 1.812-.635 7.737-2.201 7.313-10.35-.6-11.54-1.183-.177-18.494-.365-20.165-.218zm15.621 4.112c2.599.552 3.504 3.7 1.515 5.275-1.405 1.112-2.461 1.265-8.706 1.265h-4.676l-.181-.305c-.143-.239-.127-.42.072-.834.14-.291.369-.965.508-1.498.14-.533.291-1.015.335-1.071.046-.056.228-.649.406-1.318.469-1.763.083-1.648 5.552-1.648 2.751.001 4.795.054 5.175.134zM20.42 9.79c.335.284.675.298 1.04.046.245-.17.308-.167.626.03.558.346.597 2.338.049 2.443-.49.094-.68-.01-.68-.372 0-1.438-3.05-2.076-3.491-.73-.211.64.484 2.004 1.317 2.587.097.068.317.285.489.481.171.197.457.51.635.697 2.39 2.507 2.883 3.909 1.854 5.28-.756 1.009-3.201 1.768-3.998 1.24-.55-.362-1.316-.48-1.824-.278-.43.17-.477.165-.632-.056-.275-.394-.214-2.298.08-2.484.287-.183.708.134.717.54.002.125.162.404.353.618 1.042 1.166 3.49.867 3.55-.435.039-.87-.23-1.34-1.546-2.698-3.197-3.3-3.937-4.923-2.777-6.087 1.04-1.043 3.428-1.506 4.238-.822zm32.463.827c.06.388.185.928.278 1.2.093.272.303 1.217.466 2.101.297 1.607.577 2.94 1.074 5.11.341 1.487.772 1.375-5.332 1.377-6.203.003-5.847.204-3.862-2.189.238-.287.897-1.121 1.463-1.854a87.607 87.607 0 011.29-1.64c.66-.784 1.976-2.447 2.2-2.782.137-.204.464-.62.728-.927.263-.306.635-.775.827-1.044.439-.615.702-.419.868.648zm57.38 6.62c2.854 1.243 3.155 3.763.665 5.561-1.537 1.11-2.181 1.194-9.202 1.194h-5.744l-.057-.34a1.11 1.11 0 01.129-.649c.102-.17.28-.698.393-1.174.114-.476.302-1.074.419-1.33.116-.254.29-.797.388-1.207.238-1.004.77-2.25 1.013-2.373.109-.055 2.671-.085 5.693-.067l5.495.032.808.353z" fill="#F3D43E"/><path fill-rule="evenodd" clip-rule="evenodd" d="M76 .805c-3.799.43-8.872 2.504-10.181 4.162-.194.245-.666.796-1.062 1.24-.946 1.058-1.49 3.52-1.148 5.177.19.916.816 2.627.995 2.72.065.034.235.228.377.432.643.925 2.589 2.155 4.313 2.726.31.103.864.297 1.23.43.365.134.748.243.852.243.104 0 .75.137 1.437.303 1.195.29 1.864.425 4.561.921.667.123 1.43.315 1.697.426.267.112.57.203.676.204.393.001 1.377.86 1.517 1.324.202.663-.137 2.014-.505 2.014-.072 0-.171.097-.221.216-.178.427-1.212.906-2.485 1.152-3.671.71-7.418-1.299-7.478-4.01-.023-1.027.092-.99-2.99-.956-3.788.043-3.857-.005-4.45-3.077-.099-.51-.244-1.02-.323-1.134-.078-.114-.26-.781-.405-1.483-.144-.702-.323-1.365-.397-1.474-.074-.108-.254-.748-.398-1.421-.145-.673-.364-1.447-.487-1.719s-.306-.934-.406-1.471c-.1-.538-.25-1.094-.334-1.236-.084-.143-.289-.843-.457-1.557-.272-1.163-.43-1.703-.794-2.72l-.11-.308-4.441-.036c-5.242-.043-5.342-.034-5.708.5-.15.22-.489.651-.75.957-.263.306-.627.75-.811.989-.184.238-.548.683-.809.989-.26.306-.66.806-.887 1.112-.708.954-1.076 1.406-1.392 1.714-.168.163-.306.355-.306.425s-.116.226-.258.346c-.141.12-.377.383-.525.586a32.516 32.516 0 01-1.48 1.873c-.26.306-.624.751-.808.99a33.98 33.98 0 01-.808.988c-.26.306-.63.775-.821 1.043-.191.268-.448.564-.571.657-.123.095-.224.224-.224.288 0 .063-.218.346-.485.627-.267.282-.485.59-.485.683 0 .094-.106.202-.236.24-.13.038-.285.19-.344.336-.06.147-.263.434-.451.637-.334.364-.454.517-1.189 1.527-.198.273-.436.532-.527.575-.092.043-.275.255-.407.472a9.334 9.334 0 01-.72.95c-.263.305-.633.772-.822 1.036-.19.265-.41.543-.493.618-.35.323-1.017 1.157-1.22 1.528-.122.221-.288.402-.37.402-.082 0-.198.125-.259.278-.06.153-.284.455-.496.671-.212.217-.385.436-.385.488 0 .095-.173.307-1.422 1.744-1.114 1.283-1.26 1.245 4.939 1.265l4.729.015.406-.346c.224-.19.553-.54.731-.778.179-.238.538-.683.799-.989.26-.306.616-.754.79-.997.175-.242.533-.617.798-.834l.48-.394h6.041c6.754 0 6.665-.01 6.843.838.054.253.2.794.324 1.202.125.408.268.992.318 1.298.164.99-.26.923 5.993.958 5.74.032 6.779.108 8.003.592 2.422.958 10.057.99 13.319.055 2.18-.625 1.831-.609 14.384-.659 13.473-.053 16.215-.245 17.858-1.252.134-.081.474-.218.756-.303.283-.086.639-.262.793-.391.154-.13.345-.236.426-.236.526 0 2.67-2.138 3.036-3.029.112-.272.273-.561.357-.643.526-.507.507-4.667-.022-5.155-.093-.085-.271-.375-.394-.642-.271-.587-.961-1.387-1.399-1.622a.62.62 0 01.109-1.154c.391-.113 1.099-.516 1.893-1.077.586-.415 1.578-1.526 1.81-2.03.129-.28.306-.575.392-.654.585-.54.59-4.648.006-5.188-.076-.07-.267-.375-.424-.676-.157-.301-.385-.635-.506-.741-.838-.74-1.496-1.245-1.623-1.245-.082 0-.279-.11-.436-.243-.158-.133-.551-.306-.874-.384a5.967 5.967 0 01-.951-.317c-.928-.445-3.179-.536-13.527-.541-11.448-.006-10.68-.081-10.858 1.052-.205 1.298-.66 1.388-2.156.424-1.58-1.02-4.112-1.932-6.71-2.42C83.19.665 77.884.592 76 .806zm7.624 1.005c5.058.833 8.75 2.847 9.844 5.372.625 1.443.523 1.483-3.76 1.483h-3.441l-.706-.743c-3.199-3.361-12.01-2.636-12.5 1.029-.296 2.209 1.45 3.226 7.142 4.166 3.713.612 4.384.76 6.383 1.402.588.188 2.29 1.093 2.827 1.503 2.619 1.997 2.934 5.644.742 8.612-4.834 6.552-21.915 6.964-27.184.656-1.108-1.326-1.863-4.03-1.277-4.57.275-.254 6.885-.283 7.332-.033.154.087.412.55.574 1.03 1.712 5.09 12.437 5.311 13.052.27.271-2.223-1.066-3.042-6.732-4.124C66.855 16.13 64.228 14 64.946 8.96c.707-4.95 10.127-8.556 18.678-7.15zm-82.387.203c-.209.299-.192 26.873.018 27.173.26.37 22.599.367 23.397-.005.286-.132.52-.319.52-.413 0-.095.103-.238.229-.317.126-.08.38-.393.567-.695.185-.303.404-.55.485-.55.082 0 .23-.188.329-.418.099-.23.323-.517.497-.637.175-.12.319-.28.32-.355.003-.127.588-.858 1.244-1.555.159-.168.38-.447.492-.618.111-.17.418-.561.681-.867.263-.306.635-.775.826-1.043.191-.268.448-.564.571-.658.123-.094.224-.223.224-.287 0-.063.218-.346.485-.627.267-.282.485-.579.485-.66 0-.081.145-.248.323-.371.178-.123.323-.276.323-.34s.164-.292.363-.506c.353-.38.46-.515 1.201-1.531.194-.266.466-.556.606-.644.14-.089.254-.221.254-.294 0-.121.336-.547 1.158-1.47.301-.34.504-12.094.212-12.317-.278-.213-35.66-.208-35.81.005zm22.898 1.02c.187.196.23.979.23 4.21 0 3.024.049 4.022.205 4.186.19.198.637.215 5.374.206 6.218-.01 5.895-.083 5.895 1.319 0 1.067.137.866-3.452 5.07-1.359 1.593-1.127 1.518-4.69 1.518-2.215 0-3.024.04-3.121.155-.072.085-.167 2.027-.212 4.316-.044 2.288-.141 4.207-.215 4.264-.296.227-9.733.194-9.982-.035-.183-.169-.234-.996-.265-4.285-.027-2.822-.095-4.128-.222-4.245-.149-.137-1.189-.17-5.444-.17-4.668 0-5.294-.023-5.556-.204-.507-.351-.449-7.24.064-7.514.307-.165 1.123-.192 5.653-.192h5.294l.09-.279c.048-.153.104-2.063.123-4.245.03-3.199.08-4.008.264-4.177.37-.342 9.633-.247 9.967.103zM57.8 2.972c.186.076.375.262.42.414.22.748.788 2.881 1.057 3.969.167.672.35 1.312.408 1.421.058.11.238.727.401 1.373.163.646.525 1.981.804 2.967.28.986.643 2.32.807 2.966.164.646.417 1.523.564 1.95.415 1.208.366 1.25-1.69 1.417-.562.045-.725.868-.508 2.566.287 2.26 1.22 3.756 3.448 5.531 1.244.991 1.158 1.02-3.02 1.02-4.262 0-4.122.099-4.54-3.188-.17-1.338.317-1.261-7.96-1.261h-6.935l-.443.338a4.443 4.443 0 00-.754.773c-.172.238-.526.684-.787.99-.26.306-.617.75-.794.989-.175.238-.498.6-.717.803l-.397.37-3.046.035c-4.381.05-4.788-.085-3.678-1.215.23-.234.484-.537.566-.673.082-.136.516-.692.965-1.236a116.41 116.41 0 001.303-1.607c.268-.34.698-.868.955-1.174.258-.306.62-.751.803-.99.184-.237.547-.682.808-.988.26-.306.621-.75.802-.989.18-.238.508-.655.728-.927.22-.272.521-.658.668-.859.148-.2.617-.784 1.043-1.298.426-.513.972-1.183 1.214-1.49.242-.305.61-.764.82-1.019.21-.255.55-.672.758-.927.207-.255.56-.686.786-.958.226-.272.939-1.162 1.585-1.978.646-.815 1.336-1.678 1.533-1.915.198-.238.78-.961 1.295-1.607 2.236-2.806 2.808-3.445 3.232-3.615.507-.203 6.991-.184 7.496.022zm57.959.081c7.913 1.19 8.337 9.338.6 11.54-1.795.51-1.812.516-1.812.634 0 .058.4.251.889.428 5.337 1.93 5.29 8.408-.081 11.126-2.882 1.459-4.119 1.584-16.159 1.633-12.196.05-11.623.124-9.703-1.255 3.557-2.556 4.733-7.847 2.354-10.597-.614-.708-.879-1.275-.708-1.51.083-.112.29-.762.46-1.444.17-.683.35-1.293.403-1.358.052-.064.2-.55.33-1.078.278-1.126.581-1.394 1.576-1.394 1.617 0 1.849-1.79.5-3.852l-.378-.576.33-.969c.402-1.182.653-1.496 1.234-1.547 1.671-.147 18.982.041 20.165.22zm-33.213 4.19c1.083.415 1.939 1.011 1.941 1.353.009.934.128.968 3.322.941 3.545-.03 3.568-.014 3.092 1.996-.14.593-.324 1.177-.408 1.298-.084.122-.205.472-.269.778-.209.992-.974 1.189-1.937.498-.191-.138-.417-.25-.501-.25-.085 0-.441-.118-.793-.262a11.06 11.06 0 00-1.452-.446c-.447-.1-.887-.229-.978-.285-.09-.056-.85-.194-1.689-.305-.838-.111-1.6-.238-1.694-.283-.093-.044-.824-.175-1.624-.29-3.93-.57-5.577-1.617-5.096-3.242.505-1.709 5.246-2.589 8.086-1.5zm18.605-.216c-.247.157-.429.55-.664 1.432-.178.67-.36 1.262-.406 1.318-.044.056-.196.538-.335 1.07-.14.534-.368 1.208-.508 1.499-.199.414-.215.595-.073.834l.182.306h4.676c6.245 0 7.301-.154 8.706-1.266 1.989-1.574 1.084-4.722-1.515-5.275-1.16-.246-9.656-.177-10.063.082zm9.883.952c2.17.853 2.029 3.21-.246 4.112-.848.336-.849.336-4.974.378-4.828.05-5.097.013-4.95-.686.489-2.333 1.116-3.803 1.693-3.97.85-.246 7.773-.11 8.477.166zM18.546 9.537c-2.503.247-3.53 2.02-2.285 3.948.631.977 1.279 1.75 2.698 3.214 1.316 1.359 1.585 1.828 1.545 2.698-.059 1.302-2.507 1.602-3.549.435-.192-.214-.35-.492-.354-.618-.008-.405-.43-.723-.716-.54-.294.186-.355 2.09-.08 2.484.155.222.203.226.632.056.508-.2 1.275-.084 1.824.279.797.527 3.241-.232 3.998-1.241 1.029-1.371.536-2.773-1.854-5.28a26.66 26.66 0 01-.636-.697 3.892 3.892 0 00-.488-.48c-.833-.584-1.528-1.947-1.318-2.588.442-1.346 3.492-.708 3.492.73 0 .363.19.466.68.372.548-.105.509-2.096-.049-2.442-.318-.197-.381-.2-.626-.03-.365.252-.705.237-1.04-.047-.328-.276-.877-.35-1.874-.253zm33.469.433a17.97 17.97 0 01-.827 1.043c-.264.306-.591.723-.728.928-.224.334-1.54 1.998-2.2 2.78-.143.17-.723.909-1.29 1.641-.567.733-1.225 1.567-1.463 1.855-1.986 2.392-2.34 2.19 3.862 2.189 6.104-.003 5.673.109 5.332-1.379a112.29 112.29 0 01-1.074-5.109c-.163-.884-.373-1.83-.466-2.101a8.686 8.686 0 01-.278-1.2c-.166-1.066-.43-1.263-.868-.647zm-.03 3.123c.087.125.21.528.272.896.062.37.18.808.261.977.082.168.29 1.141.46 2.163l.313 1.857-.34.216c-.294.187-.706.217-3.051.217-2.343 0-2.76-.03-3.058-.217l-.346-.216.32-.478c.177-.263.43-.571.565-.684.134-.114.355-.41.49-.657.135-.248.32-.486.412-.53.092-.043.275-.255.407-.471.133-.217.459-.644.725-.95.266-.306.611-.751.767-.99.733-1.122 1.482-1.592 1.804-1.133zm46.282 3.827c-.243.122-.775 1.368-1.013 2.372-.097.41-.272.953-.388 1.208-.117.255-.305.853-.419 1.329-.114.476-.29 1.004-.394 1.174a1.11 1.11 0 00-.128.649l.057.34h5.743c7.022 0 7.666-.084 9.203-1.194 2.49-1.798 2.189-4.318-.665-5.561l-.808-.352-5.495-.033c-3.022-.018-5.584.013-5.693.068zm10.641 1.015c3.165.448 3.092 3.577-.109 4.71l-1.012.358h-4.751c-5.945 0-5.794.073-4.886-2.348.14-.374.36-1.064.488-1.534.259-.946.411-1.146.93-1.223.744-.111 8.513-.08 9.34.037zM24.782 34.067c-.127.389.083.624.46.514.325-.096.315-.2-.05-.563l-.297-.295-.113.344zm20.614-.07c-2.386.932-1.35 2.568 1.957 3.09 1.208.192 1.882.932 1.213 1.334-.482.29-1.75.566-1.939.422a.895.895 0 00-.465-.142c-.154 0-.455-.172-.67-.381-.398-.39-1.225-.486-1.364-.16-.36.84 3.406 1.815 4.422 1.146.165-.108.423-.23.573-.271.561-.151.775-1.681.297-2.121-.205-.19-1.706-.619-2.827-.81-1.017-.172-1.219-.304-1.219-.802 0-.797 1.837-1.14 2.673-.5.875.668 1.776.617 1.363-.077-.48-.807-2.758-1.22-4.014-.729zm-42.01-.029a.788.788 0 00-.544.385 23.6 23.6 0 01-.46.825c-.16.272-.342.69-.407.927a3.392 3.392 0 01-.42.864c-.166.237-.302.545-.302.684 0 .14-.145.472-.323.739-.39.585-.404.753-.068.852.495.145.668.07.95-.409.328-.556.554-.624 2.057-.627l1.08-.002.455.514c.487.55.936.828 1.116.691.224-.171.101-1.078-.208-1.536a5.14 5.14 0 01-.513-1.07c-.107-.33-.293-.72-.413-.866-.12-.147-.303-.55-.408-.898-.162-.537-.888-1.246-1.173-1.144a5.62 5.62 0 01-.42.071zm9.16.12c-.381.34-.426 4.636-.053 5.071.243.284.278.29.644.107.48-.24 1.045-.253 1.045-.023 0 .72 2.344.054 2.78-.79.89-1.717-.484-3.326-2.55-2.989-.985.161-1.2.045-1.2-.648 0-.704-.311-1.044-.667-.728zm84.075.068c-.223.273-.239 4.527-.018 4.97.23.463 2.914.477 4.259.022 1.37-.463 1.678-1.69.636-2.526-.289-.232-.254-.43.119-.673.634-.416.313-1.435-.548-1.742-.813-.29-4.22-.33-4.448-.05zm-20.055.157c0 .255.062.317.256.26.14-.041.359-.075.485-.075s.229-.083.229-.185-.103-.186-.23-.186c-.125 0-.343-.033-.484-.075-.194-.056-.256.006-.256.26zm43.577-.12c-.056.11-.102.417-.102.68 0 .597-.29.743-1.131.572-2.643-.54-3.824 2.447-1.52 3.843.645.391 1.681.355 1.681-.058 0-.172.337-.184 1.051-.038.089.018.361.026.606.018l.444-.015v-2.534c0-2.105-.038-2.534-.229-2.534a1.98 1.98 0 01-.464-.068c-.132-.039-.279.02-.336.133zm-92.272.136c-.062.048-.113.213-.113.367 0 .153-.09.353-.202.443-.596.483-.613.543-.24.85.317.259.372.467.442 1.685.095 1.628.282 1.867 1.403 1.783.25-.019.003-.703-.365-1.014-.488-.413-.268-2.12.319-2.473l.466-.28-.443-.27c-.247-.152-.491-.455-.554-.688-.105-.394-.461-.595-.713-.403zm51.874.005c-.06.045-.108.237-.108.427 0 .21-.16.459-.408.635l-.409.29.409.292c.387.28.408.361.408 1.627 0 1.213.032 1.356.353 1.585.466.332 1.5.361 1.282.036-.687-1.025-.711-1.104-.63-2.078.073-.856.132-1.004.483-1.204l.4-.23-.459-.35c-.252-.194-.46-.466-.46-.604 0-.314-.613-.617-.861-.426zm20.705.48c1.365.732-1.151 1.806-2.722 1.163-.478-.195-.441-1.076.05-1.228.614-.189 2.273-.148 2.672.066zm-96.203.97c.65 1.19.442 1.68-.711 1.68-1.038 0-1.16-.996-.217-1.76.54-.438.65-.429.928.08zm4.305-.267c-.424.324-.208 3.925.235 3.925.277 0 .233.16.37-1.345.125-1.392.062-1.298 1.404-2.08.449-.263.457-.283.17-.456-.317-.193-1.074-.043-1.074.212 0 .068-.127.04-.283-.062-.467-.307-.626-.345-.822-.194zm11.045.074c-.267.125-.585.389-.706.587-.121.198-.285.457-.364.575-.41.617.126 2.035.886 2.34.19.077.388.19.44.251.292.34 1.838.25 2.55-.148 1.085-.606.602-.96-.643-.473l-.824.323-.585-.303c-1.36-.706-1.03-1.154.85-1.154 2.278 0 2.727-.35 1.807-1.41-.432-.498-.697-.678-1.082-.737-.918-.14-1.835-.082-2.33.149zm5.182-.117c-.14.172-.164 3.378-.029 3.69.54 1.247 1.195-1.278.802-3.094-.098-.454-.584-.83-.773-.596zm6.939.118c-1.009.473-1.657 2.302-.97 2.738.133.085.242.23.242.322s.2.264.445.383c.244.12.488.263.54.319.31.33 1.846.235 2.55-.158 1.084-.605.601-.96-.643-.473l-.824.323-.71-.367c-1.238-.638-.833-1.09.973-1.09 2.278 0 2.737-.357 1.819-1.414-.43-.496-.691-.672-1.085-.732-.927-.142-1.842-.083-2.337.149zm7.625-.148c-.063.048-.64.092-1.284.098l-1.17.01-.04 1.79c-.045 2.007.062 2.323.635 1.885.316-.24.367-.416.388-1.35l.025-1.072.605-.411c.333-.227.702-.412.82-.412s.26-.056.314-.123c.126-.156-.14-.532-.293-.415zm12.648.102c-.421.175-.855.722-.68.856.196.15.598.067.971-.201.85-.61 2.366-.246 1.891.454-.221.326-.217.418.041.968l.286.608-.428.282-.428.282.623.311c.947.475 1.128.248 1.128-1.42 0-1.679-.22-2.133-1.084-2.242-.977-.124-1.873-.084-2.32.102zm7.383-.095c-.063.048-.587.09-1.164.093l-1.049.005-.023 1.772c-.023 1.856.026 1.992.721 1.996.316.002.327-.046.36-1.605.029-1.38.286-1.806 1.061-1.757.926.06 1.035.239 1.1 1.812.058 1.385.066 1.41.465 1.486.58.111.596.076.703-1.519.122-1.813.17-1.906.936-1.803.976.132 1.066.273 1.127 1.788.055 1.352.057 1.359.518 1.54.597.237.694-.075.614-1.98-.078-1.858-.964-2.357-2.882-1.626-.495.19-.547.187-.931-.044-.397-.24-1.327-.333-1.556-.158zm7.882.09c-.545.18-.806.636-.516.903.145.134.267.101.646-.177.544-.398 1.57-.473 1.999-.145.513.392-.473 1.414-1.169 1.212-1.36-.396-2.52.83-1.645 1.737.398.412.971.544 1.672.387l.485-.11-.588-.196c-1.092-.363-1.172-1.325-.125-1.485 1.502-.23 2.124.156 1.314.816-.229.187-.385.357-.347.38.385.227 1.344.573 1.423.513.145-.11.23-2.723.106-3.231-.173-.707-1.955-1.037-3.255-.605zm7.29-.031c-.267.059-.848.092-1.293.073l-.808-.034-.045 1.68c-.024.923.015 1.803.088 1.953l.132.274.438-.263c.414-.249.438-.318.438-1.319v-1.056l.597-.418c.328-.23.688-.418.798-.418.284 0 .424-.215.27-.413-.095-.122-.26-.138-.615-.06zm9.374-.035c-1.66.567-1.878 2.872-.348 3.673.867.453 2.296.5 2.886.092.204-.14.51-.293.68-.34.423-.114.14-.307-.504-.344-.305-.018-.637.056-.818.181-.31.214-1.33.297-1.33.108 0-.056-.178-.175-.396-.264-1.226-.502-.434-.992 1.6-.992 1.443 0 1.497-.01 1.68-.317.658-1.105-1.772-2.371-3.45-1.797zm6.787.06c-.226.126-.423.138-.76.048-1.123-.299-1.216-.167-1.233 1.732l-.016 1.708.461.208c.584.264.654.117.658-1.377.002-1.055.483-1.749 1.211-1.749.38 0 .634-.347.407-.556-.248-.229-.342-.23-.728-.015zm13.192-.013c-.115.088-.181.714-.181 1.714v1.576l.54.315c.627.366 1.722.446 1.722.126 0-.284.4-.345.918-.14.254.1.661.154.903.118l.442-.064V35.47l-.525.04-.525.038-.041 1.174c-.054 1.579-.1 1.687-.828 1.956l-.621.23-.548-.342-.548-.342-.055-1.36c-.054-1.364-.209-1.683-.653-1.343zm6.466-.001c-.406.31-.201 3.922.221 3.922.293 0 .4-.414.402-1.56.002-.814.064-1.062.326-1.317.178-.173.323-.37.323-.436 0-.33 1.278-.275 1.653.07.127.117.236.722.286 1.582.09 1.546.108 1.583.709 1.468l.423-.082v-1.474c0-2.1-.481-2.528-2.476-2.211-.573.09-1.004.097-1.275.018-.282-.082-.467-.076-.592.02zm-33.897.142c-.119.236-.01 3.49.12 3.59.184.14.916-.074.973-.285.03-.113.034-.942.006-1.843l-.049-1.638h-.481c-.267 0-.52.078-.57.176zm-54.867.333c.492.131.514.164.468.71l-.048.573-1 .037c-.879.032-1.023.005-1.183-.224-.549-.783.497-1.434 1.763-1.096zm12.511.107c.072.051.109.336.08.634l-.05.542-1 .037c-1.137.042-1.455-.17-1.263-.84.152-.527 1.652-.778 2.233-.373zm51.556-.13c.295.086.413.227.463.555.103.676-.08.813-1.076.813-1.102 0-1.418-.203-1.205-.772.083-.22.15-.416.15-.436 0-.206 1.136-.315 1.668-.16zm-70.048.361c.774.832.515 2-.537 2.421l-.634.255-.618-.435c-.573-.404-.618-.486-.618-1.117 0-1.291 1.57-2.023 2.407-1.123zm104.084.064c.672.83.328 2.303-.539 2.303-.125 0-.253.057-.284.127-.076.175-1.361-.313-1.487-.566-.75-1.494 1.283-3.135 2.31-1.864zm-19.221.68c1.432.83-.63 2.044-2.472 1.455-.856-.273-.896-1.174-.071-1.572.641-.308 1.91-.25 2.543.117zm-59.801.086c-.274.391-.046.544.814.544 1.247.001 1.648-.286.933-.669-.589-.315-1.484-.252-1.747.125zm51.874.013c-.213.428-.002.53 1.091.533.93.002 1.079-.086.927-.549-.16-.488-1.773-.476-2.018.016zm-40.68.126c-.378.058-.845.71-.845 1.178 0 .686 1.043 1.192 2.02.98l.485-.104-.64-.236c-1.306-.478-1.146-1.316.282-1.49.341-.042.562-.119.49-.17-.177-.127-1.335-.228-1.791-.158z" fill="#E2322B"/><path fill-rule="evenodd" clip-rule="evenodd" d="M77.041.308c-.045.035-.843.175-1.773.31-4.208.616-7.128 1.902-9.99 4.4-1.865 1.627-2.802 5.976-1.69 7.85.18.305.375.705.432.887.257.829 2.33 2.657 3.622 3.192.33.137.71.3.843.36.608.28 2.088.755 2.748.882.4.078.805.19.9.25.096.06.71.194 1.365.3.654.105 1.521.271 1.927.37.405.097 1.174.256 1.707.352 3.633.652 4.835 1.985 3.237 3.588-1.251 1.254-4.95 1.655-6.77.733a14.925 14.925 0 00-.9-.433c-.514-.16-1.26-1.377-1.541-2.517-.418-1.688-.191-1.588-3.769-1.661l-3.025-.062-.14-.494a21.346 21.346 0 00-.442-1.298 9 9 0 01-.409-1.545c-.06-.408-.209-.963-.332-1.233-.122-.27-.334-1.016-.469-1.658-.135-.642-.313-1.264-.396-1.383-.083-.118-.262-.781-.398-1.474-.136-.692-.32-1.363-.41-1.491-.089-.128-.264-.748-.388-1.38-.125-.63-.306-1.305-.403-1.499-.098-.194-.285-.861-.416-1.483-.237-1.124-.733-2.36-1.043-2.597-.175-.133-9.166-.147-9.711-.015-.303.074-1.042.826-1.549 1.575-.145.214-.344.457-.444.54-.1.082-.4.436-.666.786-.443.582-.775.999-1.774 2.227a66.724 66.724 0 01-1.565 1.88c-.163.184-.297.385-.297.446 0 .062-.219.322-.485.579-.267.256-.485.535-.485.62 0 .084-.113.225-.252.313-.138.088-.354.346-.479.575-.125.229-.32.493-.435.587-.114.094-.426.457-.693.807-.443.582-.775 1-1.774 2.227a159.797 159.797 0 01-2.428 2.943c-.222.258-.404.53-.404.602 0 .073-.113.205-.251.293-.139.088-.357.331-.486.54a9.34 9.34 0 01-.712.937c-.264.306-.637.779-.83 1.05-.192.273-.403.523-.468.557-.065.034-.276.284-.469.556-.193.272-.563.745-.824 1.05-.26.307-.624.752-.808.99-.184.238-.55.683-.813.989a9.334 9.334 0 00-.72.95c-.132.215-.31.425-.395.465-.085.04-.45.483-.811.983-.361.5-.765.979-.898 1.063-.29.184-.319.757-.048.964.143.109 1.58.148 5.462.148h5.268l.59-.463c.323-.256.667-.603.762-.773.096-.17.39-.56.65-.865.263-.306.63-.77.815-1.029.186-.26.529-.636.761-.836l.424-.363 6.152.032 6.153.033.112.494c.54 2.388.775 3.182 1.033 3.488l.23.274 6.182.035c5.985.034 6.203.043 6.849.303a6.744 6.744 0 001.454.358 22.6 22.6 0 011.838.32c2.69.586 9.007.206 11.819-.711l.909-.297 11.616-.002c6.95-.002 12.038-.053 12.666-.127 3.065-.362 5.053-.765 6.142-1.245.133-.059.517-.22.853-.36 4.38-1.813 6.584-7.03 4.384-10.379-.214-.326-.389-.64-.389-.698 0-.058-.291-.35-.646-.647-.811-.678-.847-1.058-.121-1.298 4.569-1.512 5.891-8.35 2.168-11.22-2.83-2.183-3.259-2.243-16.512-2.326-12.371-.078-11.333-.203-11.707 1.407-.094.402-.195.75-.225.772-.066.051-1.605-.71-1.745-.863-.227-.248-3.461-1.567-3.843-1.567-.106 0-.426-.093-.71-.207-1.26-.507-9.011-1.104-9.497-.733zm7.525.613c2.6.488 5.132 1.4 6.711 2.42 1.496.964 1.951.874 2.156-.424.178-1.133-.59-1.059 10.858-1.053 10.348.006 12.599.096 13.527.542.201.096.628.238.951.316.322.078.716.252.874.385.157.133.353.243.435.243.128 0 .786.504 1.624 1.244.121.107.349.44.506.742.157.3.348.605.424.675.583.54.579 4.65-.006 5.188-.086.08-.263.374-.392.655-.232.504-1.224 1.615-1.81 2.03-.794.56-1.502.963-1.893 1.077a.62.62 0 00-.109 1.153c.438.235 1.128 1.035 1.399 1.622.123.268.301.557.394.643.529.488.548 4.648.022 5.155-.085.082-.245.371-.357.643-.366.89-2.51 3.028-3.036 3.028-.081 0-.273.107-.426.236-.154.13-.51.306-.793.391-.282.086-.622.222-.756.304-1.643 1.006-4.385 1.198-17.858 1.252-12.553.05-12.205.034-14.384.658-3.262.935-10.897.904-13.32-.054-1.223-.484-2.262-.56-8.002-.593-6.252-.034-5.83.033-5.993-.958-.05-.306-.194-.89-.318-1.297-.125-.408-.27-.95-.324-1.202-.179-.849-.089-.838-6.843-.838h-6.04l-.481.394a5.35 5.35 0 00-.798.834c-.174.242-.53.691-.79.997-.26.306-.62.75-.799.989a5.788 5.788 0 01-.731.778l-.407.345-4.728-.015c-6.2-.02-6.053.018-4.939-1.264 1.249-1.438 1.422-1.65 1.422-1.744 0-.052.173-.271.385-.488.212-.216.435-.518.496-.671.06-.154.177-.279.26-.279.08 0 .247-.18.368-.401.204-.371.87-1.205 1.221-1.528.082-.075.304-.354.493-.618.189-.265.559-.731.822-1.037.264-.306.587-.733.72-.95.132-.216.315-.428.407-.472.09-.043.328-.302.527-.575.735-1.01.854-1.163 1.189-1.526.188-.204.391-.49.45-.637.06-.147.215-.298.345-.336.13-.039.236-.147.236-.24 0-.094.218-.401.485-.683.267-.282.485-.564.485-.628 0-.063.1-.193.224-.287.122-.094.38-.39.57-.657.192-.268.561-.737.822-1.043.26-.306.624-.751.808-.99.184-.237.548-.682.808-.988a32.522 32.522 0 001.48-1.873c.148-.203.384-.467.525-.587.142-.12.258-.275.258-.345 0-.07.137-.262.306-.426.316-.308.684-.76 1.392-1.713.227-.306.627-.807.887-1.113.261-.306.625-.75.809-.989.184-.238.548-.683.81-.988.262-.306.6-.737.751-.957.366-.534.466-.543 5.708-.5l4.44.035.11.31c.365 1.015.523 1.556.795 2.718.168.714.373 1.415.456 1.557.084.143.235.699.335 1.236.1.538.283 1.2.406 1.472.123.272.342 1.045.486 1.719.145.673.325 1.313.399 1.421.074.108.253.772.397 1.474.144.701.326 1.369.405 1.483.079.114.224.624.322 1.134.593 3.071.663 3.12 4.45 3.077 3.083-.034 2.968-.071 2.991.956.06 2.71 3.806 4.72 7.478 4.01 1.273-.247 2.307-.726 2.485-1.152.05-.12.15-.217.221-.217.368 0 .707-1.35.505-2.014-.14-.464-1.124-1.322-1.517-1.324-.105 0-.41-.092-.676-.203-.266-.112-1.03-.303-1.697-.426-2.697-.496-3.366-.631-4.561-.921-.686-.167-1.333-.303-1.437-.303-.104 0-.487-.11-.853-.243a51.547 51.547 0 00-1.23-.43c-1.723-.572-3.67-1.802-4.312-2.726-.142-.204-.312-.399-.377-.433-.18-.092-.805-1.803-.995-2.72-.343-1.657.202-4.118 1.148-5.176.396-.444.868-.995 1.062-1.24C67.129 3.307 72.2 1.234 76 .804 77.886.59 83.192.663 84.567.92zM1.04 1.626l-.353.218v13.719c0 13.316.01 13.725.308 13.978.308.26.322.26 11.798.26 12.928-.002 11.995.067 12.795-.946l.713-.908c.185-.238.552-.683.816-.989a9.58 9.58 0 00.72-.95c.131-.216.314-.428.406-.471.092-.044.27-.269.397-.5.126-.232.308-.493.403-.58.284-.256.954-1.06 1.24-1.489.147-.219.32-.426.385-.46.065-.034.275-.284.468-.556.193-.272.564-.745.824-1.05.26-.306.624-.752.808-.99.184-.237.55-.682.813-.988.264-.306.587-.733.72-.95.132-.216.315-.428.407-.472.091-.043.272-.271.4-.507.129-.236.328-.505.442-.6.114-.093.426-.457.693-.808.267-.351.667-.843.889-1.092l.404-.454V7.958c0-5.675-.02-6.098-.289-6.304-.446-.34-35.657-.368-36.207-.028zm36.007.381c.292.224.09 11.978-.212 12.317-.822.924-1.158 1.35-1.158 1.47 0 .073-.114.206-.254.294-.14.089-.412.379-.606.644-.742 1.017-.848 1.152-1.2 1.531-.2.215-.364.442-.364.506s-.145.217-.323.34c-.178.123-.323.29-.323.372 0 .08-.219.377-.485.66-.267.28-.485.563-.485.627 0 .064-.1.193-.224.287-.123.094-.38.39-.57.658a18.78 18.78 0 01-.827 1.043c-.263.305-.57.696-.681.867-.112.171-.333.45-.492.618-.656.696-1.24 1.428-1.244 1.555-.001.074-.145.234-.32.354-.174.121-.398.408-.497.638-.1.23-.247.417-.329.417-.081 0-.3.248-.486.55-.186.303-.44.615-.566.695-.126.08-.229.223-.229.317 0 .095-.234.281-.52.414-.798.371-23.138.376-23.397.004-.21-.299-.227-26.873-.018-27.172.149-.213 35.532-.219 35.81-.006zM77.293 6.92c-1.418.288-2.605 1.052-2.834 1.824-.48 1.626 1.166 2.673 5.097 3.242.8.116 1.531.247 1.624.291.093.044.856.171 1.694.283.839.111 1.6.248 1.69.304.09.057.53.185.977.286.447.1 1.101.301 1.452.445.352.144.708.262.793.262.084 0 .31.113.501.25.963.691 1.728.495 1.937-.497.064-.306.185-.656.269-.778.084-.122.267-.706.408-1.298.476-2.01.453-2.026-3.092-1.996-3.194.026-3.313-.007-3.322-.941-.01-1.134-4.6-2.205-7.194-1.677zm4.888.566c1.331.427 1.859.838 2.065 1.61.234.877.424.925 3.663.927 3.353.002 3.11-.312 2.147 2.783-.127.408-.232.864-.234 1.013-.007.528-.261.496-2.038-.255-.54-.229-1.257-.485-1.59-.57-.335-.084-.802-.23-1.038-.324-.235-.094-.544-.171-.685-.172-.142 0-.833-.115-1.535-.255a47.714 47.714 0 00-2.707-.435c-.785-.099-1.621-.255-1.858-.347a5.684 5.684 0 00-1.04-.251c-2.205-.305-3.297-1.99-1.996-3.077.302-.25.593-.456.649-.456.055 0 .41-.108.786-.239 1.426-.497 3.778-.476 5.41.048zm20.376.327c-.577.167-1.204 1.638-1.693 3.97-.147.7.122.736 4.95.687 4.125-.042 4.126-.042 4.974-.379 2.275-.901 2.416-3.258.246-4.111-.704-.277-7.627-.413-8.477-.167zm8.562.552c.924.495 1.301 1.515.85 2.297-.744 1.286-1.539 1.46-6.679 1.463l-3.68.002-.169-.284c-.125-.21-.101-.49.096-1.082a71.92 71.92 0 00.483-1.517c.12-.396.257-.8.306-.896.138-.276 8.277-.26 8.793.017zm-60.19 4.966a6.825 6.825 0 00-.747.896c-.156.238-.501.684-.767.99a9.067 9.067 0 00-.725.95c-.132.215-.315.428-.407.471-.091.043-.277.282-.412.53-.136.247-.356.543-.49.656-.134.113-.388.421-.565.684l-.32.479.346.216c.299.187.715.216 3.058.216 2.345 0 2.757-.03 3.05-.216l.34-.216-.311-1.858c-.172-1.021-.38-1.995-.46-2.163-.082-.168-.2-.607-.262-.976-.208-1.23-.575-1.411-1.328-.66zm1.066 1.231c.093.625.235 1.27.317 1.435.316.635.56 2.783.34 2.985-.23.211-4.893.284-5.307.084-.267-.13-.102-.699.326-1.13.508-.512 1.097-1.24 1.097-1.356 0-.06.169-.265.375-.458.206-.192.47-.53.585-.75.116-.222.261-.403.323-.403.061 0 .238-.201.391-.447.947-1.519 1.324-1.509 1.553.04zm47.573 3.336c-.519.078-.671.278-.93 1.224a21.44 21.44 0 01-.488 1.533c-.908 2.421-1.059 2.349 4.886 2.349h4.751l1.011-.358c3.202-1.134 3.274-4.263.11-4.71-.827-.117-8.596-.148-9.34-.038zm9.402.345c1.665.245 2.428 1.937 1.376 3.048-1.152 1.215-1.821 1.336-7.637 1.375l-4.321.029-.152-.332c-.142-.312.086-1.33.38-1.693.077-.096.574-1.998.576-2.205.003-.31 7.952-.492 9.778-.223zM46.078 33.514c-3.435.358-2.842 3.393.735 3.764 1.288.134 2.02.753 1.22 1.032-.798.278-1.801.182-2.361-.227-.898-.657-2.063-.432-1.837.355.454 1.583 5.472 1.84 5.975.306.132-.402.384-.325.978.3.624.658 1.38.866 2.374.654.794-.169.858-.172 1.462-.062.243.045.625.046.848.003l.407-.078v-1.66c0-2.34-.409-2.784-2.582-2.807-2.252-.024-3.448 1.707-1.22 1.765l.49.013-.5.091c-.704.129-.856.22-1.092.664l-.208.39-.575-.686c-.66-.79-1.66-1.237-3.273-1.464-1.006-.14-1.215-.263-1.22-.714-.003-.497 1.91-.54 2.252-.05.254.363 1.237.525 1.648.271.408-.253.193-1.026-.346-1.247a3.04 3.04 0 01-.576-.335c-.318-.243-1.608-.38-2.6-.278zm-42.905.077c-.332.068-1.16 1.275-1.415 2.062-.107.33-.291.718-.41.865-.119.147-.302.54-.407.873-.105.334-.296.722-.424.862-.3.329-.302 1.116 0 1.307.465.295 1.11.103 1.509-.451.638-.887 2.603-.95 3.177-.102.389.575 1 .8 1.604.589l.396-.138-.292-1c-.16-.55-.366-1.068-.458-1.153-.091-.084-.253-.43-.36-.77-.106-.338-.283-.727-.393-.863-.11-.136-.319-.563-.466-.95-.374-.985-1.025-1.342-2.061-1.13zm9.006.203c-.206.157-.427.505-.492.773-.162.66-.345.81-.824.67a1.683 1.683 0 00-.85.012 1.657 1.657 0 01-.926-.01c-1.135-.33-1.646 1.431-1.103 3.797.309 1.349 1.664.677 1.673-.83.007-1.129.104-1.313.93-1.739.993-.512 1.078-.41 1.148 1.37.073 1.882.11 1.9 3.643 1.879 1.831-.011 2.846-2.47 1.6-3.882-.346-.392-1.627-.935-1.853-.785-.03.02-.39.072-.8.118l-.748.083-.076-.703c-.108-.992-.625-1.286-1.322-.753zm12.38-.136c-.327.25-.243 1.059.125 1.21.4.163 1.097.038 1.285-.231.459-.655-.744-1.49-1.41-.98zm51.87.014c-.483.446-.159 1.32.49 1.32.835 0 1.331-.887.746-1.334-.258-.198-1.015-.19-1.236.014zm20.032.072c-.186.143-.342.357-.345.476-.085 2.948.038 5.174.292 5.322.589.342 4.377.147 5.075-.262.958-.56 1.171-1.347.652-2.401-.245-.497-.258-.637-.084-.898.502-.748.181-1.584-.792-2.062-.977-.48-4.242-.6-4.797-.175zm23.489.025c-.061.075-.156.422-.213.772l-.103.637-.842-.042c-1.998-.1-2.953.636-2.953 2.273 0 1.658 1.358 2.687 3.037 2.303.337-.078.976-.108 1.419-.068.595.054.858.027.999-.104.272-.25.3-5.481.031-5.73-.226-.209-1.216-.238-1.375-.041zm-94.458.64c.006.161-.492.254-.663.123-.088-.067-.109-.277-.047-.466l.113-.343.297.294c.163.163.298.34.3.392zm22.96-.317c.858.37 1.252.82.955 1.093-.232.214-.779.06-1.36-.384-.836-.64-2.673-.296-2.673.5 0 .498.201.63 1.219.803 1.12.19 2.622.62 2.827.81.478.44.264 1.97-.297 2.12-.15.042-.408.164-.573.272-1.016.669-4.782-.307-4.423-1.146.14-.327.967-.23 1.366.16.214.209.515.38.669.38.153 0 .363.065.465.143.188.144 1.457-.133 1.94-.422.668-.402-.006-1.142-1.214-1.334-2.32-.366-3.103-.802-3.103-1.724 0-1.379 2.319-2.08 4.202-1.27zm-44.132.053c.335.19.52.442.657.896.106.347.29.751.41.898.12.146.305.536.412.865.107.33.338.811.513 1.07.31.459.432 1.365.208 1.537-.18.137-.629-.141-1.116-.691l-.455-.514-1.08.002c-1.503.002-1.73.071-2.057.627-.282.48-.456.554-.95.408-.336-.098-.322-.266.068-.852.178-.266.323-.599.323-.738 0-.14.136-.448.302-.685.166-.237.355-.625.42-.863s.248-.655.407-.927c.159-.272.366-.643.46-.825a.788.788 0 01.543-.385c.205-.03.394-.062.42-.071.026-.01.257.102.515.248zm8.893.67c0 .694.214.81 1.198.649 2.067-.337 3.44 1.272 2.551 2.99-.436.843-2.78 1.508-2.78.789 0-.23-.566-.218-1.045.022-.366.184-.401.178-.644-.106-.373-.435-.328-4.732.052-5.071.356-.316.668.023.668.727zm87.856-.608c.861.307 1.182 1.326.548 1.741-.373.244-.408.442-.12.673 1.043.836.735 2.063-.635 2.526-1.345.456-4.03.441-4.26-.022-.22-.443-.204-4.697.019-4.97.227-.278 3.635-.239 4.448.052zm-73.521.017c-.151.127-.275.284-.275.347 0 .064-.152.333-.338.599l-.338.482.338.518c.267.41.338.75.338 1.62 0 1.038.063 1.226.58 1.756.16.164 1.224.212 1.652.074.561-.18.478-.645-.22-1.223-.516-.428-.303-1.968.33-2.385l.445-.292-.347-.283c-.191-.155-.51-.527-.707-.827-.412-.625-.994-.779-1.458-.386zm49.759-.097c.126 0 .229.084.229.186 0 .101-.103.185-.23.185-.125 0-.343.034-.484.075-.194.057-.256-.005-.256-.26 0-.256.062-.318.256-.26.14.04.359.074.485.074zm2.2.025a.596.596 0 00-.193.423c0 .151-.182.44-.404.642-.497.452-.502.562-.04.89.324.231.372.41.444 1.66.097 1.698.267 1.922 1.447 1.922 1.188 0 1.471-.42.735-1.09-.35-.316-.405-.488-.405-1.25 0-.779.049-.922.405-1.193.222-.17.404-.38.404-.468 0-.087-.182-.289-.404-.448-.223-.16-.405-.417-.405-.571 0-.506-1.12-.872-1.583-.517zm41.436-.025c.19 0 .229.43.229 2.534v2.534l-.444.014a3.86 3.86 0 01-.606-.018c-.714-.146-1.051-.134-1.051.039 0 .413-1.036.449-1.681.058-2.304-1.397-1.123-4.383 1.52-3.844.84.172 1.131.025 1.131-.571 0-.627.147-.9.438-.815.129.038.338.07.464.07zm-92.36.605c.064.233.308.536.555.687l.443.27-.466.28c-.588.354-.807 2.06-.319 2.474.368.31.614.995.365 1.013-1.12.084-1.308-.154-1.403-1.782-.07-1.218-.125-1.426-.441-1.686-.374-.306-.357-.366.24-.85a.644.644 0 00.201-.443c0-.61.661-.581.826.037zm51.71-.353c.173.07.314.241.314.38s.206.41.46.604l.459.352-.401.228c-.352.201-.41.349-.483 1.204-.081.975-.057 1.053.63 2.079.218.325-.816.296-1.282-.036-.321-.229-.353-.373-.353-1.585 0-1.266-.02-1.348-.408-1.627l-.409-.293.409-.29c.248-.176.408-.424.408-.634 0-.507.145-.592.657-.382zm17.485.37c-.491.151-.528 1.033-.05 1.228 1.57.643 4.087-.432 2.721-1.163-.398-.213-2.057-.254-2.67-.065zm2.465.614v.433h-1.131c-1.128 0-1.132-.001-1.185-.358-.071-.475.185-.578 1.346-.54l.97.033v.432zm-79.677-.288c-2.97.474-3.642 2.958-1.18 4.37 1.174.674 3.769.215 4.301-.76.186-.34-.823-.522-1.792-.324-.871.18-1.044.181-1.547.02-1.13-.36-.383-.502 2.296-.434 2.1.054 1.453-2.429-.72-2.765l-.792-.121a2.256 2.256 0 00-.566.014zm11.63.11c-1.389.27-2.003.965-2.009 2.274l-.005 1.046.795.58c1.293.943 2.914.986 4.185.11l.696-.48-.333-.254c-.394-.302-.64-.312-1.68-.071-.821.19-2.044-.01-1.812-.298.15-.186 1.435-.291 2.044-.166.64.13 1.58.008 1.78-.233.478-.576-.346-2.113-1.282-2.39a5.34 5.34 0 00-2.379-.118zm35.691-.052c-2.101.283-2.396 1.427-.452 1.754.236.04.203.058-.121.069-.69.022-1.576.835-1.576 1.447 0 1.008 2.028 1.745 3.302 1.2.203-.087.438-.086.748.003.326.094.567.091.86-.011l.408-.142-.082-1.52c-.108-2.026-.173-2.29-.608-2.509-.523-.261-1.685-.398-2.479-.29zm16.128.055c-2.182.493-2.645 2.963-.775 4.142.889.56 2.713.632 3.478.137l.676-.434c.851-.544-.216-.966-1.62-.64-.87.201-.942.201-1.345 0-.817-.41.192-.665 1.755-.444 1.076.152 1.435.016 1.615-.61.2-.698-.733-2.08-1.423-2.107-.106-.004-.53-.05-.942-.102a4.281 4.281 0 00-1.419.058zm28.223 0c-.435.085-.965.111-1.212.06-1.176-.248-1.381.127-1.304 2.378.062 1.812.195 2.105.927 2.039.602-.054.821-.502.824-1.68.003-1.381.598-2.05 1.457-1.636.185.09.261.467.323 1.61.087 1.6.157 1.725.978 1.728.729.004.8-.173.8-1.99 0-2.307-.685-2.923-2.793-2.509zm-87.725.125c-.31.286-.316 3.888-.006 4.174.27.249.822.261 1.24.027.277-.155.324-.377.395-1.885.044-.94.138-1.777.208-1.86.297-.35-1.474-.79-1.837-.456zm12.186.028c-.322.246-.337 3.898-.017 4.194.221.206.798.196 1.187-.02.264-.149.326-.374.394-1.453l.08-1.276.603-.217c.787-.283 1.196-.747.98-1.117-.193-.33-2.82-.42-3.227-.11zm21.524-.138c-1.477.064-1.417-.029-1.414 2.192.002 2.091.077 2.294.848 2.294.72 0 .863-.265.96-1.793.1-1.537.073-1.476.681-1.588.592-.108.783.355.783 1.901 0 1.327.126 1.528.916 1.458.664-.058.857-.472.86-1.848.002-1.233.063-1.356.752-1.518.5-.116.705.437.705 1.899 0 1.329.099 1.49.925 1.49.729 0 .852-.295.852-2.03 0-2.15-.478-2.69-2.198-2.486-.836.099-1.414.105-2.73.028a23.705 23.705 0 00-1.94.001zm14.05.17c-.179.15-.232.596-.232 1.939 0 2.022.115 2.378.764 2.376.845-.004.926-.13 1.014-1.57l.08-1.332.566-.204c.886-.318 1.222-.664 1.036-1.068-.191-.415-2.768-.527-3.228-.141zm4.06.018c-.326.355-.36 3.446-.044 3.928.236.357 1.08.488 1.379.212.314-.29.372-3.932.066-4.199-.353-.307-1.094-.276-1.401.059zm14.557-.188c-.062.048-.573.074-1.134.058-1.457-.04-1.474-.014-1.461 2.213.011 2.035.09 2.215.972 2.215.744 0 .875-.25.875-1.67v-1.192l.62-.187c.562-.169 1.158-.688 1.158-1.009 0-.324-.755-.638-1.03-.428zm12.645.176c-.703.538-.184 3.838.659 4.183.392.16 2.058.167 2.187.008.061-.076.243-.076.504 0 1.488.433 1.682.191 1.679-2.1-.003-2.127-.018-2.172-.766-2.254-.846-.092-.991.143-1.044 1.693l-.046 1.35-.535.117c-.882.193-1.062-.06-1.137-1.596-.077-1.607-.597-2.092-1.501-1.401zm-100.217.324c-.943.765-.82 1.761.217 1.761 1.154 0 1.362-.49.712-1.68-.278-.51-.388-.519-.929-.08zm6.056.007c.156.102.283.13.283.063 0-.256.756-.405 1.075-.212.286.172.278.193-.171.455-1.342.782-1.279.688-1.405 2.08-.136 1.505-.092 1.346-.369 1.346-.34 0-.418-.407-.42-2.17-.003-1.933.129-2.139 1.007-1.562zm12.551-.269c.386.06.65.24 1.083.738.92 1.06.471 1.41-1.808 1.41-1.88 0-2.21.447-.85 1.153l.585.304.825-.323c1.245-.488 1.728-.133.644.473-.713.397-2.26.488-2.55.148-.053-.062-.251-.174-.441-.251-.76-.306-1.297-1.724-.886-2.34.079-.119.242-.377.364-.576.424-.69 1.548-.963 3.034-.736zm3.627.628c.393 1.817-.261 4.342-.802 3.095-.135-.313-.11-3.518.03-3.69.187-.234.674.141.772.595zm8.503-.626c.394.06.654.235 1.085.732.918 1.057.46 1.413-1.819 1.413-1.806 0-2.21.453-.974 1.09l.71.367.825-.323c1.244-.487 1.727-.132.643.474-.704.393-2.24.488-2.55.157-.053-.056-.296-.2-.54-.318-.245-.12-.445-.292-.445-.384 0-.092-.109-.237-.242-.321-.383-.243-.315-1.356.121-1.986.601-.868 1.584-1.146 3.186-.901zm5.581.416c-.055.067-.196.122-.314.122s-.488.186-.82.412l-.605.412-.025 1.072c-.021.933-.072 1.109-.388 1.35-.574.438-.68.122-.635-1.885l.04-1.79 1.17-.01c.643-.006 1.221-.05 1.284-.098.153-.117.42.259.293.414zm14.675-.416c.864.11 1.084.564 1.084 2.243 0 1.668-.18 1.894-1.128 1.42l-.623-.312.428-.281.428-.282-.286-.608c-.258-.55-.262-.642-.041-.969.475-.7-1.042-1.064-1.89-.454-.638.458-1.198.345-.887-.178.345-.579 1.344-.777 2.915-.578zm6.619.165c.384.231.436.234.931.045 1.918-.732 2.804-.232 2.882 1.626.08 1.905-.017 2.217-.614 1.98-.461-.182-.463-.188-.518-1.54-.061-1.515-.15-1.657-1.127-1.788-.766-.103-.814-.01-.936 1.803-.107 1.595-.123 1.63-.703 1.519-.4-.077-.407-.101-.465-1.486-.065-1.574-.174-1.753-1.1-1.812-.775-.05-1.033.376-1.062 1.757-.032 1.558-.043 1.607-.359 1.605-.695-.005-.744-.14-.72-1.997l.022-1.771 1.049-.005c.577-.003 1.1-.045 1.164-.093.23-.176 1.159-.082 1.556.157zm8.925-.069c.432.139.573.268.656.605.125.509.039 3.12-.106 3.231-.08.06-1.038-.285-1.423-.513-.038-.022.118-.193.347-.379.81-.66.188-1.047-1.314-.817-1.047.16-.967 1.122.124 1.486l.589.196-.485.11c-.7.157-1.274.025-1.672-.387-.876-.907.285-2.133 1.645-1.738.696.203 1.681-.819 1.168-1.212-.428-.327-1.455-.252-1.998.146-.53.388-.907.246-.729-.275.193-.565 2.031-.826 3.198-.453zm5.337.32c-.055.067-.19.122-.3.122-.111 0-.47.188-.8.419l-.596.418v1.056c0 1-.024 1.07-.438 1.32l-.438.262-.132-.274c-.073-.15-.112-1.03-.088-1.954l.045-1.68.808.035c.445.018 1.026-.015 1.293-.074.5-.11.86.084.646.35zm11.623.016c1.347 1.048.91 1.713-1.126 1.713-2.033 0-2.825.49-1.6.992.219.09.396.209.396.265 0 .189 1.021.105 1.33-.108.181-.126.514-.2.819-.182.644.038.927.23.505.345-.17.047-.477.2-.681.34-.59.407-2.02.36-2.886-.093-1.53-.8-1.312-3.105.348-3.673.758-.26 2.325-.042 2.895.4zm4.62-.326c.227.209-.027.556-.407.556-.729 0-1.21.694-1.211 1.749-.004 1.493-.074 1.641-.658 1.377l-.46-.208.015-1.708c.017-1.9.11-2.031 1.232-1.732.338.09.535.077.76-.05.387-.215.48-.213.729.016zm13.117 1.316l.055 1.36.548.341.548.342.621-.23c.728-.268.774-.377.828-1.955l.04-1.174.526-.039.525-.039v3.695l-.442.065a2.092 2.092 0 01-.903-.119c-.518-.204-.918-.144-.918.14 0 .32-1.095.24-1.722-.125l-.54-.316v-1.575c0-1.57.114-1.927.571-1.792.148.043.225.455.263 1.42zm7.68-1.383c1.995-.317 2.476.112 2.476 2.211v1.475l-.423.081c-.601.116-.619.078-.709-1.468-.05-.86-.159-1.464-.286-1.581-.376-.345-1.653-.4-1.653-.07 0 .066-.146.262-.323.436-.263.255-.324.503-.326 1.317-.002 1.146-.109 1.56-.402 1.56-.319 0-.399-.432-.402-2.17-.002-1.765.088-1.972.772-1.773.272.08.703.073 1.276-.018zm-34.665 1.643c.06 1.97.047 2.028-.47 2.127-.593.114-.607.079-.665-1.745-.061-1.936-.036-2.02.605-2.02h.481l.05 1.638zm-73.353-.568c.117.475-.126.663-.739.573-.558-.082-.561-.306-.012-.857.466-.467.576-.425.75.284zm16.08-.559c-1.236.347-.672 1.369.726 1.318l1-.037.05-.573c.062-.743-.644-1.025-1.776-.708zm12.121 0c-1.236.346-.672 1.369.727 1.318l1-.037.05-.542c.029-.298-.008-.583-.08-.634-.237-.165-1.254-.228-1.697-.104zm51.95-.013c-.2.061-.364.128-.364.148 0 .02-.068.216-.15.436-.214.57.102.772 1.204.772.997 0 1.179-.138 1.076-.814-.092-.597-.84-.827-1.767-.542zm-70.708.395c-.726.647-.65 1.614.174 2.194l.618.436.634-.255c.745-.299 1.079-.856.95-1.587-.207-1.182-1.466-1.6-2.376-.788zm104.109-.038c-.476.365-.665 1.337-.372 1.92.126.252 1.411.74 1.487.565.031-.07.159-.127.284-.127.867 0 1.211-1.472.539-2.303-.453-.561-1.247-.584-1.938-.054zm-96.186-.06c.109.084-.175.43-.41.498-.389.114-1.013-.393-.685-.557.202-.1.938-.06 1.095.06zm12.121 0c.125.096-.185.424-.45.477-.427.086-.97-.374-.638-.54.197-.097.933-.055 1.088.063zm19.99-.065c.297.089.29.11-.13.319-.49.246-.875.114-.698-.237.105-.21.329-.231.828-.082zm15.198.123c0 .333-.56.47-.821.2-.213-.219-.208-.254.05-.333.412-.126.771-.065.771.133zm16.501-.162c.256.052.32.142.264.369-.106.423-.882.422-1.134-.002-.231-.387.097-.526.87-.367zm-70.15.354c.443.339.575 1.489.203 1.773-.357.273-1.208.177-1.572-.177-.951-.925.316-2.402 1.37-1.596zm103.999-.033c.703.397.727 1.641.036 1.842-.556.162-1.434.043-1.562-.21-.555-1.107.486-2.22 1.526-1.632zm-78.93.256c-1.226.686.72 1.569 2.388 1.083.459-.133.594-.805.22-1.09-.259-.199-2.25-.193-2.607.007zm51.967 0c-.727.67-.183 1.204 1.225 1.204 1.346 0 2.036-.645 1.295-1.211-.263-.202-2.3-.197-2.52.006zm5.664.206c-.825.397-.785 1.298.07 1.572 1.311.418 2.824.02 2.858-.752.039-.868-1.773-1.375-2.928-.82zm-55.51.078c.714.383.313.67-.934.669-.86 0-1.088-.153-.814-.544.263-.377 1.158-.44 1.747-.125zm52.144.122c.152.463.004.551-.927.549-1.093-.003-1.304-.105-1.09-.534.243-.492 1.856-.504 2.017-.015zm-40.907.3c.072.05-.148.127-.49.169-1.427.175-1.587 1.012-.282 1.491l.64.236-.484.104c-.977.212-2.02-.295-2.02-.98 0-.47.467-1.12.846-1.179.456-.07 1.614.032 1.79.158zm46.624-.095c.349.266.238.827-.178.907-1.502.288-2.735-.241-2.044-.878.24-.221 1.942-.244 2.222-.03zm-46.192.68c.41.277-.963.581-1.448.321l-.392-.21.477-.152c.419-.134 1.135-.112 1.363.042zm14.733-.077c.423.172-.013.608-.608.608-.429 0-.863-.465-.513-.548l.451-.112a9.27 9.27 0 01.293-.072c.029-.005.198.05.377.124z" fill="#EF9F98"/><path fill-rule="evenodd" clip-rule="evenodd" d="M76 .102a1.863 1.863 0 00-.565.218c-.133.087-.73.197-1.327.243-.653.052-1.232.174-1.455.308-.203.122-.682.263-1.065.312-.382.05-.819.188-.97.308-.15.12-.531.283-.845.36-.314.077-.695.252-.847.387-.152.136-.385.247-.519.247-.133 0-.333.11-.444.247-.111.136-.292.247-.402.247-.11 0-.318.14-.464.31-.146.169-.338.308-.427.308-.227 0-1.255.88-1.255 1.075 0 .089-.109.161-.24.161-.133 0-.347.195-.477.433s-.31.432-.4.432c-.09 0-.253.237-.364.526-.11.289-.35.683-.531.876-.518.548-.511 5.925.008 6.247.186.115.392.427.457.692.195.793 2.613 2.854 3.51 2.991.254.04.46.143.46.231 0 .088.274.229.607.312.333.083.772.25.975.37.202.12.675.259 1.05.307.375.048.847.186 1.048.307.2.121.81.259 1.355.307.544.049 1.216.188 1.493.31.277.122 1.027.26 1.668.307.653.047 1.244.158 1.346.252.1.091.577.229 1.06.306 1.31.208 2.328.946 2.328 1.685 0 .296-.054.538-.121.538-.157.001-.687.713-.687.923 0 .089-.184.197-.408.24a2.19 2.19 0 00-.767.353c-.535.41-3.961.399-4.535-.014-.204-.147-.485-.267-.625-.267-.268 0-1.422-.902-1.422-1.112 0-.068-.1-.124-.221-.124-.24 0-.424-.742-.428-1.716-.006-1.426-.2-1.497-4.085-1.497h-2.972l-.182-1.129c-.1-.62-.282-1.219-.406-1.329-.128-.114-.3-.754-.401-1.495-.124-.907-.253-1.336-.428-1.435-.151-.084-.252-.331-.254-.62-.006-.805-.286-2.032-.511-2.238-.118-.107-.293-.771-.39-1.475-.113-.816-.267-1.358-.427-1.496-.16-.138-.291-.597-.362-1.267-.062-.585-.244-1.27-.41-1.545-.163-.272-.349-.94-.411-1.484-.118-1.02-.194-1.222-.693-1.854l-.294-.37-4.916-.035c-5.702-.04-5.528-.057-5.858.573-.139.264-.365.513-.503.554-.139.04-.253.155-.253.254s-.171.337-.381.529-.44.488-.509.658c-.069.17-.255.379-.413.464-.158.085-.335.321-.393.525-.059.204-.162.37-.23.37s-.262.21-.432.464c-.17.255-.43.533-.578.618-.149.086-.322.336-.386.557-.063.22-.25.474-.416.563-.166.089-.302.234-.302.322s-.18.31-.403.493c-.221.182-.449.473-.505.646-.057.173-.276.446-.487.607-.21.161-.383.405-.383.542 0 .136-.145.308-.323.38-.178.073-.323.21-.323.304 0 .095-.172.329-.382.521-.21.192-.439.489-.508.659a1.07 1.07 0 01-.414.463c-.157.085-.334.322-.393.525-.059.204-.162.371-.23.371s-.262.209-.431.464c-.17.255-.433.534-.585.621-.152.087-.324.351-.382.587-.058.236-.2.43-.317.43-.117 0-.296.194-.398.432-.103.238-.258.433-.346.433-.086 0-.302.25-.48.556-.176.306-.382.556-.457.556-.076 0-.248.212-.383.47-.135.26-.362.544-.503.634-.14.09-.256.236-.256.326 0 .09-.183.316-.408.5-.224.186-.454.481-.51.656a.976.976 0 01-.401.48c-.163.09-.297.238-.297.33 0 .094-.172.327-.382.52-.21.191-.439.488-.508.658-.07.17-.258.38-.42.467-.161.087-.34.346-.396.575-.065.266-.215.44-.41.48-.177.035-.308.17-.308.315 0 .14-.143.356-.317.48-.175.125-.43.433-.568.685-.138.252-.315.459-.393.459-.078 0-.252.211-.388.47-.135.259-.361.544-.502.633-.141.09-.256.237-.256.327 0 .09-.184.315-.409.5-.224.185-.451.471-.505.635-.054.164-.27.43-.481.591-.42.321-.523 1.013-.19 1.269.144.11 1.65.148 5.779.147l5.583-.002.526-.413c.288-.228.525-.473.525-.546 0-.072.172-.289.382-.48.21-.193.438-.49.508-.66.07-.17.255-.378.413-.463.158-.085.337-.325.396-.534.06-.208.217-.41.349-.45.131-.038.305-.201.385-.362l.145-.292h12.232l.172 1.422c.11.905.268 1.533.434 1.727.143.167.26.41.26.54 0 .476.253.497 6.63.537 6.105.038 6.226.044 6.565.303.244.187.648.29 1.374.353.565.049 1.153.174 1.307.278.731.494 9.158.54 10.496.058a7.739 7.739 0 011.545-.336c.482-.048 1.036-.198 1.289-.35l.443-.267 13.095-.062c11.921-.056 13.139-.08 13.58-.271.267-.116.899-.245 1.406-.287.506-.042 1.088-.174 1.292-.292.205-.119.686-.285 1.068-.37.383-.084.734-.23.781-.325.047-.093.307-.207.577-.253.287-.048.524-.18.571-.316.044-.13.181-.235.304-.235.271 0 2.162-1.443 2.162-1.65 0-.08.139-.21.309-.292.17-.08.36-.33.423-.555.063-.224.246-.503.406-.62.182-.132.333-.483.399-.927.058-.393.212-.894.341-1.113.318-.54.322-2.366.005-2.903-.132-.224-.287-.72-.344-1.105-.065-.444-.212-.773-.402-.905a1.21 1.21 0 01-.404-.527c-.058-.176-.319-.518-.581-.76-.625-.58-.621-.94.01-1.108.267-.071.485-.19.485-.262 0-.073.181-.196.401-.272.22-.077.442-.24.493-.362.051-.123.234-.257.407-.299.173-.042.315-.157.315-.254 0-.098.181-.298.402-.445.221-.148.446-.45.501-.67.054-.223.196-.433.315-.468.244-.071.557-.828.559-1.348 0-.19.128-.492.283-.673.381-.445.376-2.54-.007-3.074-.141-.197-.303-.627-.358-.955-.057-.333-.238-.7-.41-.83a1.374 1.374 0 01-.411-.551.815.815 0 00-.408-.44c-.167-.07-.304-.185-.304-.259 0-.174-1.138-.97-1.387-.97-.105 0-.227-.103-.27-.23-.043-.126-.277-.267-.52-.314a3.484 3.484 0 01-.87-.326c-.235-.132-.792-.276-1.236-.32-.445-.044-.943-.169-1.108-.279-.269-.179-1.466-.203-11.567-.234-12.89-.039-11.75-.147-11.924 1.134-.113.84-.536.933-1.446.322-.304-.204-.695-.371-.87-.371-.174 0-.317-.08-.317-.176 0-.097-.27-.243-.597-.326-.329-.083-.737-.25-.908-.372-.17-.122-.6-.26-.955-.305-.355-.046-.775-.182-.933-.304-.177-.135-.669-.254-1.273-.307-.54-.048-1.255-.194-1.587-.323-.586-.229-6.985-.345-8.05-.146zm8.566.49c.8.132 1.688.335 1.972.449.284.114.604.208.71.208.382 0 3.616 1.318 3.843 1.567.14.153 1.679.914 1.746.863.03-.023.13-.37.224-.773.374-1.61-.664-1.485 11.707-1.407 13.253.083 13.682.143 16.512 2.326 3.723 2.871 2.401 9.709-2.168 11.22-.726.24-.69.62.121 1.298.355.298.646.59.646.647 0 .058.175.372.389.698 1.024 1.558.981 5.015-.082 6.761-.916 1.503-2.586 2.909-4.302 3.619-.336.139-.72.3-.853.36-1.089.48-3.077.882-6.142 1.244-.628.075-5.716.125-12.666.127l-11.616.002-.91.297c-2.811.917-9.129 1.297-11.818.71a22.763 22.763 0 00-1.838-.319 6.745 6.745 0 01-1.454-.358c-.646-.26-.864-.27-6.85-.303l-6.18-.035-.231-.274c-.258-.306-.493-1.1-1.033-3.488l-.112-.494-6.153-.032-6.152-.033-.424.363c-.232.2-.575.576-.76.836-.187.26-.553.723-.815 1.029-.262.306-.554.695-.65.865-.096.17-.44.518-.764.773l-.589.463h-5.268c-3.882 0-5.319-.039-5.462-.148-.27-.207-.242-.78.048-.963.133-.085.537-.563.898-1.064.36-.5.726-.942.811-.982.085-.04.263-.25.395-.466.133-.217.457-.644.72-.95.263-.306.629-.751.813-.989.184-.238.547-.683.808-.989.26-.306.631-.779.824-1.05.193-.272.404-.523.469-.557.065-.034.276-.284.468-.556.193-.272.566-.745.83-1.05a9.31 9.31 0 00.712-.937c.129-.21.347-.453.486-.54.138-.089.251-.22.251-.293 0-.073.182-.345.404-.603.465-.541 1.183-1.412 2.428-2.943.999-1.228 1.331-1.644 1.774-2.227.267-.35.579-.713.693-.807.115-.094.31-.358.435-.586.125-.23.34-.488.48-.576.138-.088.251-.229.251-.313 0-.085.218-.363.485-.62s.485-.517.485-.578c0-.062.134-.263.297-.447.283-.318.782-.917 1.565-1.88a81.213 81.213 0 001.774-2.227c.267-.35.567-.704.666-.787.1-.082.3-.325.444-.54.507-.748 1.246-1.5 1.549-1.574.545-.132 9.536-.118 9.71.016.31.237.807 1.472 1.044 2.596.131.622.318 1.29.416 1.483.097.195.278.87.403 1.5.124.63.3 1.251.389 1.38.089.127.273.798.41 1.49.135.693.314 1.357.397 1.475.083.118.261.74.396 1.382.135.642.346 1.388.47 1.659.122.27.272.824.331 1.232.06.408.243 1.103.41 1.545.165.442.364 1.026.441 1.298l.14.495 3.025.061c3.578.073 3.35-.027 3.769 1.662.282 1.14 1.027 2.357 1.541 2.516.066.021.471.216.9.433 1.82.922 5.519.522 6.77-.733 1.598-1.603.396-2.936-3.237-3.588a35.989 35.989 0 01-1.707-.352 31.834 31.834 0 00-1.927-.37c-.655-.105-1.269-.24-1.364-.3-.096-.06-.501-.172-.901-.25-.66-.127-2.14-.602-2.748-.881a34.53 34.53 0 00-.843-.36c-1.291-.536-3.365-2.364-3.622-3.193-.057-.182-.251-.582-.433-.888-1.11-1.873-.174-6.222 1.69-7.848 2.863-2.498 5.783-3.784 9.99-4.4.93-.136 1.73-.276 1.774-.31.222-.17 6.142.052 7.525.282zM.584 1.484l-.381.236v13.851c0 13.794 0 13.853.33 14.105.328.25.455.253 12.364.254l12.033.002.364-.32c.2-.176.363-.422.363-.546 0-.124.146-.255.323-.29.192-.038.324-.17.324-.319 0-.14.142-.356.317-.48.174-.124.43-.433.568-.685.138-.252.314-.458.392-.458.078 0 .253-.212.388-.47.135-.26.362-.544.503-.634.14-.09.256-.236.256-.326 0-.09.183-.316.408-.5.224-.186.454-.481.51-.656a.976.976 0 01.401-.48c.163-.09.297-.238.297-.33 0-.094.172-.327.382-.52.21-.191.439-.488.508-.658.07-.17.258-.38.42-.466.161-.088.34-.352.399-.588.057-.236.2-.429.316-.429.117 0 .297-.194.4-.432.102-.238.257-.433.344-.433.087 0 .303-.25.48-.556.177-.306.383-.556.458-.556.075 0 .247-.212.383-.471.135-.259.361-.544.502-.633.141-.09.257-.237.257-.327 0-.09.183-.315.408-.5.224-.185.454-.48.51-.656a.975.975 0 01.4-.48c.164-.089.298-.237.298-.33 0-.093.2-.35.444-.573l.444-.404.045-6.264c.029-3.968-.015-6.383-.117-6.589l-.162-.325H19.214c-17.727 0-18.26.006-18.63.236zm36.663.17c.27.206.289.629.289 6.303v6.084l-.404.453c-.222.25-.622.741-.889 1.092-.267.351-.579.715-.693.809-.114.094-.313.364-.442.6-.128.235-.309.463-.4.507-.092.043-.275.255-.407.471a9.357 9.357 0 01-.72.95c-.263.306-.629.751-.813.989-.184.238-.547.683-.808.989a18.7 18.7 0 00-.824 1.05c-.193.272-.403.523-.468.557-.065.034-.238.24-.384.46-.287.427-.957 1.232-1.24 1.49-.096.086-.278.346-.404.578-.127.232-.305.457-.397.5-.092.043-.275.256-.407.472a9.36 9.36 0 01-.72.95c-.263.305-.63.75-.815.988-1.622 2.082.047 1.852-13.508 1.853C1.317 29.8 1.303 29.8.995 29.54c-.299-.252-.308-.662-.308-13.978V1.845l.353-.218c.55-.341 35.76-.314 36.207.028zm40.531 5.48c-.177.035-.631.171-1.008.302-.377.131-.73.239-.786.239-.056 0-.347.206-.648.457-1.302 1.086-.21 2.771 1.994 3.076.336.047.804.16 1.04.251.238.092 1.074.248 1.86.347.785.1 2.002.296 2.706.435.702.14 1.393.255 1.535.255.141 0 .45.078.685.172.236.094.703.24 1.037.325.334.084 1.05.34 1.591.569 1.777.75 2.031.783 2.038.255.002-.149.107-.604.234-1.012.963-3.096 1.206-2.781-2.147-2.783-3.239-.002-3.429-.05-3.663-.928-.369-1.38-3.932-2.46-6.468-1.96zm2.79.294c.468.136 1.06.247 1.316.247.809 0 2.013.872 2.145 1.553.181.934.125.92 3.466.92h2.97v.406c0 .223-.138.613-.306.866-.175.263-.356.883-.421 1.448-.063.543-.128.987-.144.987-.258 0-1.738-.495-1.939-.648-.149-.114-.541-.245-.872-.292-.33-.046-.766-.182-.968-.302-.201-.12-.747-.256-1.212-.302-.464-.046-1.136-.185-1.491-.31-.357-.125-1.263-.265-2.02-.312-.822-.05-1.48-.157-1.638-.263-.145-.098-.763-.237-1.374-.308-.673-.079-1.241-.222-1.444-.365-.183-.13-.457-.235-.61-.235-.151 0-.341-.131-.421-.292-.08-.16-.26-.326-.4-.367-.396-.116-.337-.976.087-1.269.188-.13.401-.355.475-.501.095-.191.329-.291.83-.355a10.22 10.22 0 001.424-.315c.95-.294 1.512-.292 2.547.009zm21.758.918c-.049.097-.186.5-.306.896a71.92 71.92 0 01-.483 1.518c-.197.59-.221.871-.096 1.081l.169.284 3.68-.002c5.14-.003 5.935-.177 6.679-1.463.451-.781.074-1.801-.85-2.296-.516-.277-8.655-.293-8.793-.018zm8.811.38c.487.38.549.566.518 1.557-.015.463-.116.647-.543.99l-.524.42-4.486.037-4.485.038v-.351c0-.194.138-.56.307-.813.169-.253.357-.846.419-1.317.138-1.05-.244-.971 4.564-.95l3.755.018.475.37zM51.143 13.65a6.01 6.01 0 00-.7.87c-.154.247-.33.449-.392.449s-.207.18-.323.401a3.406 3.406 0 01-.585.752c-.206.192-.375.398-.375.458 0 .115-.59.843-1.097 1.355-.428.432-.593 1-.326 1.13.414.2 5.078.128 5.306-.084.22-.202-.023-2.35-.339-2.984-.082-.165-.224-.811-.317-1.435-.2-1.358-.3-1.464-.852-.912zm1.08 3.351c.173.203.262.576.262 1.097v.79l-2.505-.008c-2.463-.008-2.505-.013-2.505-.278 0-.148.11-.302.244-.341.134-.04.334-.225.444-.413.111-.188.326-.439.48-.557.153-.118.326-.36.385-.537.058-.178.278-.455.489-.616.21-.161.383-.405.383-.541 0-.137.136-.305.304-.373a.805.805 0 00.405-.432c.056-.17.282-.457.504-.64.222-.182.412-.421.423-.53.01-.109.11.537.222 1.437.133 1.081.29 1.74.464 1.942zm47.365 1.278c-.218.087-.395.17-.396.186-.001.207-.5 2.108-.577 2.204-.293.363-.52 1.381-.379 1.693l.152.332 4.321-.029c5.816-.039 6.485-.16 7.637-1.374 1.053-1.112.289-2.804-1.376-3.05-1.066-.157-8.975-.125-9.382.038zm9.544.274c.161.136.372.247.469.247.802 0 1.383 1.597.743 2.04-.178.123-.323.328-.323.456 0 .127-.128.266-.283.308-.156.041-.406.192-.556.335-.267.254-.41.262-5.536.298l-5.262.037V22c0-.15.118-.374.261-.495.156-.132.337-.658.45-1.307.11-.634.323-1.255.507-1.488l.318-.401 4.46-.001c4.255-.001 4.473.01 4.752.246zM3.306 33.362c-.484.031-.656.11-.808.37a2.226 2.226 0 01-.46.535c-.146.112-.318.501-.384.864-.065.364-.218.717-.34.787-.12.069-.305.46-.408.867-.103.408-.316.837-.474.954-.364.27-.574 1.45-.322 1.81.378.54 1.665.49 1.997-.079.391-.67.605-.77 1.662-.77h.988l.192.49c.238.607.937.813 2.09.615.498-.085.886-.082 1.252.01.415.105.657.094 1.11-.051.7-.224.602-.004.721-1.611l.1-1.351.48-.098c.665-.135.728-.005.73 1.518.004 1.677-.096 1.615 2.654 1.636l2.169.017.584-.447c.41-.312.623-.608.711-.988l.127-.543.112.44c.074.286.367.628.846.988l.732.55h1.625c1.578 0 1.634-.01 1.98-.34.456-.438.734-.428 1.276.045.395.343.506.375 1.047.3.964-.135 1.04-.258 1.082-1.754.02-.738.053-1.508.074-1.712.081-.816.315.135.326 1.329.01.995.063 1.245.307 1.43.162.125.339.314.393.422.258.516 2.416.409 2.828-.14l.255-.34.444.38c.648.554 3.509.591 4.082.053.192-.18.494-.348.672-.373.238-.032.35-.174.421-.537.086-.43.102-.394.122.282.026.87.33 1.087 1.312.937.745-.114.86-.323.94-1.72.072-1.227.095-1.297.45-1.365.544-.105.728.037.685.53-.057.644.291.78 1.98.78 1.653 0 1.856-.103 1.72-.88-.127-.724-.273-.787-1.86-.796l-1.406-.01.055-.52c.09-.86-.572-1.397-1.163-.945-.308.235-1.22.233-1.63-.004-.519-.3-1.053.184-1.086.983-.019.448-.044.513-.091.226-.053-.324-.138-.402-.44-.402-.236 0-.406-.089-.458-.241-.046-.136-.284-.28-.544-.33-.254-.048-.543-.172-.644-.276-.25-.26-1.725-.256-2.114.006-.16.106-.453.232-.654.279a1.17 1.17 0 00-.593.416l-.229.332-.16-.31a1.656 1.656 0 00-.497-.523c-.186-.119-.338-.327-.338-.464 0-.434-.57-.743-1.374-.743-.821 0-1.372.31-1.376.773-.004.404-.195.566-.552.468-.215-.059-.253-.114-.122-.176.255-.12.247-1.249-.01-1.404-1.109-.67-2.625.235-1.995 1.19.237.36.172.619-.213.845-.374.22-.612.191-.706-.083-.046-.136-.284-.28-.544-.33-.254-.048-.544-.172-.644-.276-.26-.27-1.729-.255-2.127.02-.166.115-.387.21-.491.21-.33 0-1.457.929-1.585 1.306-.12.355-.125.35-.247-.177-.145-.628-.358-.856-1.024-1.095a17.644 17.644 0 01-.867-.339 1.344 1.344 0 00-.849-.063c-.485.107-.79-.103-.79-.545 0-.102-.17-.338-.378-.523-.659-.586-2.204-.325-2.21.373-.005.623-.177.815-.734.815-.295 0-.582.056-.637.124-.15.185-.822.149-1.044-.057-.17-.156-.272-.148-.775.058-.814.334-.842.396-.848 1.915-.005 1.572-.226 2.098-.4.954-.067-.446-.229-.841-.403-.984-.16-.13-.34-.521-.403-.867-.065-.359-.24-.716-.406-.831-.161-.112-.34-.443-.398-.735-.174-.892-.712-1.172-2.078-1.084zm42.074-.017c-1.654.27-2.492 2.764-1.128 3.357.26.114.474.298.475.41 0 .164.245.22 1.267.29 1.393.093 1.512.128 1.775.51.164.24.133.27-.34.326-.84.101-1.489-.024-1.659-.32-.084-.147-.335-.287-.557-.311-.223-.024-.456-.108-.52-.185-.084-.103-.24-.084-.566.068-.58.271-.659 1.369-.118 1.652.173.091.477.29.674.444.803.62 4.459.434 4.99-.255.299-.386 1.08-.23 1.285.257.128.304.727.362 2.966.285 2.504-.085 2.279.113 2.279-2.006 0-1.995-.228-2.54-1.132-2.709a2.232 2.232 0 01-.693-.268c-.36-.239-1.763-.257-2.123-.028-.142.09-.494.253-.781.363-.288.11-.55.311-.582.447a.57.57 0 01-.283.347.406.406 0 00-.225.34c0 .251-.31.32-.573.129-.085-.062-.3-.133-.477-.159-.285-.041-.243-.11.363-.588.735-.578.82-.758.46-.985a.963.963 0 01-.325-.448c-.055-.167-.175-.304-.267-.304-.09 0-.343-.146-.559-.325-.401-.33-2.471-.522-3.626-.334zm3.297.448c.153.117.412.267.576.334.54.221.754.994.346 1.247-.41.255-1.394.093-1.648-.271-.342-.49-2.255-.447-2.251.05.004.45.213.574 1.218.715 1.614.226 2.614.674 3.275 1.464l.574.686.208-.391c.236-.443.388-.535 1.092-.664l.5-.09-.49-.014c-2.228-.057-1.032-1.789 1.22-1.765 2.173.023 2.582.468 2.582 2.808v1.66l-.407.078a2.76 2.76 0 01-.848-.003c-.604-.11-.668-.108-1.462.062-.994.212-1.75.003-2.374-.654-.593-.626-.846-.703-.978-.3-.503 1.534-5.521 1.276-5.976-.307-.225-.787.94-1.012 1.838-.355.56.409 1.563.505 2.361.227.8-.279.068-.897-1.22-1.031-4.527-.47-3.786-4.14.76-3.767.463.038.949.162 1.104.28zm27.414-.174c-.216.31-.221.948-.01 1.25.109.156.109.258 0 .309-.097.046-.161.904-.161 2.17 0 2.44.123 2.688 1.267 2.53.936-.128.995-.267.995-2.343v-1.859l.344.493c.189.27.4.52.47.554.069.034.15.685.181 1.447.065 1.602.076 1.616 1.375 1.72 1.162.093 1.66-.157 1.687-.85.013-.319.037-.347.121-.139.391.976 4.711 1.558 4.711.636 0-.088.164-.214.364-.282.284-.095.368-.23.384-.616.037-.89.106-.88.216.033.128 1.064.218 1.152 1.203 1.181.978.029 1.06-.084 1.063-1.469.003-1.132.156-1.496.649-1.543.515-.05.602.02.584.463-.024.606.41.774 2.01.777 1.446.002 1.608-.088 1.608-.891 0-.734-.253-.838-2.04-.838h-1.21l.25-.274c.344-.375.32-.51-.166-.952-.447-.407-.987-.499-1.139-.195-.104.208-.953.255-1.11.062-.451-.56-1.692.195-1.703 1.036l-.007.509-.228-.49c-.227-.487-.781-.924-1.179-.929-.114-.002-.419-.122-.676-.267-.52-.294-1.435-.266-1.923.057-.145.096-.465.211-.712.256-.254.046-.58.245-.746.455l-.297.373-.101-.388c-.061-.234-.223-.412-.407-.449-.2-.04-.337-.21-.397-.494-.183-.861-1.902-1.214-2.15-.442-.061.187-.28.512-.488.723-.209.21-.38.46-.381.556-.002.095-.095.034-.209-.136-.15-.226-.162-.432-.046-.77.281-.81.007-1.138-.989-1.183-.697-.03-.864.004-1.007.209zm19.9.019c-.195.138-.362.32-.372.402-.01.082-.05.733-.09 1.447-.246 4.445-.288 4.388 3.198 4.388 2.258 0 2.453-.018 2.702-.253.148-.14.393-.29.545-.334.152-.045.336-.258.409-.474l.133-.392.48.44c.264.241.598.568.744.726.289.312 4.511.392 4.903.093.37-.283.303-4.105-.078-4.476-.997-.97-1.936-.32-1.943 1.342-.006 1.283-.143 1.601-.729 1.679-.295.04-.32-.043-.357-1.194-.053-1.624-.093-1.723-.815-2.011l-.615-.246-.679.307-.679.306-.002.76c-.002.418-.065.836-.141.928-.213.256-.312-.504-.218-1.665.075-.94.056-1.02-.304-1.273a45.89 45.89 0 01-.714-.51c-.509-.374-4.852-.365-5.379.01zm23.737-.02c-.095.136-.172.528-.172.872 0 .605-.189.824-.382.44-.108-.214-1.474-.264-1.64-.06-.055.07-.35.206-.655.304-.306.097-.555.24-.555.318 0 .077-.147.233-.327.346-.829.52-.618 2.683.34 3.49l.649.547 2.211-.034c1.222-.02 2.284-.091 2.376-.16.262-.201.301-5.54.042-5.924-.286-.424-1.619-.522-1.887-.139zm-115.185.147c.27.163.521.51.691.958.147.386.357.813.466.95.11.136.287.524.393.863.107.34.269.686.36.77.092.084.298.603.458 1.153l.292 1-.396.137c-.603.21-1.215-.014-1.604-.589-.574-.848-2.539-.785-3.177.102-.398.554-1.044.747-1.51.45-.3-.19-.3-.977 0-1.306.13-.14.32-.528.425-.861.105-.334.288-.727.407-.874.119-.146.303-.536.41-.865.255-.787 1.083-1.994 1.415-2.061.58-.119.966-.07 1.37.173zm8.583-.089c.21.117.321.377.375.87l.076.704.747-.082c.411-.046.771-.1.8-.118.227-.15 1.508.392 1.855.785 1.245 1.41.23 3.87-1.601 3.881-3.533.022-3.57.003-3.643-1.879-.07-1.78-.155-1.882-1.147-1.37-.827.427-.924.61-.93 1.74-.01 1.506-1.365 2.178-1.674.83-.543-2.366-.032-4.128 1.103-3.798.317.092.609.095.927.01.286-.076.61-.08.849-.011.479.14.662-.01.824-.67.192-.79.871-1.21 1.44-.892zm12.419-.052c.762.222.67 1.142-.13 1.296-.664.127-1.05-.111-1.05-.649 0-.696.35-.888 1.18-.647zm52.12.034c.323.246.243 1.059-.119 1.207-.77.315-1.397.01-1.331-.649.064-.65.907-.974 1.45-.558zm23.595.261c.972.479 1.293 1.314.791 2.063-.174.26-.161.4.084.897.519 1.054.306 1.841-.652 2.402-.698.408-4.486.604-5.075.262-.254-.148-.377-2.375-.292-5.323.023-.832 3.635-1.043 5.144-.3zm20.065-.109c.269.249.241 5.48-.031 5.73-.141.131-.404.159-.998.105-.444-.04-1.083-.01-1.42.067-1.679.385-3.037-.645-3.037-2.303 0-1.637.955-2.372 2.953-2.273l.842.042.103-.636c.147-.91.98-1.293 1.588-.732zm-92.319.8c.198.3.516.672.707.828l.347.282-.444.293c-.634.417-.847 1.957-.331 2.384.698.579.781 1.043.22 1.223-.428.138-1.491.09-1.651-.074-.518-.53-.58-.718-.58-1.755 0-.871-.072-1.211-.339-1.62l-.338-.519.338-.482c.186-.265.338-.535.338-.599 0-.722 1.25-.694 1.733.04zm51.726-.414c.198.106.36.319.36.473 0 .154.181.411.404.57.222.16.404.362.404.45 0 .086-.182.297-.404.467-.356.272-.404.415-.404 1.193 0 .762.055.934.404 1.25.736.67.453 1.09-.735 1.09-1.18 0-1.35-.224-1.447-1.92-.072-1.252-.12-1.43-.445-1.662-.46-.328-.456-.438.04-.89.223-.202.405-.49.405-.642 0-.553.73-.748 1.418-.379zm-12.731.51c-.223.032-.477.127-.566.213-.089.086-.365.195-.613.242-.249.048-.497.178-.554.29-.055.111-.234.304-.396.428-.454.348-.376.712.186.862.462.123.372.477-.12.477-.728 0-.684 1.582.06 2.185l.583.472 2.249-.018c2.886-.023 2.726.093 2.726-1.965 0-1.729-.061-2.034-.41-2.034-.118 0-.237-.124-.266-.276-.033-.178-.223-.32-.536-.4-.267-.07-.581-.196-.699-.281a.853.853 0 00-.404-.157 5.145 5.145 0 01-.513-.048 3.16 3.16 0 00-.727.01zm44.501.038c-.191.06-.395.167-.454.24-.16.197-.988.16-1.222-.056-.232-.213-.778-.024-1.331.462-.297.26-.419 2.88-.178 3.804.142.542.952.822 1.778.613.722-.182.864-.481.868-1.825.002-1.249.099-1.43.699-1.315l.429.083v1.405c0 1.63.171 1.846 1.352 1.699.82-.102.916-.335.892-2.181-.026-2.017-.084-2.186-.871-2.522-1.291-.552-1.41-.577-1.962-.407zm-53.24.198c-.208.191-.512.19-1.605-.003-.925-.164-1.045.096-1.101 2.4-.057 2.337.053 2.598 1.101 2.598.932 0 1.131-.325 1.131-1.84V36.75l.485-.054.485-.055v1.269c0 1.606.112 1.844.911 1.943 1.183.147 1.352-.067 1.352-1.712 0-1.143.045-1.419.229-1.419.126 0 .344-.033.485-.075.222-.065.258.092.272 1.205.021 1.712.088 1.865.862 1.988 1.245.198 1.384-.002 1.384-1.993 0-2.216-.064-2.45-.73-2.663-.287-.092-.573-.229-.634-.303-.158-.197-1.07-.168-1.375.043-.391.271-1.457.292-1.648.032-.202-.277-1.309-.288-1.604-.015zm12.962.095c-.56.455-.53 4.43.035 4.714 1.217.61 1.831.014 1.864-1.81.02-1.116.089-1.218.829-1.218.782 0 1.124-1.155.513-1.732-.29-.275-1-.268-1 .01 0 .178-.933.136-1.44-.065-.424-.167-.48-.16-.801.1zm25.865-.063c-.715.357-.136.822 1.023.822h1.131v-.865l-.97-.032c-.533-.018-1.066.016-1.184.075zm-76.165.209c2.173.336 2.82 2.818.72 2.765-2.679-.068-3.425.073-2.296.434.504.16.676.158 1.547-.02 1.74-.357 2.235.078 1.031.902-1.822 1.249-4.815.23-4.997-1.7-.132-1.395 1.598-2.747 3.203-2.503l.792.122zm12.65.12c.937.277 1.761 1.814 1.284 2.39-.2.24-1.141.364-1.781.233-.61-.125-1.893-.02-2.044.166-.232.288.991.489 1.812.298 1.04-.24 1.286-.23 1.68.071l.333.255-.696.48c-1.271.875-2.892.832-4.185-.111l-.795-.58.005-1.046c.01-1.917 1.96-2.876 4.388-2.156zm13.29-.001c.223.17.572.31.776.31.295.002.322.026.13.12-.635.306-2.91-.21-2.91-.66 0-.248 1.624-.062 2.005.23zm22.502.123c.435.218.5.482.608 2.509l.082 1.519-.408.142c-.293.102-.534.106-.86.012-.31-.09-.545-.091-.748-.004-1.274.545-3.302-.192-3.302-1.2 0-.612.885-1.425 1.576-1.447.324-.01.357-.029.12-.069-1.208-.203-1.505-.475-1.128-1.033.54-.797 2.84-1.04 4.06-.43zm16.01-.192c.69.026 1.624 1.408 1.423 2.106-.18.626-.54.762-1.615.61-1.563-.22-2.572.034-1.755.443.403.202.475.202 1.344.001 1.405-.325 2.472.096 1.621.64l-.676.434c-.765.495-2.59.423-3.478-.137-2.451-1.545-.863-4.585 2.195-4.2.41.053.835.098.941.102zm13.757.161c.05.338.045.34-.93.34-1.01 0-1.121-.07-.88-.552.196-.389 1.746-.207 1.81.212zm14.497.242c.384.35.401.435.401 2.06 0 1.819-.071 1.995-.8 1.992-.821-.004-.891-.129-.978-1.73-.062-1.142-.138-1.52-.323-1.608-.859-.415-1.454.254-1.457 1.635-.003 1.178-.222 1.626-.824 1.68-.732.066-.865-.227-.927-2.038-.077-2.252.128-2.626 1.304-2.38.247.053.777.027 1.212-.059 1.004-.197 1.858-.037 2.392.448zm-88.8-.268c.43.168.604.302.52.402-.07.082-.164.92-.208 1.86-.087 1.84-.2 2.06-1.061 2.06-.7 0-.795-.276-.788-2.293.008-2.386.148-2.571 1.538-2.029zm14.096.085c.216.37-.193.833-.98 1.117l-.602.216-.08 1.277c-.087 1.369-.256 1.627-1.062 1.627-.686 0-.783-.427-.733-3.236.021-1.233.085-1.276 1.871-1.275 1.316 0 1.44.022 1.586.274zm21.61-.194c.311.005.922-.033 1.358-.085 1.72-.204 2.197.337 2.197 2.487 0 1.734-.123 2.029-.852 2.029-.826 0-.925-.16-.925-1.49 0-1.462-.206-2.015-.705-1.898-.688.161-.75.284-.752 1.518-.003 1.376-.195 1.789-.86 1.848-.79.07-.916-.131-.916-1.458 0-1.547-.19-2.01-.783-1.901-.608.111-.581.05-.68 1.588-.108 1.686-.786 2.364-1.607 1.608-.236-.218-.293-3.968-.062-4.144.17-.13 2.084-.225 3.213-.159.445.026 1.063.052 1.374.057zm13.965.255c.186.404-.15.75-1.036 1.069l-.566.203-.08 1.333c-.088 1.44-.169 1.565-1.014 1.569-.65.003-.764-.354-.764-2.376 0-2.176-.037-2.134 1.885-2.134 1.4 0 1.422.005 1.575.336zm2.233-.181c.306.266.248 3.909-.066 4.198-.299.276-1.143.146-1.379-.212-.316-.481-.282-3.572.044-3.928.307-.335 1.048-.366 1.4-.058zm13.932-.022c.488.373.028 1.05-.904 1.33l-.62.186v1.192c0 1.42-.13 1.67-.875 1.67-.881 0-.96-.18-.972-2.214-.013-2.228.004-2.255 1.46-2.214.562.016 1.073-.01 1.135-.058.187-.143.506-.1.776.108zm12.967-.012c.302.162.348.33.404 1.482.074 1.536.254 1.788 1.136 1.595l.535-.116.046-1.351c.053-1.55.198-1.785 1.044-1.693.748.082.763.127.766 2.255.003 2.29-.191 2.532-1.679 2.1-.261-.076-.443-.076-.504 0-.129.159-1.795.152-2.187-.009-.843-.344-1.362-3.645-.658-4.183.406-.31.636-.327 1.097-.08zm-101.17.975c-.55.55-.546.774.012.856.613.09.856-.098.739-.572-.175-.71-.285-.751-.751-.284zm17.022-.05c-.328.163.297.67.686.556.234-.069.518-.413.409-.497-.157-.12-.893-.16-1.095-.06zm12.128-.004c-.333.165.211.625.638.54.265-.053.575-.382.45-.477-.155-.118-.891-.16-1.088-.063zm20.25.079c-.177.352.209.483.699.237.418-.21.426-.23.13-.319-.5-.149-.724-.127-.83.082zm15.254-.091c-.257.079-.262.114-.05.333.19.196.296.217.53.107.606-.284.206-.65-.48-.44zm16.417-.023c-.146.045-.15.135-.014.36.252.424 1.028.425 1.134.002.09-.362-.502-.554-1.12-.362zm-80.533.414c0 .248-.081.371-.243.371-.291 0-.294-.024-.055-.426.243-.408.298-.397.298.056zm9.97-.024c-.849.677-.364 1.879.756 1.879.726 0 .91-.194.91-.958 0-1.104-.849-1.574-1.667-.92zm15.888.774c0 .714-.058 1.092-.162 1.043-.276-.13-.184-2.163.099-2.163.034 0 .063.504.063 1.12zm88.201-.806c-.778.551-.612 1.728.261 1.854 1.412.202 2.104-1.228.918-1.898-.6-.34-.641-.338-1.179.044zm-36.355.952c-.035.564-.29 1.135-.29.65 0-1.636.021-1.839.174-1.639.09.12.143.564.116.99zm-66.62-.772c.545 0 .293 1.448-.263 1.51-.582.066-.612.038-.743-.694-.11-.611.134-1.004.547-.883.126.037.333.067.459.067zm27.833.025c.373.286.238.957-.22 1.09-1.67.486-3.615-.397-2.388-1.083.357-.2 2.348-.206 2.608-.007zm8.1.278c-.082.065-.152.231-.155.37-.005.185-.072.138-.247-.17-.18-.316-.192-.445-.05-.512.25-.119.648.156.451.312zm43.778-.278c.74.566.051 1.211-1.294 1.211-1.409 0-1.953-.534-1.226-1.204.22-.203 2.257-.209 2.52-.007zm24.76.667c0 .576-.268.822-.897.822-.907 0-1.275-1.234-.436-1.465.804-.221 1.333.034 1.333.643zm-21.487-.02c-.69.637.543 1.166 2.044.878.416-.08.527-.64.178-.907-.28-.214-1.982-.192-2.222.03zm1.618.022c.528.066.57.103.507.43-.107.557-1.971.565-1.971.01 0-.54.198-.6 1.464-.44zm-46.951.588l-.477.153.392.21c.485.26 1.858-.045 1.448-.321-.228-.154-.944-.176-1.363-.042zm15.426-.088l-.451.112c-.35.084.084.548.513.548.595 0 1.031-.435.608-.608-.178-.074-.348-.13-.376-.123-.028.005-.16.037-.294.07zm-46.49.301c-.305.068-.759.068-1.13.001-.565-.101-.517-.111.51-.113.945 0 1.047.018.62.112zm12.122 0c-.306.068-.76.068-1.132.001-.563-.101-.516-.111.51-.113.946 0 1.048.018.622.112zm19.676-.021a.723.723 0 01-.445.046c-.342-.1-.254-.16.228-.158.324.001.383.032.217.112zm15.237.013c-.11.084-.299.087-.558.008-.367-.112-.357-.12.167-.128.382-.005.505.033.39.12zm17.152-.004c-.45.148-1.173.148-1.293 0-.062-.077.225-.12.758-.115.629.007.772.038.535.115z" fill="#F4CDC8"/></svg>