<svg width="50" height="50" viewBox="0 0 50 50" fill="none" xmlns="http://www.w3.org/2000/svg">
<rect width="50" height="50" rx="25" fill="url(#paint0_linear_113_153)"/>
<g clip-path="url(#clip0_113_153)">
<path d="M24.995 14.2002C22.0655 14.2002 21.6971 14.2137 20.5461 14.265C19.395 14.3189 18.6111 14.4998 17.9242 14.7669C17.2038 15.0379 16.5512 15.463 16.0122 16.0124C15.4631 16.5517 15.0381 17.2042 14.7667 17.9245C14.4995 18.61 14.3173 19.3953 14.2647 20.5423C14.2134 21.696 14.2 22.063 14.2 24.9965C14.2 27.9274 14.2134 28.2944 14.2647 29.4454C14.3187 30.5951 14.4995 31.3791 14.7667 32.0659C15.0433 32.7757 15.4117 33.3775 16.0122 33.978C16.6113 34.5785 17.2131 34.9482 17.9229 35.2235C18.6111 35.4906 19.3937 35.6728 20.5434 35.7254C21.6957 35.7767 22.0628 35.7902 24.995 35.7902C27.9271 35.7902 28.2928 35.7767 29.4452 35.7254C30.5935 35.6715 31.3802 35.4906 32.067 35.2235C32.787 34.9523 33.4391 34.5273 33.9777 33.978C34.5782 33.3775 34.9466 32.7757 35.2232 32.0659C35.489 31.3791 35.6712 30.5951 35.7252 29.4454C35.7765 28.2944 35.79 27.9274 35.79 24.9952C35.79 22.063 35.7765 21.696 35.7252 20.5436C35.6712 19.3953 35.489 18.61 35.2232 17.9245C34.9519 17.2042 34.5269 16.5517 33.9777 16.0124C33.4388 15.4628 32.7862 15.0377 32.0657 14.7669C31.3775 14.4998 30.5922 14.3176 29.4438 14.265C28.2915 14.2137 27.9258 14.2002 24.9923 14.2002H24.9963M24.0274 16.146H24.9963C27.8786 16.146 28.22 16.1554 29.3575 16.2081C30.41 16.2553 30.9821 16.4321 31.3627 16.5791C31.866 16.7748 32.2263 17.0096 32.6041 17.3874C32.9819 17.7652 33.2153 18.1242 33.411 18.6288C33.5594 19.008 33.7349 19.5802 33.7821 20.6327C33.8347 21.7702 33.8455 22.1116 33.8455 24.9925C33.8455 27.8734 33.8347 28.2162 33.7821 29.3537C33.7349 30.4062 33.5581 30.977 33.411 31.3575C33.2379 31.8262 32.9617 32.25 32.6027 32.5976C32.2249 32.9754 31.866 33.2088 31.3613 33.4045C30.9835 33.5529 30.4113 33.7283 29.3575 33.7769C28.22 33.8282 27.8786 33.8403 24.9963 33.8403C22.114 33.8403 21.7713 33.8282 20.6338 33.7769C19.5813 33.7283 19.0105 33.5529 18.6299 33.4045C18.161 33.2317 17.7368 32.9559 17.3885 32.5976C17.0293 32.2495 16.7526 31.8253 16.5789 31.3561C16.4318 30.977 16.255 30.4048 16.2078 29.3523C16.1565 28.2148 16.1457 27.8734 16.1457 24.9898C16.1457 22.1075 16.1565 21.7675 16.2078 20.63C16.2564 19.5775 16.4318 19.0053 16.5802 18.6248C16.7759 18.1215 17.0107 17.7612 17.3885 17.3834C17.7663 17.0055 18.1253 16.7721 18.6299 16.5764C19.0105 16.428 19.5813 16.2526 20.6338 16.204C21.6296 16.1581 22.0155 16.1446 24.0274 16.1433V16.146ZM30.7581 17.938C30.0432 17.938 29.4627 18.5184 29.4627 19.2334C29.4627 19.9483 30.0432 20.5288 30.7581 20.5288C31.4731 20.5288 32.0535 19.9483 32.0535 19.2334C32.0535 18.5184 31.4731 17.938 30.7581 17.938ZM24.9963 19.452C22.995 19.4207 21.1323 20.4705 20.1225 22.1986C19.1128 23.9268 19.1128 26.065 20.1225 27.7931C21.1323 29.5212 22.995 30.571 24.9963 30.5398C28.0244 30.4925 30.4544 28.0243 30.4544 24.9959C30.4544 21.9674 28.0244 19.4992 24.9963 19.452ZM24.9963 21.3964C26.9825 21.3964 28.5951 23.009 28.5951 24.9952C28.5951 26.9814 26.9825 28.594 24.9963 28.594C23.0101 28.594 21.3975 26.9814 21.3975 24.9952C21.3975 23.009 23.0101 21.3964 24.9963 21.3964Z" fill="white"/>
</g>
<defs>
<linearGradient id="paint0_linear_113_153" x1="46" y1="15.5" x2="10" y2="39" gradientUnits="userSpaceOnUse">
<stop offset="0.0123107" stop-color="#EE4E81"/>
<stop offset="0.5" stop-color="#D0338E"/>
<stop offset="0.75" stop-color="#B738B3"/>
<stop offset="1" stop-color="#5D51DB"/>
</linearGradient>
<clipPath id="clip0_113_153">
<rect width="21.59" height="21.59" fill="white" transform="translate(14.2 14.2002)"/>
</clipPath>
</defs>
</svg>
