<svg width="72" height="72" viewBox="0 0 72 72" fill="none" xmlns="http://www.w3.org/2000/svg">
<g filter="url(#filter0_d_923_14987)">
<circle cx="36" cy="36" r="30" fill="#030A33"/>
<circle cx="36" cy="36" r="29.5" stroke="#283ACF"/>
</g>
<path fill-rule="evenodd" clip-rule="evenodd" d="M9.50781 35.9998C9.50781 28.9737 12.2989 22.2354 17.2671 17.2671C22.2354 12.2989 28.9737 9.50781 35.9998 9.50781C43.0259 9.50781 49.7643 12.2989 54.7325 17.2671C59.7007 22.2354 62.4918 28.9737 62.4918 35.9998C62.4918 43.0259 59.7007 49.7643 54.7325 54.7325C49.7643 59.7007 43.0259 62.4918 35.9998 62.4918C28.9737 62.4918 22.2354 59.7007 17.2671 54.7325C12.2989 49.7643 9.50781 43.0259 9.50781 35.9998ZM35.9998 13.3078C29.9815 13.3078 24.2097 15.6986 19.9541 19.9541C15.6986 24.2097 13.3078 29.9815 13.3078 35.9998C13.3078 42.0181 15.6986 47.7899 19.9541 52.0455C24.2097 56.3011 29.9815 58.6918 35.9998 58.6918C42.0181 58.6918 47.7899 56.3011 52.0455 52.0455C56.3011 47.7899 58.6918 42.0181 58.6918 35.9998C58.6918 29.9815 56.3011 24.2097 52.0455 19.9541C47.7899 15.6986 42.0181 13.3078 35.9998 13.3078ZM34.4998 41.9998C34.2798 42.5078 31.3278 53.8398 31.3278 53.8398C31.2595 54.0935 31.1419 54.3313 30.9818 54.5396C30.8216 54.7478 30.6219 54.9225 30.3942 55.0536C29.9344 55.3184 29.3882 55.3897 28.8758 55.2518C28.6221 55.1835 28.3843 55.0659 28.1761 54.9058C27.9678 54.7456 27.7931 54.5459 27.662 54.3182C27.3972 53.8584 27.3259 53.3122 27.4638 52.7998C27.4638 52.7998 30.9838 41.4918 30.9838 39.0798V33.2038L23.1518 31.1038C22.8942 31.0396 22.652 30.9248 22.4393 30.766C22.2265 30.6072 22.0475 30.4077 21.9127 30.179C21.7778 29.9504 21.6899 29.6971 21.6539 29.4341C21.618 29.1711 21.6347 28.9036 21.7032 28.6471C21.7717 28.3906 21.8906 28.1504 22.0529 27.9403C22.2152 27.7303 22.4177 27.5546 22.6486 27.4236C22.8795 27.2926 23.1341 27.2089 23.3977 27.1774C23.6613 27.1458 23.9285 27.167 24.1838 27.2398C24.1838 27.2398 30.7998 29.4918 33.3838 29.4918H38.6198C41.1998 29.4918 47.8118 27.2398 47.8118 27.2398C48.3242 27.1019 48.8704 27.1732 49.3302 27.438C49.7901 27.7028 50.1259 28.1394 50.2638 28.6518C50.4017 29.1642 50.3304 29.7104 50.0656 30.1702C49.8008 30.6301 49.3642 30.9659 48.8518 31.1038L40.9878 33.2118V39.0798C40.9878 41.4918 44.5078 52.7878 44.5078 52.7878C44.6452 53.3002 44.5734 53.8462 44.3082 54.3057C44.043 54.7651 43.6062 55.1004 43.0938 55.2378C42.5814 55.3752 42.0354 55.3034 41.576 55.0382C41.1165 54.773 40.7812 54.3362 40.6438 53.8238C40.6438 53.8238 37.6798 42.5078 37.4758 41.9998C37.2758 41.4918 36.5998 41.4918 36.5998 41.4918H35.3718C35.3718 41.4918 34.6798 41.4918 34.4998 41.9998ZM35.9998 26.4798C37.1933 26.4798 38.3379 26.0057 39.1818 25.1618C40.0257 24.3179 40.4998 23.1733 40.4998 21.9798C40.4998 20.7863 40.0257 19.6417 39.1818 18.7978C38.3379 17.9539 37.1933 17.4798 35.9998 17.4798C34.8063 17.4798 33.6617 17.9539 32.8178 18.7978C31.9739 19.6417 31.4998 20.7863 31.4998 21.9798C31.4998 23.1733 31.9739 24.3179 32.8178 25.1618C33.6617 26.0057 34.8063 26.4798 35.9998 26.4798Z" fill="white"/>
<defs>
<filter id="filter0_d_923_14987" x="0" y="0" width="72" height="72" filterUnits="userSpaceOnUse" color-interpolation-filters="sRGB">
<feFlood flood-opacity="0" result="BackgroundImageFix"/>
<feColorMatrix in="SourceAlpha" type="matrix" values="0 0 0 0 0 0 0 0 0 0 0 0 0 0 0 0 0 0 127 0" result="hardAlpha"/>
<feOffset/>
<feGaussianBlur stdDeviation="3"/>
<feComposite in2="hardAlpha" operator="out"/>
<feColorMatrix type="matrix" values="0 0 0 0 0.101961 0 0 0 0 0.466667 0 0 0 0 0.94902 0 0 0 1 0"/>
<feBlend mode="normal" in2="BackgroundImageFix" result="effect1_dropShadow_923_14987"/>
<feBlend mode="normal" in="SourceGraphic" in2="effect1_dropShadow_923_14987" result="shape"/>
</filter>
</defs>
</svg>
