<svg width="50" height="50" fill="none" xmlns="http://www.w3.org/2000/svg"><rect width="50" height="50" rx="25" fill="url(#paint0_linear_113_153)"/><g clip-path="url(#clip0_113_153)"><path d="M24.995 14.2c-2.93 0-3.298.014-4.449.065-1.151.054-1.935.235-2.622.502a5.286 5.286 0 00-1.912 1.245 5.299 5.299 0 00-1.245 1.912c-.268.686-.45 1.471-.502 2.618-.052 1.154-.065 1.521-.065 4.454 0 2.931.013 3.298.065 4.45.054 1.15.234 1.933.502 2.62a5.3 5.3 0 001.245 1.912c.6.6 1.201.97 1.91 1.245.69.268 1.472.45 2.621.502 1.153.052 1.52.065 4.452.065s3.298-.013 4.45-.065c1.148-.053 1.935-.234 2.622-.502a5.285 5.285 0 001.91-1.245c.601-.6.97-1.202 1.246-1.912.266-.687.448-1.47.502-2.62.051-1.152.065-1.519.065-4.45 0-2.933-.014-3.3-.065-4.452-.054-1.149-.236-1.934-.502-2.62a5.296 5.296 0 00-1.245-1.912 5.279 5.279 0 00-1.912-1.245c-.689-.267-1.474-.45-2.622-.502-1.152-.051-1.518-.065-4.452-.065h.004m-.969 1.946h.97c2.882 0 3.223.01 4.36.062 1.053.047 1.625.224 2.006.371.503.196.863.43 1.241.808.378.378.611.737.807 1.242.148.379.324.951.371 2.004.053 1.137.064 1.479.064 4.36 0 2.88-.011 3.223-.064 4.36-.047 1.053-.224 1.624-.371 2.005-.173.468-.45.892-.808 1.24a3.335 3.335 0 01-1.242.806c-.378.149-.95.324-2.003.373-1.138.051-1.48.063-4.362.063s-3.225-.012-4.362-.063c-1.053-.049-1.623-.224-2.004-.373a3.344 3.344 0 01-1.241-.806 3.347 3.347 0 01-.81-1.242c-.147-.379-.324-.951-.371-2.004-.051-1.137-.062-1.479-.062-4.362 0-2.882.01-3.223.062-4.36.048-1.052.224-1.625.372-2.005a3.35 3.35 0 01.809-1.242 3.335 3.335 0 011.24-.807c.381-.148.952-.323 2.005-.372.996-.046 1.381-.06 3.393-.06v.002zm6.731 1.792a1.296 1.296 0 10.001 2.592 1.296 1.296 0 000-2.592zm-5.762 1.514a5.544 5.544 0 10-.173 11.088 5.544 5.544 0 00.173-11.088zm0 1.944a3.6 3.6 0 013.6 3.6 3.6 3.6 0 01-3.6 3.598 3.6 3.6 0 01-3.598-3.599 3.6 3.6 0 013.598-3.599z" fill="#fff"/></g><defs><linearGradient id="paint0_linear_113_153" x1="46" y1="15.5" x2="10" y2="39" gradientUnits="userSpaceOnUse"><stop offset=".012" stop-color="#EE4E81"/><stop offset=".5" stop-color="#D0338E"/><stop offset=".75" stop-color="#B738B3"/><stop offset="1" stop-color="#5D51DB"/></linearGradient><clipPath id="clip0_113_153"><path fill="#fff" transform="translate(14.2 14.2)" d="M0 0h21.59v21.59H0z"/></clipPath></defs></svg>