<svg width="72" height="72" fill="none" xmlns="http://www.w3.org/2000/svg"><g filter="url(#filter0_d_923_14987)"><circle cx="36" cy="36" r="30" fill="#030A33"/><circle cx="36" cy="36" r="29.5" stroke="#283ACF"/></g><path fill-rule="evenodd" clip-rule="evenodd" d="M9.508 36a26.492 26.492 0 1152.984 0 26.492 26.492 0 01-52.984 0zM36 13.308a22.692 22.692 0 100 45.385 22.692 22.692 0 000-45.385zM34.5 42c-.22.508-3.172 11.84-3.172 11.84a2.003 2.003 0 01-2.452 1.412 2.001 2.001 0 01-1.412-2.452s3.52-11.308 3.52-13.72v-5.876l-7.832-2.1a1.999 1.999 0 111.032-3.864s6.616 2.252 9.2 2.252h5.236c2.58 0 9.192-2.252 9.192-2.252a2 2 0 011.04 3.864l-7.864 2.108v5.868c0 2.412 3.52 13.708 3.52 13.708a2 2 0 11-3.864 1.036S37.68 42.508 37.476 42c-.2-.508-.876-.508-.876-.508h-1.228s-.692 0-.872.508zM36 26.48a4.5 4.5 0 100-9 4.5 4.5 0 000 9z" fill="#fff"/><defs><filter id="filter0_d_923_14987" x="0" y="0" width="72" height="72" filterUnits="userSpaceOnUse" color-interpolation-filters="sRGB"><feFlood flood-opacity="0" result="BackgroundImageFix"/><feColorMatrix in="SourceAlpha" values="0 0 0 0 0 0 0 0 0 0 0 0 0 0 0 0 0 0 127 0" result="hardAlpha"/><feOffset/><feGaussianBlur stdDeviation="3"/><feComposite in2="hardAlpha" operator="out"/><feColorMatrix values="0 0 0 0 0.101961 0 0 0 0 0.466667 0 0 0 0 0.94902 0 0 0 1 0"/><feBlend in2="BackgroundImageFix" result="effect1_dropShadow_923_14987"/><feBlend in="SourceGraphic" in2="effect1_dropShadow_923_14987" result="shape"/></filter></defs></svg>