<svg width="122" height="122" fill="none" xmlns="http://www.w3.org/2000/svg"><path d="M97.754 53.99l-32.712 61.929-4.46 3.176-20.816-7.94-8.922-9.527-28.25-42.874 7.434-20.644 87.726 15.88z" fill="#fff" stroke="#fff"/><path fill-rule="evenodd" clip-rule="evenodd" d="M31.7 17.083C17.51 17.98 5.223 28.007 1.313 41.882c-1.803 6.395-1.748 13.89.157 21.471C5.379 78.909 17 95.058 34.15 108.761 43.668 116.365 57.097 122 61 122c4.414 0 19.123-6.71 29.22-15.201 28.264-23.766 38.977-52.975 26.842-73.189-10.792-17.979-34.083-22.033-50.295-8.754-3.612 2.958-8.027 2.952-11.609-.017-6.694-5.55-14.986-8.29-23.458-7.756zm66.034 3.527c2.726.369 2.783.509.523 1.301-14.69 5.15-22.878 12.86-22.878 21.54 0 2.753.767 5.326 2.289 7.679.307.474.536.88.509.901-.51.397-19.578 12.637-19.62 12.594-.032-.034.012-.588.1-1.232 2.59-19.142-13.954-26.127-44.096-18.617-3.21.8-3.28.748-1.147-.85 15.578-11.672 31.917-14.233 46.965-7.36l.82.373a1.647 1.647 0 001.922-.413c10.1-11.532 23.04-17.482 34.613-15.916zm-52.04 26.35c10.134 2.702 12.127 16.3 3.182 21.712-8.318 5.035-18.915-1.663-17.95-11.346.718-7.218 7.838-12.215 14.768-10.367zm46.873 6.487c.025.076-.438.497-1.028.933-17.753 13.134-27.916 31.133-28.996 51.35-.162 3.043.03 7.624.418 9.969.11.665-4.806.79-7.646.195-6.03-1.263-14.844-6.28-20.997-11.953a1.199 1.199 0 01-.379-1.008l.057-.53c1.017-9.495-7.967-25.23-26.09-45.7-1.87-2.111-1.92-2.203-1.204-2.201 5.586.012 17.994 8.177 39.041 25.692a.81.81 0 001.14-.105l.56-.674c8.526-10.278 21.453-19.016 35.284-23.85 4.906-1.715 9.642-2.734 9.84-2.118zM108.8 66.375c.988 2.43-.602 12.3-2.833 17.588-.295.7-.537 1.313-.537 1.362 0 .34-1.831 3.714-3.407 6.28-4.943 8.049-14.933 16.456-23.043 19.392-.604.218-1.647.698-2.319 1.066-4.145 2.271-5.632 2.038-7.226-1.133-2.818-5.604-3.113-14.27-.706-20.68 1.15-3.065 3.811-7.247 4.61-7.247.359 0 .344 1.837-.036 4.458-.656 4.528.34 8.424 2.809 10.99 2.301 2.392 4.655 2.67 9.032 1.068 1.267-.464 4.921-2.873 6.726-4.434 4.155-3.595 8.9-10.009 11.213-15.158 1.841-4.097 3.885-9.467 4.613-12.117.56-2.035.756-2.291 1.104-1.435zm-21.918 8.912c6.88 1.71 9.286 10.614 4.258 15.752-5.525 5.646-14.752 2.019-15.238-5.99-.382-6.3 5.144-11.213 10.98-9.762z" fill="#1346A0"/><path fill-rule="evenodd" clip-rule="evenodd" d="M59.44.137C49.932 1.661 46.104 13.344 52.835 20.3c6.309 6.518 17.277 3.519 19.642-5.37C74.613 6.898 67.512-1.157 59.44.136zm32.28 20.335c-10.101.813-20.224 6.496-28.596 16.054l-.807.922-1.935-.883c-15.048-6.872-31.387-4.311-46.965 7.362-2.132 1.597-2.063 1.648 1.147.849 30.142-7.51 46.686-.526 44.096 18.617-.088.644-.132 1.198-.1 1.232.042.043 19.11-12.197 19.62-12.594.027-.021-.202-.427-.509-.902-1.522-2.352-2.29-4.925-2.29-7.678 0-8.681 8.19-16.391 22.879-21.54 1.012-.355 1.676-.653 1.676-.752 0-.487-5.247-.925-8.216-.687zm16.576 45.55c-.072.052-.34.856-.596 1.788-.971 3.531-4.069 11.307-5.711 14.333-3.975 7.325-9.224 13.014-15.314 16.598-2.176 1.28-5.502 2.078-7.172 1.721-4.418-.943-7.123-6.616-6.197-13.002.38-2.62.395-4.457.037-4.457-.8 0-3.46 4.182-4.611 7.246-2.407 6.411-2.111 15.077.706 20.681 1.594 3.171 3.081 3.404 7.227 1.133.671-.368 1.714-.848 2.318-1.066 8.11-2.936 18.1-11.343 23.044-19.393 1.575-2.566 3.406-5.94 3.406-6.28 0-.048.242-.661.537-1.361 1.922-4.555 3.004-9.967 3.012-15.07.004-2.43-.186-3.225-.686-2.87zm-24.574 9.083c-5.378.644-9.102 6.607-7.481 11.979 2.07 6.865 9.997 8.968 14.903 3.955 6.086-6.22 1.088-16.952-7.422-15.934z" fill="#F9B33A"/></svg>