<svg width="50" height="54" fill="none" xmlns="http://www.w3.org/2000/svg"><path d="M37.05 16.665L26.327 35.782l-1.463.98-6.825-2.451-2.925-2.941-9.262-13.234 2.437-6.372 28.763 4.901z" fill="#fff" stroke="#fff"/><path fill-rule="evenodd" clip-rule="evenodd" d="M15.393 5.273c-4.652.277-8.68 3.372-9.963 7.655-.59 1.974-.573 4.288.052 6.628 1.281 4.802 5.092 9.786 10.715 14.016 3.12 2.347 7.524 4.087 8.803 4.087 1.447 0 6.27-2.072 9.58-4.693 9.267-7.335 12.78-16.352 8.801-22.591-3.538-5.55-11.175-6.801-16.49-2.703-1.184.914-2.632.912-3.806-.005a11.368 11.368 0 00-7.692-2.394zm21.65 1.089c.895.114.913.157.172.401-4.816 1.59-7.5 3.97-7.5 6.65 0 .85.25 1.643.75 2.37.1.146.176.271.167.278-.167.122-6.42 3.9-6.433 3.887-.01-.01.004-.181.033-.38.849-5.909-4.575-8.065-14.458-5.747-1.052.247-1.075.231-.376-.262 5.107-3.603 10.465-4.394 15.398-2.272l.277.119a.55.55 0 00.622-.131c3.312-3.56 7.554-5.396 11.349-4.913zm-17.061 8.133c3.322.835 3.976 5.032 1.043 6.703-2.727 1.553-6.202-.514-5.885-3.503.235-2.228 2.57-3.77 4.842-3.2zm15.368 2.003c.008.023-.144.153-.337.288-5.82 4.054-9.153 9.61-9.507 15.85-.053.94.01 2.354.137 3.078.036.205-1.576.244-2.507.06-1.977-.39-4.867-1.939-6.884-3.69a.365.365 0 01-.124-.317l.018-.158c.334-2.93-2.612-7.787-8.554-14.106-.613-.652-.63-.68-.395-.68 1.832.004 5.9 2.525 12.8 7.931.116.09.28.075.377-.035l.181-.205c2.796-3.173 7.034-5.87 11.569-7.363 1.608-.529 3.161-.843 3.226-.653zm5.322 3.99c.324.75-.197 3.797-.929 5.43a5.133 5.133 0 00-.176.42c0 .105-.6 1.146-1.117 1.938-1.62 2.485-4.896 5.08-7.555 5.986-.198.068-.54.216-.76.33-1.36.7-1.847.629-2.37-.35-.923-1.73-1.02-4.405-.231-6.384.377-.946 1.25-2.237 1.512-2.237.117 0 .112.567-.012 1.376-.215 1.398.111 2.6.92 3.393.755.738 1.527.824 2.962.33.415-.144 1.614-.888 2.205-1.37 1.363-1.109 2.918-3.089 3.677-4.678.603-1.265 1.273-2.922 1.512-3.74.184-.629.248-.708.362-.444zm-7.186 2.751c2.256.528 3.045 3.277 1.396 4.863-1.811 1.743-4.837.623-4.996-1.85-.125-1.944 1.686-3.46 3.6-3.013z" fill="#1346A0"/><path fill-rule="evenodd" clip-rule="evenodd" d="M24.488.042c-3.118.47-4.373 4.077-2.166 6.224 2.069 2.012 5.665 1.086 6.44-1.658.7-2.478-1.628-4.965-4.274-4.566zM35.07 6.32c-3.311.251-6.63 2.005-9.375 4.956l-.265.284-.634-.272C19.862 9.166 14.505 9.957 9.397 13.56c-.699.493-.676.51.376.262 9.883-2.318 15.307-.162 14.458 5.747-.029.199-.043.37-.032.38.013.014 6.265-3.765 6.432-3.887.009-.007-.066-.132-.167-.278a4.114 4.114 0 01-.75-2.37c0-2.68 2.685-5.06 7.5-6.65.333-.11.55-.201.55-.232 0-.15-1.72-.285-2.694-.212zm5.435 14.06c-.023.016-.111.265-.195.552-.319 1.09-1.334 3.49-1.873 4.425-1.303 2.26-3.024 4.017-5.02 5.123-.714.395-1.805.642-2.352.532-1.449-.292-2.335-2.043-2.032-4.014.125-.809.13-1.376.012-1.376-.262 0-1.134 1.291-1.512 2.237-.789 1.979-.692 4.654.232 6.384.523.978 1.01 1.05 2.37.35.22-.114.562-.262.76-.33 2.658-.906 5.934-3.501 7.555-5.986.516-.792 1.116-1.834 1.116-1.938 0-.015.08-.204.177-.42.63-1.406.984-3.077.987-4.652.002-.75-.06-.996-.225-.886zm-8.057 2.804c-1.763.199-2.984 2.04-2.453 3.698a2.945 2.945 0 004.886 1.22c1.996-1.92.357-5.232-2.433-4.918z" fill="#F9B33A"/><path fill-rule="evenodd" clip-rule="evenodd" d="M28.849 43.227c-.296.063-.627.199-.753.31-.035.03-.089.072-.12.093-.16.105-.375.495-.463.839-.074.29-.08.87-.008.922.048.035.048.037-.006.147-.094.191-.245.244-.791.277-.162.01-.278.029-.293.047-.05.06-.02 1.042.032 1.051.03.006.044-.007.044-.041 0-.075.037-.084.13-.03.049.028.179.059.321.076.533.065.512-.057.492 2.851l-.014 2.093.482.017c.265.009.584.013.708.009l.226-.009.002-2.188c.002-3.013-.06-2.777.738-2.798.434-.01.501-.018.596-.065l.107-.053.015.06c.024.096.085-.01.103-.178.018-.174-.041-.753-.081-.792-.02-.02-.251-.04-.728-.06a15.601 15.601 0 01-.706-.04c-.027-.025-.01-.839.02-.937.107-.367.438-.546 1.013-.546.124 0 .194-.012.236-.041l.06-.041-.016-.424c-.01-.233-.025-.432-.036-.442-.106-.103-.991-.175-1.31-.107zm13.139.023c-.696.19-.824 1.161-.19 1.438.214.093.266.104.509.102.731-.005 1.015-.607.593-1.26-.163-.253-.563-.376-.912-.28zm6.547 1.635l-.007 1.523-.064.008c-.048.005-.106-.03-.238-.146-.487-.428-.897-.571-1.626-.57-.49.002-.844.068-.844.159 0 .022-.049.037-.15.046-.508.046-1.212.964-1.426 1.859-.143.597-.144 2.213-.002 2.213.013 0 .023-.11.024-.242.001-.402.058-.217.064.209.01.603.2 1.006.683 1.438 1.03.923 2.215.868 3.294-.153.282-.266.33-.225.348.287l.012.363.699.007.698.007-.015-4.048a374.227 374.227 0 00-.03-4.249l-.013-.201-.416-.017a22.226 22.226 0 00-.7-.016h-.285l-.006 1.523zm-45.213-1.45c-.23.027-.257.066-.483.686l-.205.56c-.043.115-.095.26-.116.322-.02.062-.047.135-.058.162-.02.046-.048.12-.177.473a30.386 30.386 0 00-.264.734c-.143.41-.312.893-.401 1.143a5.285 5.285 0 01-.132.348 3.31 3.31 0 00-.056.15l-.05.136a45.992 45.992 0 00-.33.895c-.07.192-.164.45-.211.575-.047.125-.103.282-.126.349a.628.628 0 01-.063.144.094.094 0 00-.023.057c0 .018-.022.08-.049.138a4 4 0 00-.11.292c-.21.624-.38 1.043-.44 1.08-.015.009-.028.043-.028.075 0 .124.264.153 1.158.126l.618-.019.126-.388a71.5 71.5 0 00.243-.762c.27-.859.145-.81 2.022-.807 1.66.002 1.572-.008 1.64.174.028.076.075.177.106.225.034.054.05.108.04.141-.014.056.031.193.328 1l.16.435.662.008c.808.01 1.025-.005 1.025-.069 0-.04-.144-.477-.2-.61a6.281 6.281 0 01-.071-.186 34.861 34.861 0 00-.13-.349 42.014 42.014 0 01-.225-.603 192.982 192.982 0 01-.38-1.032l-.098-.267a21.939 21.939 0 00-.32-.833 6.53 6.53 0 00-.052-.125 2.934 2.934 0 01-.08-.248c-.152-.526-.455-1.252-.577-1.38a.214.214 0 01-.05-.129.598.598 0 00-.022-.147l-.078-.259c-.119-.402-.25-.739-.338-.87a.576.576 0 01-.074-.2c-.021-.147-.167-.6-.29-.907a8.949 8.949 0 01-.051-.13c-.03-.078-.036-.081-.172-.083a77.252 77.252 0 01-1.132-.032 4.15 4.15 0 00-.466.007zm32.475.024c-.114.02-.253.273-.27.495a.425.425 0 01-.03.154c-.032.021-.167.303-.227.473-.03.089-.1.262-.153.385-.078.18-.097.254-.097.38 0 .133-.007.155-.046.155-.059 0-.09.063-.23.46-.11.312-.199.554-.244.671a3.548 3.548 0 00-.058.162 9.92 9.92 0 01-.1.274c-.196.523-.326.97-.326 1.122 0 .068-.012.096-.046.107-.122.039-.456.955-.456 1.251 0 .094-.01.136-.037.146-.102.04-.89 1.92-.89 2.125 0 .062.14.073.99.073h.76l.042-.106c.088-.217.116-.32.125-.468.006-.089.026-.17.048-.194.052-.056.166-.329.278-.662a8.435 8.435 0 01.164-.45c.04-.11.047-.11 1.598-.11 1.444 0 1.496.005 1.649.13.136.11.178.217.616 1.577l.081.252.585.019c1.062.033 1.202.012 1.144-.166l-.105-.32a5.727 5.727 0 00-.098-.285 59.995 59.995 0 01-.237-.596c-.119-.3-.24-.572-.27-.603a.174.174 0 01-.05-.144.54.54 0 00-.048-.204 4.933 4.933 0 01-.074-.17c-.03-.07-.202-.535-.226-.609a9.215 9.215 0 00-.098-.273c-.08-.214-.172-.47-.338-.945a9.441 9.441 0 00-.113-.311c-.075-.17-.324-.825-.393-1.032a2.357 2.357 0 00-.06-.162 3.633 3.633 0 01-.073-.199 52.569 52.569 0 00-.179-.51 41.64 41.64 0 01-.199-.571 18.851 18.851 0 00-.395-1.057l-.098-.249-.174-.015c-.225-.02-1.527-.02-1.642 0zm-20.896.638a4.96 4.96 0 00-.709.226c-.057.03-.068.05-.067.128l.002.092.036-.08c.03-.07.048-.081.126-.081h.09l-.064.074a.485.485 0 00-.079.124c-.017.055-.087.07-.088.02 0-.021-.009-.02-.025.006-.013.02-.024.185-.024.365-.001.717-.062.81-.54.822a4.072 4.072 0 00-.358.02l-.056.012v1.118h.354c.615 0 .6-.057.6 2.202 0 1.351.021 1.945.077 2.094.025.067.115.075.129.012.005-.023.01.009.012.072.004.203.157.42.295.42.065 0 .086.012.097.057.04.158.513.23 1.372.206.947-.025.911.005.923-.75l.008-.531-.059-.013a7.976 7.976 0 00-.547-.02c-.908-.017-.906-.013-.912-2.13l-.003-1.308.057-.114c.094-.188.13-.197.848-.197h.617l-.018-.528c-.01-.29-.028-.541-.04-.556-.015-.019-.218-.032-.595-.04-.9-.018-.862.027-.877-1.018l-.012-.742-.204.001a2.248 2.248 0 00-.366.037zm12.718.508c0 .096-.023.15-.064.15-.027 0-.03-.015-.01-.064a.42.42 0 00.024-.126c0-.035.011-.055.025-.046.014.008.025.047.025.086zm22.219.305c-.006.03-.011.011-.011-.043 0-.055.004-.08.01-.056a.27.27 0 010 .099zm-45.705.36c.068.1.12.221.17.399.041.146.087.206.087.113 0-.083.042.006.073.154a15.603 15.603 0 00.559 1.753l.07.187c.19.463.206.541.13.582-.057.03-1.798.087-1.96.065-.366-.05-.39-.116-.226-.585a21.815 21.815 0 00.353-1.08.756.756 0 00.023-.18c0-.09.008-.108.048-.108.039 0 .061-.04.112-.198.11-.35.449-1.17.482-1.17.017 0 .053.031.079.069zm32.636.144c.031.047.057.1.057.119a.1.1 0 00.02.056.579.579 0 01.055.136.915.915 0 00.05.136c.008.014.03.07.047.125a42.625 42.625 0 01.627 1.815l.102.376c.04.153.035.3-.013.318-.12.046-2.14.015-2.167-.033-.039-.072-.034-.475.006-.475.066 0 .221-.375.369-.895l.054-.184c.012-.04.03-.149.038-.24.013-.134.025-.17.061-.18.05-.013.088-.091.2-.423.042-.126.087-.25.1-.278l.095-.215c.125-.28.195-.317.3-.158zm-24.89.285c-.404.105-.547.194-1.03.64-.492.456-.463.462-.463-.097v-.39l-.082-.013c-.262-.04-1.321-.035-1.333.006-.02.068-.049 5.83-.03 5.915.01.043.037.087.06.097.086.04 1.376.043 1.391.004.008-.02.02-.415.03-.879.042-2.294.081-2.741.269-3.034a1.69 1.69 0 011.424-.756c.329 0 .39-.114.388-.709-.004-.762-.125-.915-.625-.784zm10.43.002c-.62.077-1.438.44-1.438.637 0 .05-.012.058-.088.058s-.087.008-.087.062c0 .042-.023.073-.072.098-.149.076-.429.487-.43.63 0 .03-.011.056-.025.056-.097 0-.288.498-.39 1.02-.08.404-.027 1.442.091 1.796.066.198.079.218.142.218.056 0 .061.007.048.074-.022.11.021.206.084.187.041-.014.05-.005.05.05 0 .27.665.947 1.184 1.208.598.3 2.312.246 3.025-.095.12-.058.231-.166.231-.226 0-.013.034-.03.076-.039.245-.048.883-.92 1.012-1.383.16-.578.2-1.45.092-2.011-.074-.386-.374-1.075-.49-1.128-.043-.019-.063-.048-.063-.092 0-.17-.557-.66-.953-.84-.515-.234-1.392-.357-2-.28zm27.53.216c-.007.038-.011.013-.012-.056 0-.068.005-.099.01-.068a.437.437 0 01.001.124zm-8.275-.04l-.054.053.011 2.956c.007 1.625.018 2.962.026 2.97.008.007.329.015.713.018l.7.005-.007-1.815c-.012-3.373-.024-4.195-.061-4.218-.084-.053-1.272-.025-1.328.031zm-32.036.018c.036.023-.155.053-.339.053-.109 0-.167-.037-.09-.057.079-.02.395-.017.429.004zm32.712 0c.02.013-.054.026-.188.033-.267.014-.456 0-.407-.032.045-.028.551-.028.595 0zm-25.702.021a.456.456 0 01-.125 0c-.038-.005-.013-.01.056-.01s.1.004.069.01zm13.546 0a.356.356 0 01-.113 0c-.03-.006-.006-.01.056-.01.063 0 .088.004.057.01zm17.224 1.006c.493.085.977.61 1.106 1.202.018.082.042.189.054.236.119.472-.04 1.314-.33 1.741-.177.262-.388.422-.726.55-.458.174-1.126-.09-1.453-.573-.159-.236-.215-.373-.314-.767-.109-.433-.062-1.111.098-1.435.038-.077.063-.162.056-.188-.008-.031.007-.064.042-.092.03-.024.112-.116.182-.205.07-.09.176-.198.237-.243a2.67 2.67 0 00.186-.15c.12-.108.488-.141.862-.076zm2.53.139c-.006.038-.01.013-.01-.056 0-.068.004-.1.01-.069a.437.437 0 010 .125zM23.3 46.993c.47.153.825.555.955 1.082.116.472.079 1.66-.057 1.794a1.118 1.118 0 00-.145.212c-.505.94-2.021.891-2.486-.08-.315-.656-.316-1.733-.003-2.348.049-.095.083-.193.076-.218-.007-.027.002-.044.023-.044.04 0 .15-.06.312-.168.215-.144.298-.18.577-.252.17-.045.58-.032.748.022zm20.966 1.21a8 8 0 01-.033.479l-.017.114-.019-.1c-.034-.184.024-.858.074-.858.007 0 .005.164-.005.365zm-33.82-.046c.006.01-.004.181-.024.379s-.036.482-.038.633c-.001.15-.017.464-.034.696l-.032.423-.01-.473c-.016-.729.015-1.63.056-1.656.043-.027.065-.028.081-.002zm39.393.694c-.006.052-.01.016-.01-.08s.004-.138.01-.094a.916.916 0 010 .174zm0 2.04c-.006.065-.01.012-.01-.118s.004-.183.01-.118c.005.065.005.17 0 .236z" fill="#fff"/></svg>