<svg width="468" height="278" fill="none" xmlns="http://www.w3.org/2000/svg"><path fill-rule="evenodd" clip-rule="evenodd" d="M292.767.382c-2.037.588-4.314 1.635-5.929 2.727-.845.572-1.594.725-2.821.58-.92-.11-3.482-.418-5.695-.687-6.949-.842-8.451-.469-11.95 2.968-4.398 4.316-6.838 4.695-14.362 2.227-4.066-1.334-4.687-1.354-10.27-.34-8.278 1.506-19.452 9.336-21.682 15.192-1.379 3.625-1.365 4.08.22 7.13 1.668 3.214 1.978 6.145.809 7.67-1.226 1.6-3.231.503-3.231-1.769 0-.712-.371-1.502-.915-1.952-.502-.416-1.4-1.515-1.995-2.444-1.091-1.702-2.019-2.14-2.435-1.149-.236.56-2.171 1.117-4.427 1.271l-4.964.343c-2.014.138-3.877.414-4.14.615-.263.2-1.789.33-3.389.289-2.525-.064-2.996.038-3.556.768-1.576 2.057-4.538 1.072-4.863-1.618-.627-5.197-5.485-6.95-9.31-3.36-2.109 1.98-2.18 2.01-3.22 1.387-.83-.497-1.448-.56-2.795-.282-1.247.255-1.944.214-2.487-.15-.957-.64-5.61-.311-6.962.49-1.447.86-2.689.27-3.62-1.717-.947-2.02-1.82-2.22-3.712-.857-2.788 2.007-10.577 1.454-11.523-.819-.289-.691-.598-.874-1.148-.67-3.198 1.178-7.627-.13-9.874-2.918-1.862-2.31-3.367-2.81-5.04-1.678l-1.3.877-1.901-1.019c-1.047-.56-2.459-1.017-3.139-1.017-.681 0-1.651-.264-2.154-.587-.505-.323-2.062-.692-3.462-.82-3.772-.344-4.316-.49-5.661-1.512-.676-.513-2.009-1.038-2.966-1.166a319.23 319.23 0 01-5.863-.905c-2.268-.367-5.172-.643-6.451-.61-1.28.03-3.527-.2-4.993-.518-5.624-1.209-15.46-1.393-17.216-.32-.63.384-2 .676-3.257.692-1.194.016-3.638.26-5.43.54-1.79.28-4.23.628-5.417.773-2.134.26-2.178.293-3.406 2.645-2.145 4.114-6.174 5.44-10.152 3.348-2.014-1.059-3.177-.895-5.326.748l-1.5 1.149 1.174.997c1.398 1.182 1.428 1.474.362 3.402-1.36 2.454-.265 8.073 2.742 14.086.612 1.222 1.114 2.328 1.114 2.46 0 .13 1.143 1.973 2.544 4.094 3.152 4.778 3.378 5.394 2.455 6.683-.666.93-.668 1.134-.005 2.86 2.044 5.315 1.562 7.642-1.889 9.107-2.655 1.127-6.758 4.415-9.578 7.679-1.247 1.442-3.562 3.765-5.143 5.16-4.945 4.364-7.083 6.469-7.78 7.663-.37.636-1.523 2.264-2.56 3.62-1.037 1.356-2.494 3.607-3.236 4.999a139.43 139.43 0 01-1.76 3.222c-1.877 3.17-2.088 5.755-.635 7.761 1.483 2.05 1.5 7.254.034 10.093-1.013 1.96-.885 2.897.336 2.468.907-.318.916-.011.039 1.215-.505.703-1.228 1.023-2.716 1.2-3.915.468-4.794 1.382-6.348 6.597-.494 1.658-1.208 2.762-2.767 4.281-4.393 4.277-5.351 7.536-3.083 10.479.787 1.02 1.786 1.96 2.218 2.085.434.125.788.562.788.97 0 1.101 3.038 3.563 4.4 3.568 1.616.004 2.44.992 1.58 1.896-1.034 1.086-.458 1.68 1.631 1.68 1.04 0 2.014.179 2.16.397.149.218.85.397 1.56.397 1.635 0 1.93.708 1.074 2.582-.87 1.903-.925 1.785.847 1.785.838 0 1.939.224 2.445.497.736.396.959.396 1.115 0 .123-.307 1.021-.497 2.346-.497 2.286 0 5.163-.874 5.163-1.568 0-.711 2.094-.478 2.247.251.097.46 1.087.89 3.18 1.386 6.713 1.587 11.056 1.913 14.163 1.062 1.592-.437 1.76-.393 3.704.992 2.298 1.637 2.354 1.643 7.873.875 4.401-.612 6.518-.067 8.186 2.112 2.641 3.445 9.791 3.201 14.394-.491 1.641-1.317 5.657-2.48 6.357-1.838 2.304 2.106 18.498-5.718 18.498-8.937 0-1.314 1.638-2.342 4.179-2.622 4.168-.462 6.509-1.13 7.569-2.161.549-.534 1.254-.97 1.57-.97.315 0 .815-.357 1.113-.794.299-.438.758-.795 1.023-.795.263 0 .833.357 1.265.795 1.102 1.112 1.502 1.077 4.561-.401.597-.289 2.55-.609 4.341-.712 2.223-.129 3.575-.415 4.256-.9.549-.391 1.554-.823 2.235-.96.68-.137 1.581-.596 2-1.021 1.021-1.03 2.13-.971 3.109.166 1.126 1.308 6.679 4.302 10.493 5.655 1.76.626 3.29 1.35 3.399 1.609.128.304.741.393 1.717.248 1.11-.165 1.989.018 3.277.679 1.768.908 2.894 1.237 7.297 2.134 2.323.473 2.389.523 2.41 1.856.016.949.285 1.491.878 1.769.469.218 1.279.79 1.798 1.268.52.479 1.665.995 2.545 1.146 1.042.178 1.676.535 1.815 1.02.116.412.434.723.703.694 2.912-.317 3.99 2.026 3.378 7.343-.653 5.694.694 10.959 2.806 10.959.542 0 1.116.191 1.274.424.175.26.936.326 1.946.17 2.218-.344 3.749 2.557 2.131 4.037-1.287 1.176-.516 5.748 1.28 7.592.496.51 1.243 1.452 1.658 2.094.413.642.889 1.165 1.057 1.165.166 0 .76.353 1.318.782a89.397 89.397 0 002.967 2.128c1.102.759 1.874 1.588 1.771 1.899-.1.303-.148.907-.108 1.344.04.438.136 2.045.211 3.573.076 1.528.37 3.17.652 3.646.77 1.298.631 2.023-.571 2.979-.597.475-1.086 1.099-1.086 1.386 0 .685.039.692-2.433-.516-1.2-.587-2.91-1.063-3.925-1.091-1.294-.037-2.375-.431-3.86-1.407l-2.065-1.355-3.084.958c-3.094.962-6.346 3.106-6.346 4.184 0 .304-.375.845-.831 1.204-.608.476-.771.985-.61 1.901.126.705-.079 1.911-.471 2.768-.382.835-.694 2.199-.694 3.029 0 .832-.293 1.779-.652 2.107-.358.328-.651.705-.651.84 0 .132-.199.458-.442.722a256.84 256.84 0 00-2.914 3.385c-1.599 1.879-2.862 2.978-3.575 3.112-1.639.308-2.807 2.818-2.451 5.269.289 1.994-.465 3.32-4.19 7.37-1.621 1.763-1.739 5.007-.201 5.647 2.963 1.234 5.925 1.467 6.993.55.643-.553 1.733-.937 2.925-1.031 3.374-.267 4.898-.696 5.674-1.597.515-.599 1.433-.963 2.867-1.137 1.16-.141 2.486-.517 2.946-.834.46-.318 1.289-.584 1.843-.591 2.168-.028 4.385-1.823 4.425-3.585.029-1.204 2.034-2.767 2.407-1.878.127.303.034 1.021-.206 1.599-.352.847-.294 1.121.3 1.425.642.329.588.436-.438.864-1.329.553-1.192 1.165.26 1.165 1.17 0 2.03-.696 1.734-1.403-.245-.582 1.152-1.106 2.083-.778.662.231 1.673-1.738 1.673-3.257 0-.449.294-1.039.652-1.311.358-.271.652-.721.652-.998s.342-.625.76-.774c.708-.251.701-.309-.086-.838-.656-.441-.729-.676-.326-1.043.77-.703.636-.979-.458-.944-.594.02-.976-.202-.976-.563 0-.45.557-.603 2.272-.627 1.474-.02 2.552-.264 3.073-.694.513-.425 1.547-.664 2.867-.664 2.63 0 6.769-2.301 6.769-3.762 0-.497.268-1.106.592-1.354.326-.248 1.343-1.565 2.257-2.928.915-1.361 2.162-2.927 2.774-3.479 1.579-1.426 3.063-3.262 3.063-3.787 0-.246.391-.86.868-1.364.478-.503.87-1.078.87-1.277 0-.201.516-.982 1.145-1.737.933-1.117 1.065-1.54.709-2.257-.986-1.983 2.526-6.51 4.277-5.51.443.252 1.381.46 2.086.46.703 0 1.745.161 2.315.36.818.283 1.144.201 1.552-.398.595-.87 1.465-.961 2.662-.277.693.395 1 .345 1.771-.292.842-.698.981-.711 1.438-.14.735.921 2.379 1.299 3.141.721.498-.378.895-.384 1.766-.021l1.122.468-1.097-1.192c-1.343-1.458-1.146-2.802.411-2.802.576 0 1.16.268 1.299.596.137.327.472.6.745.607 1.607.042 2.212 1.139 1.27 2.304-1.268 1.569-.709 2.369 1.161 1.661 1.844-.698 2.804-2.456 2.361-4.323a39.726 39.726 0 01-.405-1.838c-.036-.218-.289-.899-.565-1.514-.276-.615-.502-1.223-.502-1.353 0-.128-.489-.82-1.086-1.535-1.277-1.529-1.3-1.671-.403-2.576.612-.618.615-.811.032-1.842-.769-1.359-.393-2.153.873-1.85.783.188.936.601 1.126 3.033.154 1.96.434 2.957.925 3.285.387.258.703.972.703 1.584 0 1.298 2.599 5.836 4.275 7.463 1.283 1.246.636 2.253-1.448 2.253-.504 0-1.136.201-1.404.447-.302.274-1.499.379-3.112.273-2.052-.136-2.526-.066-2.176.318.308.34.276 1.009-.102 2.162-.523 1.595-.497 1.71.558 2.511.608.461 1.564 1.598 2.122 2.526.556.928 1.137 1.687 1.29 1.687.152 0 1.054.609 2.006 1.354 2.433 1.904 5.535 3.41 7.023 3.41.693 0 2.215.463 3.378 1.029 2.52 1.224 3.601 1.046 8.834-1.467 1.772-.851 3.767-1.547 4.437-1.547.668 0 1.889-.294 2.712-.652l1.496-.652 2.268 2.041c1.253 1.128 2.68 2.048 3.188 2.056.505.009 1.407.27 2.003.581 1.775.928 2.406.699 3.826-1.389 1.445-2.127 1.837-2.326 2.697-1.379.447.492.415.989-.174 2.656-.637 1.802-.647 2.121-.087 2.632.561.513.56.72-.005 1.718-.631 1.118-.621 1.14.686 1.379 2.003.366 1.992.817-.066 2.537-2.043 1.706-3.403 2.035-3.403.821 0-1.184-.942-1.237-4.612-.259-5.034 1.342-6.15 1.851-9.501 4.333-1.672 1.239-4.311 2.8-5.863 3.473a333.528 333.528 0 00-3.438 1.503c-.621.284-2.173 4.023-2.196 5.29-.022 1.25 2.031 2.119 3.616 1.529 3.168-1.18 3.3-1.141 8.319 2.376 3.595 2.519 3.89 2.631 7.712 2.957 5.887.501 8.802 5.426 5.698 9.622-.726.977-.9 1.66-.729 2.83.149 1.01-.072 2.277-.64 3.672-1.996 4.912 1.021 7.116 11.706 8.546 1.917.257 6.398-1.519 9.272-3.67.995-.745 1.989-1.356 2.21-1.356.734 0 3.754-2.955 4.353-4.26.358-.779 1.002-1.378 1.64-1.524.578-.133 1.39-.582 1.802-1 .414-.417 1.069-.758 1.456-.758s1.139-.279 1.67-.618c1.108-.709 1.832-.464 1.832.618 0 .956.747 1.382 1.465.836.689-.523 5.674-1.93 7.436-2.1 1.052-.102 1.484-.466 2.267-1.911.53-.984 1.171-2.054 1.424-2.382.252-.329.841-1.177 1.31-1.886 1.38-2.091 9.406-1.656 10.982.596.192.273.9.495 1.576.495.675 0 1.462.258 1.749.574.394.433.794.479 1.639.186.892-.31 1.301-.235 2.028.376 2.323 1.947 5.613 1.405 7.029-1.155 3.187-5.756 3.43-7.063 1.635-8.778-1.994-1.902-.165-2.947 3.026-1.727 1.383.528 1.618.525 2.225-.028 1.284-1.175 1.023-1.335-4.751-2.896-2.76-.747-4.927-.983-8.073-.879-1.396.045-2.464 1.772-1.652 2.669.397.435.337.73-.27 1.344-.892.899-1.705.535-2.111-.949-.2-.728-.489-.877-1.456-.752-.661.086-1.587-.103-2.055-.422-.768-.519-.897-.495-1.304.235-.814 1.467-1.834 1.762-3.349.97-.836-.436-1.518-.569-1.765-.343-.229.209-.898.227-1.56.039a85.333 85.333 0 00-2.956-.749c-1.222-.287-2.165-.864-2.952-1.809-.637-.764-1.392-1.393-1.678-1.398-1.46-.027-5.212-4.357-3.778-4.357.527 0 .576-1.282.069-1.807-.2-.206-.626-1.001-.947-1.765-.319-.765-1.231-2.06-2.023-2.88-1.028-1.062-1.442-1.876-1.442-2.832 0-.994-.283-1.511-1.086-1.994-.597-.357-1.086-.885-1.086-1.172 0-.288-.781-1.252-1.737-2.143-.955-.892-1.736-1.988-1.736-2.436 0-.711-.142-.766-1.115-.428-1.118.389-2.794-.065-2.794-.757 0-1.075 1.787-1.73 4.22-1.545 1.935.147 2.882.015 4.122-.577.929-.442 2.215-.712 3.04-.635 1.185.107 1.452-.015 1.561-.722.157-.998 1.259-1.985 2.438-2.184.458-.076.916-.371 1.02-.653.135-.373-.123-.443-.942-.255-1.393.32-1.538-.693-.368-2.571.869-1.395 1.494-1.396 1.853-.006.21.81.472.943 1.641.834.791-.074 1.391.056 1.391.297 0 .235-.379.428-.842.428-1.112 0-1.472.589-.712 1.165.416.316.697.329.891.044.153-.228 1.297-.415 2.541-.415 1.726 0 2.36-.169 2.688-.714 3.639-6.054 8.202-9.738 12.128-9.794 1.372-.02 2.9-.362 4.042-.907l1.839-.875.657.917c.863 1.204 5.133 1.049 6.471-.234.666-.64 1.223-.755 2.926-.605 2.414.211 3.495-.301 4.543-2.154.673-1.188.746-1.211 3.035-.966 2.399.258 3.606-.257 4.188-1.788.17-.442.365-.42 1.033.121 2.16 1.748 3.134-1.062.998-2.885-1.489-1.272-1.631-3.706-.392-6.714.317-.764 1.062-2.64 1.66-4.168.831-2.124 1.541-3.155 3.011-4.367 3.464-2.858 3.491-5.756.056-5.756-.763 0-2.565-.636-5.47-1.926-.767-.341-2.13-1.432-3.029-2.425-.897-.991-1.784-1.862-1.97-1.935-.187-.073-.338-.351-.338-.619 0-.267-.526-1.065-1.168-1.774-2.682-2.959-4.442-10.784-2.958-13.155.341-.546.633-1.351.649-1.788.055-1.458 1.163-2.38 2.276-1.892.541.238 1.344.538 1.785.668.44.13.903.593 1.027 1.028.299 1.046 1.272 1.009 1.904-.072 1.573-2.687 2.581-18.835 1.223-19.602-1.967-1.112 1.334-5.337 4.17-5.337 1.043 0 2.017-.18 2.166-.398.146-.218.634-.397 1.082-.397.458 0 .945-.383 1.118-.877.7-2.018 6.224-5.475 8.748-5.475.745 0 2.437.614 3.873 1.404 3.075 1.693 4.287 1.691 4.287-.014 0-.946-.291-1.323-1.407-1.834-3.704-1.691-5.41-6.26-3.637-9.742 1.68-3.296 2.053-3.82 2.938-4.128 1.414-.491 1.888-1.599 1.891-4.417.002-1.379.21-3.188.463-4.022.391-1.287.324-1.753-.437-3.09-.494-.865-.897-1.762-.897-1.993 0-.233-1.096-1.522-2.435-2.867-2.484-2.497-5.67-6.716-8.642-11.446-2.672-4.252-3.848-4.473-12.374-2.32a451.236 451.236 0 01-4.994 1.231c-.956.226-2.52.824-3.475 1.328-2.947 1.557-5.767 1.722-5.94.346-.098-.784-.544-1.296-1.52-1.741a32.044 32.044 0 01-2.599-1.362c-3.415-2.045-8.971-2.238-12.187-.424-6.077 3.429-9.776-.378-10.748-11.061-.158-1.734-.585-3.789-.948-4.565-.365-.775-.946-2.26-1.293-3.302-.59-1.775-2.849-4.659-3.649-4.659-1.587 0-2.68-.837-1.994-1.529.802-.81.878-1.352.328-2.346a48.222 48.222 0 01-1.08-2.179c-.827-1.765-1.077-1.791-6.551-.685-5.178 1.045-6.688 1.008-8.491-.207-.809-.545-1.822-.992-2.249-.992-1.343 0-3.069-3.137-4.701-8.536-1.209-3.997-.878-5.035 2.597-8.128 3.567-3.177 3.254-4.566-1.862-8.287-2.204-1.603-3.062-2.582-4.446-5.075-1.713-3.085-6.082-7.688-7.296-7.688-.324 0-1.531-.458-2.682-1.019-4.294-2.087-5.65-2.35-8.24-1.601zm-97.06 211.433c0 .634-1.727 2.036-2.186 1.777-.575-.325-.526-1.124.101-1.698.633-.576 2.085-.632 2.085-.079zm14.684 4.638c.142.913-1.308 1.957-2.099 1.51-.49-.277-.573-1.911-.118-2.327.63-.577 2.083-.04 2.217.817zm99.448 4.588c-.177 1.68-1.471 1.985-2.092.496-.547-1.317-.25-1.783 1.141-1.783.966 0 1.072.146.951 1.287zm-7.818 6.286c-.085.234-.342.426-.568.426-.227 0-.484-.192-.569-.426-.086-.235.171-.427.569-.427.397 0 .654.192.568.427zm22.45 1.958c.148.22-.044.509-.428.645-.831.29-1.294-.03-.895-.621.361-.534.971-.544 1.323-.024zm-131.37 5.777c0 .695-.239.969-.842.969-1.226 0-1.526-.73-.661-1.605.911-.92 1.503-.671 1.503.636zm5.476 1.118c.253.716-.41 1.42-1.354 1.432-1.395.02-3.41-2.894-2.547-3.683.435-.398 3.612 1.434 3.901 2.251z" fill="#E3E6EC"/><path fill-rule="evenodd" clip-rule="evenodd" d="M412.944 85.986c-.541.2-1.163.793-1.383 1.323-.219.528-.652 1.038-.96 1.131-.416.128-.268.758.587 2.487.886 1.788 1.054 2.535.743 3.285-.223.534-.463 2.403-.536 4.152-.105 2.516-.308 3.336-.971 3.923-.462.408-1.299 1.152-1.86 1.652-3.535 3.145-3.166 12.204.496 12.204 1.114 0 2.914 1.603 2.914 2.594 0 1.912-1.45 1.973-4.953.205-1.753-.885-3.517-1.609-3.919-1.609-1.898 0-7.776 3.703-8.308 5.235-.35 1.01-2.433 1.911-4.416 1.911-3.147 0-5.692 3.027-4.323 5.143.976 1.512 1.026 11.679.067 14.111-.345.873-.629 2.267-.632 3.095-.013 2.853-1.636 4.659-2.717 3.027-.302-.453-1.294-1.158-2.209-1.565l-1.66-.743-.619 1.355c-.341.745-.62 1.519-.62 1.72 0 .2-.292.876-.648 1.501-.815 1.428-.834 3.653-.049 5.595.333.823.93 2.502 1.326 3.73.397 1.229 1.199 2.644 1.785 3.146.584.501 1.061 1.113 1.061 1.358 0 1.265 5.473 5.582 8.035 6.336 6.647 1.957 7.34 3.231 3.441 6.33-2.328 1.85-2.793 2.607-4.592 7.478-1.776 4.812-1.85 6.768-.298 7.96.636.488 1.287 1.299 1.447 1.802.232.73.413.821.9.451.336-.254 1.091-.352 1.678-.217.713.164 1.189.049 1.43-.345.446-.73 5.198-2.988 6.287-2.988.439 0 1.6-.463 2.579-1.028 2.82-1.628 5.797-2.277 9.14-1.995 1.897.161 3.007.096 3.197-.184.16-.238 1.138-.763 2.172-1.168 1.116-.437 2.144-1.192 2.525-1.853.352-.613 1.031-1.414 1.508-1.778 1.709-1.307 1.747-4.901.07-6.484-2.672-2.518.259-5.567 5.207-5.416 1.315.041 2.599-.064 2.853-.232.9-.599 1.928-2.283 1.928-3.159 0-.96 1.134-1.712 2.584-1.712.497 0 1.989-.659 3.316-1.465 2.282-1.384 2.507-1.441 4.18-1.032 1.221.298 2.717.311 4.84.043 1.69-.216 3.612-.291 4.27-.171 3.049.557 8.488-3.261 10.961-7.694a144.912 144.912 0 012.365-4.084c.508-.826.923-1.908.923-2.405 0-.497.287-1.251.637-1.676.881-1.063.82-1.972-.206-3.038-8.036-8.356-8.98-10.382-6.729-14.436 1.634-2.944 1.794-4.271.635-5.258-1.324-1.128-.856-2.206.812-1.872 1.116.225 1.303.096 2.044-1.404.447-.908 1.576-2.21 2.508-2.895 4.448-3.262 5.236-5.63 3.013-9.055-1.491-2.299-1.628-2.759-1.628-5.476v-2.964l-1.743-.841c-.958-.463-2.6-.945-3.649-1.075-1.049-.128-2.455-.603-3.125-1.057-.671-.453-1.523-.823-1.892-.823-.828 0-6.484-3.807-8.265-5.563-2.062-2.032-3.619-2.456-7.87-2.14-4.084.302-7.93-.712-11.673-3.08-3.481-2.204-10.943-3.43-14.011-2.303z" fill="#BBB"/></svg>