<svg width="122" height="122" viewBox="0 0 122 122" fill="none" xmlns="http://www.w3.org/2000/svg">
<path d="M97.7538 53.9897L65.0425 115.919L60.5819 119.095L39.7656 111.155L30.8444 101.628L2.59375 58.7535L10.0281 38.1104L97.7538 53.9897Z" fill="white" stroke="white"/>
<path fill-rule="evenodd" clip-rule="evenodd" d="M31.6997 17.0833C17.5109 17.9792 5.22314 28.0069 1.3127 41.8818C-0.489744 48.2771 -0.434729 55.7727 1.46983 63.353C5.37868 78.9093 17.0015 95.0584 34.1505 108.761C43.6669 116.365 57.0975 122 61 122C65.4139 122 80.1227 115.29 90.2209 106.799C118.484 83.0333 129.197 53.8236 117.062 33.6104C106.27 15.631 82.9791 11.577 66.7666 24.856C63.155 27.8144 58.7395 27.8079 55.1584 24.8394C48.4639 19.2899 40.1721 16.5484 31.6997 17.0833ZM97.7339 20.6097C100.46 20.9786 100.517 21.119 98.2567 21.9111C83.5676 27.0602 75.3787 34.7702 75.3787 43.4514C75.3787 46.2039 76.1457 48.777 77.6679 51.1297C77.9751 51.6044 78.2039 52.01 78.1769 52.0312C77.6672 52.4278 58.599 64.6682 58.5575 64.6251C58.5246 64.5913 58.5689 64.0372 58.6564 63.3932C61.2465 44.2508 44.7031 37.2661 14.5607 44.776C11.3508 45.5758 11.2815 45.5245 13.4141 43.9269C28.9917 32.2541 45.3312 29.6927 60.3789 36.5651L61.1981 36.9393C61.86 37.2416 62.642 37.0736 63.1214 36.5261C73.2212 24.994 86.1601 19.0442 97.7339 20.6097ZM45.6942 46.9594C55.8285 49.6623 57.8209 63.2594 48.8764 68.6725C40.558 73.7065 29.9614 67.0087 30.9256 57.3255C31.6439 50.1081 38.7638 45.1108 45.6942 46.9594ZM92.5672 53.4469C92.5917 53.5234 92.1291 53.9436 91.5385 54.3802C73.7864 67.5143 63.6232 85.5128 62.5431 105.73C62.3808 108.773 62.5728 113.354 62.9611 115.699C63.0711 116.364 58.1553 116.489 55.3151 115.894C49.2844 114.631 40.4713 109.614 34.3183 103.941C34.0397 103.684 33.8992 103.31 33.9394 102.933L33.9961 102.403C35.0125 92.9084 26.0288 77.173 7.90582 56.7035C6.03609 54.5917 5.98583 54.5002 6.70221 54.5018C12.288 54.5136 24.6962 62.6793 45.7433 80.1941C46.0872 80.4802 46.598 80.433 46.8837 80.0887L47.4428 79.415C55.9694 69.1367 68.8956 60.3991 82.7266 55.5644C87.6332 53.8497 92.3693 52.8306 92.5672 53.4469ZM108.8 66.3748C109.788 68.8048 108.198 78.6758 105.967 83.9629C105.672 84.663 105.43 85.2761 105.43 85.3249C105.43 85.6642 103.599 89.0388 102.023 91.6042C97.08 99.6539 87.0902 108.061 78.9796 110.997C78.3764 111.215 77.3331 111.695 76.6614 112.063C72.5163 114.334 71.0289 114.101 69.4347 110.93C66.6174 105.326 66.3217 96.6605 68.7286 90.2495C69.8791 87.1853 72.5404 83.0032 73.3399 83.0032C73.6977 83.0032 73.6827 84.8396 73.3027 87.4607C72.6465 91.9886 73.6423 95.8851 76.1117 98.4513C78.4132 100.843 80.767 101.121 85.1445 99.5192C86.4106 99.0555 90.0654 96.6459 91.8702 95.0845C96.0253 91.4902 100.77 85.0763 103.083 79.9272C104.924 75.8297 106.968 70.4605 107.696 67.8105C108.256 65.7752 108.452 65.5189 108.8 66.3748ZM86.882 75.287C93.7621 76.9977 96.1685 85.9006 91.1404 91.0395C85.6155 96.6853 76.3876 93.0577 75.9023 85.0491C75.5204 78.7487 81.0457 73.8359 86.882 75.287Z" fill="#1346A0"/>
<path fill-rule="evenodd" clip-rule="evenodd" d="M59.44 0.137458C49.9315 1.661 46.1038 13.344 52.8346 20.299C59.1436 26.8171 70.1122 23.818 72.4771 14.9282C74.6128 6.89961 67.5122 -1.15582 59.44 0.137458ZM91.7197 20.4723C81.6187 21.2848 71.4959 26.9676 63.1245 36.5258L62.3166 37.4485L60.382 36.5649C45.3343 29.6925 28.9948 32.2538 13.4172 43.9267C11.2846 45.5243 11.3539 45.5755 14.5638 44.7757C44.7062 37.2658 61.2496 44.2505 58.6595 63.393C58.572 64.037 58.5277 64.5911 58.5606 64.6249C58.6021 64.668 77.6703 52.4276 78.18 52.031C78.207 52.0098 77.9782 51.6042 77.6711 51.1294C76.1488 48.7768 75.3818 46.2037 75.3818 43.4511C75.3818 34.77 83.5707 27.06 98.2598 21.9109C99.2723 21.5561 99.9356 21.2583 99.9356 21.1586C99.9356 20.6717 94.6886 20.2335 91.7197 20.4723ZM108.296 66.0227C108.224 66.0736 107.956 66.8778 107.7 67.8103C106.729 71.3411 103.631 79.1174 101.989 82.1433C98.014 89.4681 92.7646 95.1575 86.6746 98.7412C84.4993 100.021 81.1734 100.819 79.5032 100.462C75.0845 99.5186 72.3805 93.8459 73.3058 87.4605C73.6858 84.8393 73.7008 83.0029 73.3431 83.0029C72.5435 83.0029 69.8822 87.1851 68.7317 90.2492C66.3248 96.6603 66.6205 105.326 69.4378 110.93C71.032 114.101 72.5194 114.334 76.6646 112.063C77.3362 111.695 78.3795 111.215 78.9827 110.997C87.0933 108.061 97.0831 99.6537 102.027 91.6039C103.602 89.0385 105.433 85.6639 105.433 85.3247C105.433 85.2758 105.675 84.6628 105.97 83.9626C107.892 79.4083 108.974 73.996 108.982 68.8932C108.986 66.4621 108.796 65.6684 108.296 66.0227ZM83.7223 75.1054C78.3443 75.7489 74.6199 81.7121 76.2407 87.0837C78.3118 93.9488 86.2376 96.0525 91.1435 91.0393C97.23 84.8186 92.2319 74.0867 83.7223 75.1054Z" fill="#F9B33A"/>
</svg>
