<svg width="50" height="53" viewBox="0 0 50 53" fill="none" xmlns="http://www.w3.org/2000/svg">
<path d="M37.0502 16.6653L26.3252 35.7815L24.8627 36.7618L18.0377 34.311L15.1127 31.37L5.85022 18.1357L8.28772 11.7637L37.0502 16.6653Z" fill="white" stroke="white"/>
<path fill-rule="evenodd" clip-rule="evenodd" d="M15.3934 5.27323C10.7413 5.54975 6.7125 8.64507 5.43039 12.928C4.83943 14.902 4.85747 17.2158 5.48191 19.5556C6.7635 24.3575 10.5743 29.3424 16.1969 33.572C19.317 35.9192 23.7205 37.6586 25 37.6586C26.4472 37.6586 31.2697 35.5874 34.5806 32.9664C43.8473 25.6305 47.3596 16.6141 43.3811 10.3748C39.8425 4.82492 32.2063 3.57356 26.8907 7.67249C25.7066 8.58568 24.2589 8.58367 23.0847 7.66734C20.8898 5.95436 18.1712 5.1081 15.3934 5.27323ZM37.0439 6.36172C37.9377 6.47562 37.9563 6.51895 37.2153 6.76344C32.3992 8.35286 29.7143 10.7328 29.7143 13.4124C29.7143 14.2621 29.9658 15.0564 30.4649 15.7826C30.5656 15.9291 30.6406 16.0543 30.6318 16.0608C30.4646 16.1833 24.2128 19.9616 24.1992 19.9483C24.1884 19.9379 24.2029 19.7668 24.2316 19.5681C25.0808 13.6592 19.6568 11.5032 9.774 13.8213C8.72158 14.0682 8.69887 14.0524 9.39806 13.5592C14.5055 9.95609 19.8627 9.16546 24.7964 11.2868L25.0734 11.4059C25.2876 11.4981 25.5367 11.4456 25.6955 11.2748C29.007 7.71506 33.2492 5.87851 37.0439 6.36172ZM19.9817 14.4953C23.3044 15.3296 23.9577 19.5267 21.025 21.1977C18.2977 22.7515 14.8234 20.684 15.1395 17.6951C15.3751 15.4672 17.7095 13.9247 19.9817 14.4953ZM35.3499 16.4978C35.3579 16.5215 35.2062 16.6512 35.0126 16.7859C29.1923 20.8401 25.8601 26.3959 25.5059 32.6365C25.4527 33.5757 25.5157 34.9897 25.643 35.7136C25.679 35.9188 24.0673 35.9576 23.1361 35.7739C21.1588 35.384 18.2693 33.8353 16.2519 32.0842C16.161 32.0053 16.1148 31.8867 16.1284 31.7671L16.1463 31.6094C16.4795 28.6787 13.534 23.8216 7.59207 17.5031C6.97905 16.8512 6.96257 16.823 7.19745 16.8235C9.02887 16.8271 13.0971 19.3477 19.9978 24.7541C20.1125 24.8439 20.2773 24.8287 20.3736 24.7194L20.555 24.5136C23.3506 21.3409 27.5887 18.6438 32.1235 17.1515C33.7322 16.6222 35.285 16.3076 35.3499 16.4978ZM40.6722 20.4884C40.9961 21.2385 40.4747 24.2854 39.7433 25.9174C39.6464 26.1335 39.5671 26.3228 39.5671 26.3379C39.5671 26.4426 38.9669 27.4842 38.4503 28.2761C36.8295 30.7609 33.5542 33.3559 30.895 34.2622C30.6972 34.3295 30.3551 34.4777 30.1349 34.5913C28.7758 35.2924 28.2882 35.2205 27.7655 34.2416C26.8418 32.5118 26.7448 29.8369 27.534 27.858C27.9112 26.9121 28.7838 25.6212 29.0459 25.6212C29.1632 25.6212 29.1583 26.188 29.0337 26.9971C28.8185 28.3948 29.145 29.5976 29.9547 30.3897C30.7093 31.1281 31.481 31.2139 32.9162 30.7193C33.3314 30.5762 34.5296 29.8324 35.1214 29.3504C36.4837 28.241 38.0393 26.2611 38.7977 24.6717C39.4013 23.4069 40.0715 21.7496 40.3103 20.9316C40.4937 20.3033 40.5582 20.2242 40.6722 20.4884ZM33.4859 23.2394C35.7417 23.7674 36.5307 26.5156 34.8821 28.1018C33.0707 29.8446 30.0451 28.7248 29.886 26.2527C29.7608 24.3079 31.5723 22.7915 33.4859 23.2394Z" fill="#1346A0"/>
<path fill-rule="evenodd" clip-rule="evenodd" d="M24.4878 0.0424302C21.3703 0.512713 20.1153 4.11901 22.3221 6.26585C24.3906 8.27783 27.9869 7.35209 28.7622 4.608C29.4625 2.12976 27.1344 -0.356776 24.4878 0.0424302ZM35.0713 6.31935C31.7595 6.57012 28.4406 8.3243 25.6958 11.2747L25.431 11.5595L24.7967 11.2868C19.863 9.1654 14.5058 9.95603 9.39835 13.5592C8.69916 14.0523 8.72187 14.0681 9.77429 13.8213C19.6571 11.5031 25.0811 13.6591 24.2319 19.568C24.2032 19.7668 24.1887 19.9378 24.1995 19.9482C24.2131 19.9616 30.4649 16.1832 30.6321 16.0608C30.6409 16.0543 30.5659 15.9291 30.4652 15.7825C29.9661 15.0563 29.7146 14.262 29.7146 13.4124C29.7146 10.7327 32.3995 8.3528 37.2156 6.76339C37.5476 6.65388 37.7651 6.56196 37.7651 6.5312C37.7651 6.38088 36.0447 6.24564 35.0713 6.31935ZM40.506 20.3797C40.4825 20.3954 40.3946 20.6437 40.3106 20.9315C39.9925 22.0214 38.9767 24.4218 38.4383 25.3558C37.135 27.6168 35.4139 29.373 33.4172 30.4792C32.704 30.8742 31.6135 31.1206 31.0659 31.0105C29.6172 30.7192 28.7306 28.9681 29.034 26.9971C29.1586 26.188 29.1635 25.6211 29.0462 25.6211C28.784 25.6211 27.9115 26.9121 27.5343 27.8579C26.7451 29.8369 26.8421 32.5117 27.7658 34.2416C28.2885 35.2204 28.7761 35.2924 30.1352 34.5913C30.3554 34.4776 30.6975 34.3295 30.8953 34.2622C33.5545 33.3559 36.8298 30.7608 38.4506 28.2761C38.9672 27.4842 39.5674 26.4425 39.5674 26.3378C39.5674 26.3227 39.6467 26.1335 39.7436 25.9174C40.3737 24.5116 40.7283 22.8409 40.7312 21.2658C40.7325 20.5153 40.6702 20.2703 40.506 20.3797ZM32.4492 23.1833C30.6859 23.382 29.4648 25.2227 29.9962 26.8808C30.6753 28.9999 33.2739 29.6492 34.8824 28.1018C36.878 26.1816 35.2392 22.8689 32.4492 23.1833Z" fill="#F9B33A"/>
<path fill-rule="evenodd" clip-rule="evenodd" d="M28.8486 43.2266C28.5528 43.2896 28.2223 43.4257 28.096 43.5367C28.0615 43.567 28.0072 43.6089 27.9753 43.6299C27.8163 43.735 27.6014 44.1251 27.5134 44.4686C27.439 44.7584 27.4339 45.3394 27.5051 45.391C27.5534 45.4259 27.5532 45.4279 27.4991 45.5384C27.4054 45.7293 27.2543 45.7822 26.708 45.8154C26.546 45.8252 26.43 45.8437 26.4146 45.8621C26.3649 45.9215 26.3949 46.9037 26.4465 46.9135C26.4766 46.9192 26.4905 46.9061 26.4905 46.8718C26.4905 46.7969 26.5275 46.788 26.6202 46.8412C26.67 46.8697 26.7999 46.9007 26.942 46.918C27.4753 46.9829 27.4542 46.861 27.4343 49.7692L27.42 51.8615L27.9023 51.8787C28.1675 51.888 28.486 51.892 28.6102 51.8875L28.8359 51.8794L28.8376 49.691C28.84 46.6782 28.7778 46.9137 29.576 46.8934C30.0098 46.8823 30.0774 46.8749 30.172 46.828L30.2789 46.7751L30.2943 46.8355C30.3185 46.9313 30.379 46.8256 30.3966 46.6567C30.4148 46.4828 30.3558 45.9044 30.3159 45.8649C30.2952 45.8443 30.0647 45.8252 29.5879 45.8045C29.2042 45.7879 28.8865 45.7706 28.8818 45.7658C28.8555 45.7399 28.8722 44.9264 28.9011 44.8282C29.0089 44.4607 29.3404 44.2823 29.9154 44.2823C30.0391 44.2823 30.1094 44.2699 30.1511 44.2409L30.2107 44.1996L30.1946 43.7762C30.1857 43.5432 30.1699 43.3443 30.1594 43.3342C30.0534 43.2314 29.168 43.1587 28.8486 43.2266ZM41.9878 43.2497C41.2922 43.4395 41.1639 44.4113 41.798 44.688C42.0122 44.7815 42.0642 44.792 42.3069 44.7905C43.038 44.7855 43.3217 44.1829 42.9001 43.5304C42.7366 43.2772 42.3373 43.1544 41.9878 43.2497ZM48.5347 44.8854L48.5283 46.4085L48.4643 46.4158C48.416 46.4214 48.3579 46.3859 48.226 46.27C47.7394 45.8425 47.329 45.6988 46.6002 45.7006C46.1095 45.7018 45.7563 45.7681 45.7563 45.8588C45.7563 45.881 45.7072 45.8962 45.6057 45.9053C45.0979 45.951 44.3938 46.8688 44.1799 47.7637C44.0372 48.3607 44.0357 49.9771 44.1778 49.9771C44.1905 49.9771 44.2013 49.8678 44.2017 49.7346C44.203 49.3334 44.2598 49.5179 44.2662 49.9439C44.2752 50.5466 44.4668 50.95 44.9492 51.382C45.9798 52.305 47.1645 52.2499 48.2435 51.2291C48.5245 50.9633 48.5733 51.0037 48.5909 51.5163L48.6035 51.8794L49.3018 51.886L50 51.8926L49.9846 47.845C49.9762 45.6187 49.9631 43.7068 49.9554 43.5961L49.9418 43.3946L49.5257 43.3784C49.297 43.3694 48.9818 43.3621 48.8254 43.3621H48.5412L48.5347 44.8854ZM3.32199 43.4354C3.09186 43.4624 3.06477 43.5009 2.83915 44.1207C2.76946 44.3121 2.67719 44.5638 2.634 44.6802C2.5908 44.7964 2.53872 44.9419 2.51825 45.0034C2.49778 45.065 2.47129 45.1377 2.45955 45.1651C2.43968 45.2114 2.41184 45.2857 2.28285 45.6375C2.25515 45.7127 2.2106 45.8331 2.18381 45.9049C2.15702 45.9767 2.08251 46.1864 2.01839 46.3712C1.87586 46.7816 1.70653 47.2652 1.61788 47.5151C1.55225 47.7003 1.53569 47.7439 1.48587 47.8632C1.47173 47.8974 1.44644 47.9645 1.42988 48.0124C1.41333 48.0603 1.39075 48.1218 1.37961 48.1493C1.36862 48.1766 1.33687 48.2606 1.30932 48.3358C1.28178 48.411 1.24008 48.5229 1.21676 48.5844C1.19343 48.646 1.11802 48.8529 1.04908 49.0445C0.980298 49.2359 0.885625 49.4947 0.838965 49.6194C0.792306 49.7441 0.735712 49.9008 0.713286 49.9677C0.690859 50.0343 0.662262 50.0996 0.649769 50.1125C0.637277 50.1255 0.627192 50.1509 0.627192 50.1688C0.627192 50.1867 0.605217 50.2488 0.578425 50.3068C0.551784 50.3647 0.501663 50.4961 0.467346 50.5987C0.258282 51.2228 0.0877496 51.6421 0.0282966 51.6785C0.0127936 51.688 0 51.722 0 51.7541C0 51.8778 0.264453 51.9065 1.1579 51.8799L1.77607 51.8615L1.9019 51.4726C1.97113 51.2586 2.08071 50.9157 2.14528 50.7106C2.41545 49.852 2.29037 49.9019 4.16713 49.9038C5.82715 49.9056 5.7388 49.8962 5.80638 50.0782C5.83453 50.1542 5.88239 50.2553 5.91294 50.3031C5.94726 50.3569 5.96291 50.4105 5.95388 50.4444C5.93928 50.4999 5.98399 50.6368 6.2811 51.4442L6.44125 51.8794L7.10261 51.8871C7.91072 51.8963 8.12776 51.8817 8.12776 51.818C8.12776 51.7786 7.98447 51.3407 7.92802 51.208C7.91643 51.1806 7.88437 51.0967 7.85668 51.0215C7.82914 50.9462 7.77059 50.7895 7.72634 50.6733C7.68223 50.557 7.62474 50.4032 7.5984 50.3314C7.57221 50.2595 7.52886 50.1421 7.50207 50.0703C7.47543 49.9984 7.38979 49.7662 7.31212 49.5542C7.23431 49.3423 7.14896 49.11 7.12232 49.0382C7.09583 48.9665 7.05158 48.8461 7.02404 48.7709C6.90092 48.4354 6.8672 48.3446 6.84598 48.2922C6.83349 48.2615 6.81347 48.211 6.80158 48.1803C6.78969 48.1496 6.76861 48.0964 6.75477 48.0621C6.74092 48.028 6.71834 47.972 6.70465 47.9378C6.6908 47.9037 6.66717 47.8477 6.65227 47.8135C6.63722 47.7794 6.60094 47.6675 6.57144 47.5648C6.42033 47.039 6.11734 46.3133 5.99497 46.1841C5.96758 46.1553 5.9453 46.0977 5.9453 46.0562C5.9453 46.0147 5.93522 45.9483 5.92288 45.9086C5.91053 45.8689 5.87546 45.7525 5.84521 45.65C5.726 45.2478 5.59536 44.911 5.50746 44.7796C5.47555 44.7317 5.44198 44.6421 5.4331 44.5807C5.41173 44.4331 5.26649 43.9794 5.14261 43.673C5.13162 43.6456 5.10875 43.587 5.09189 43.5425C5.06239 43.4648 5.05562 43.4616 4.92 43.4598C4.74827 43.4576 4.21319 43.4427 3.78799 43.428C3.6155 43.4222 3.40583 43.4255 3.32199 43.4354ZM35.7972 43.4586C35.6828 43.4788 35.5443 43.7321 35.5261 43.9545C35.5198 44.0322 35.5063 44.1013 35.4962 44.1081C35.4647 44.1293 35.3303 44.4106 35.2704 44.5807C35.2391 44.6696 35.1699 44.843 35.1166 44.9661C35.0386 45.1463 35.0196 45.2202 35.0196 45.3454C35.0196 45.4794 35.0133 45.5008 34.9736 45.5008C34.915 45.5008 34.8834 45.564 34.7433 45.9608C34.6331 46.2728 34.5452 46.5153 34.5002 46.6323C34.4791 46.687 34.4528 46.7597 34.442 46.7939C34.431 46.8282 34.3863 46.9511 34.3426 47.0675C34.1462 47.5911 34.0162 48.0378 34.0162 48.1896C34.0162 48.2583 34.004 48.2864 33.9698 48.2973C33.848 48.3355 33.5145 49.2522 33.5145 49.5484C33.5145 49.6424 33.5037 49.6843 33.4769 49.6945C33.3748 49.7332 32.5863 51.614 32.5863 51.8187C32.5863 51.8814 32.7275 51.8918 33.5779 51.8918H34.3368L34.3795 51.7862C34.4673 51.5691 34.4949 51.4652 34.5044 51.3177C34.5102 51.2294 34.5302 51.1488 34.5523 51.1245C34.6036 51.0684 34.718 50.795 34.8298 50.462C34.8803 50.3114 34.9311 50.166 34.943 50.1386C34.9548 50.1113 34.9775 50.0539 34.9938 50.0112C35.0347 49.9027 35.0407 49.9025 36.5924 49.9025C38.0359 49.9025 38.088 49.9065 38.2406 50.0312C38.3773 50.1428 38.4187 50.2489 38.857 51.6094L38.9383 51.8615L39.523 51.8797C40.5852 51.9126 40.7252 51.8923 40.6668 51.7143C40.6517 51.6683 40.6048 51.5243 40.5625 51.3945C40.5202 51.2646 40.4758 51.1358 40.4637 51.1085C40.4517 51.0812 40.3451 50.8132 40.2267 50.5132C40.1084 50.2131 39.9866 49.9414 39.9564 49.9095C39.918 49.869 39.9029 49.8252 39.907 49.7661C39.9101 49.7194 39.8886 49.6273 39.8593 49.5617C39.8299 49.496 39.7964 49.4199 39.7848 49.3926C39.7545 49.3216 39.5826 48.8574 39.5591 48.7834C39.5483 48.7492 39.5041 48.626 39.4607 48.5097C39.3809 48.2959 39.2894 48.0399 39.123 47.5648C39.0725 47.4213 39.0215 47.2813 39.0096 47.254C38.9345 47.0832 38.6856 46.4295 38.6165 46.222C38.596 46.1603 38.5692 46.0877 38.557 46.0604C38.5448 46.0329 38.512 45.9434 38.484 45.8613C38.4562 45.7793 38.3757 45.5499 38.3052 45.3516C38.2346 45.1532 38.1452 44.896 38.1062 44.7796C38.0356 44.569 37.8707 44.1157 37.8302 44.0211C37.8185 43.9938 37.7649 43.8596 37.711 43.7227L37.6132 43.474L37.4389 43.4585C37.2141 43.4383 35.9122 43.4385 35.7972 43.4586ZM14.9009 44.0972C14.7174 44.1363 14.2972 44.2705 14.1923 44.3234C14.1348 44.3522 14.1236 44.3737 14.1253 44.4507L14.1274 44.5434L14.1629 44.4625C14.1936 44.393 14.2111 44.3818 14.2886 44.3818H14.3786L14.3154 44.4562C14.2806 44.4971 14.2449 44.5531 14.2362 44.5805C14.2188 44.6348 14.1486 44.6498 14.1479 44.5993C14.1477 44.5786 14.1394 44.5807 14.1232 44.6056C14.1098 44.626 14.0988 44.7906 14.0985 44.9712C14.0977 45.6879 14.0368 45.7806 13.5588 45.7931C13.3932 45.7975 13.2324 45.8064 13.2013 45.813L13.1448 45.8251V46.3841V46.9431H13.4985C14.1137 46.9431 14.0982 46.8861 14.0982 49.1452C14.0982 50.4963 14.1203 51.09 14.1763 51.239C14.2011 51.3056 14.291 51.3142 14.3045 51.2514C14.3097 51.2276 14.3151 51.2596 14.3166 51.3229C14.3214 51.5263 14.4736 51.7426 14.6119 51.7426C14.6774 51.7426 14.6978 51.7546 14.7093 51.7998C14.7493 51.9579 15.2219 52.0291 16.0815 52.0064C17.0281 51.9814 16.9921 52.0106 17.0036 51.2568L17.0117 50.7249L16.9534 50.7123C16.9214 50.7055 16.675 50.6959 16.406 50.6912C15.498 50.6749 15.4996 50.6786 15.4939 48.5629L15.4905 47.254L15.5476 47.1402C15.6423 46.9516 15.6786 46.9431 16.3965 46.9431H17.0126L16.9947 46.4147C16.9849 46.1241 16.9668 45.8737 16.9547 45.8585C16.9399 45.8403 16.7373 45.8269 16.36 45.8191C15.4597 45.8007 15.4984 45.8457 15.4825 44.8006L15.4712 44.0585L15.2675 44.0604C15.1556 44.0616 14.9906 44.078 14.9009 44.0972ZM27.6193 44.605C27.6193 44.7008 27.596 44.7548 27.5546 44.7548C27.5281 44.7548 27.5259 44.7402 27.5447 44.6909C27.5582 44.6559 27.5692 44.5993 27.5692 44.5652C27.5692 44.5301 27.58 44.5098 27.5942 44.5185C27.608 44.527 27.6193 44.5659 27.6193 44.605ZM49.8379 44.9098C49.8319 44.9409 49.8268 44.9213 49.8265 44.8667C49.8262 44.8119 49.8311 44.7866 49.8374 44.8105C49.8436 44.8342 49.8439 44.8789 49.8379 44.9098ZM4.13296 45.2708C4.20145 45.3694 4.25353 45.4914 4.30304 45.6687C4.34398 45.8152 4.39004 45.875 4.39004 45.7818C4.39004 45.6988 4.43249 45.7881 4.46349 45.9359C4.52084 46.2105 4.77987 47.0469 4.92933 47.4405C4.95266 47.502 4.99436 47.6139 5.02205 47.6891C5.04959 47.7643 5.08135 47.8483 5.09249 47.8756C5.28109 48.3388 5.29839 48.4174 5.22118 48.4583C5.16504 48.4881 3.42434 48.5454 3.26179 48.5229C2.89634 48.4721 2.87121 48.4068 3.03647 47.9378C3.16757 47.5659 3.29535 47.1831 3.33539 47.0426C3.353 46.981 3.37723 46.8983 3.38943 46.8586C3.40162 46.8189 3.4117 46.7378 3.4117 46.6782C3.4117 46.588 3.41968 46.5701 3.46017 46.5701C3.4987 46.5701 3.52143 46.5296 3.57155 46.3718C3.68263 46.0219 4.02053 45.2024 4.05364 45.2024C4.07125 45.2024 4.10693 45.2332 4.13296 45.2708ZM36.7694 45.414C36.8004 45.4613 36.8258 45.5149 36.8258 45.5328C36.8258 45.5507 36.8351 45.576 36.8464 45.589C36.8579 45.602 36.8826 45.663 36.9012 45.7246C36.9199 45.7861 36.942 45.8477 36.9504 45.8613C36.9589 45.875 36.9802 45.931 36.9978 45.9858C37.0153 46.0404 37.0395 46.1075 37.0514 46.135C37.1124 46.2751 37.556 47.5632 37.625 47.801C37.6458 47.872 37.6658 47.946 37.7268 48.177C37.7674 48.3304 37.7617 48.4766 37.7143 48.4947C37.5936 48.5406 35.5732 48.5099 35.5473 48.4617C35.5084 48.3898 35.5132 47.9875 35.5529 47.9875C35.6194 47.9875 35.7742 47.6121 35.9218 47.0923C35.9393 47.0308 35.9637 46.9477 35.976 46.9077C35.9883 46.8676 36.0055 46.7594 36.0141 46.6672C36.0266 46.5344 36.0392 46.4971 36.0752 46.4878C36.1258 46.4747 36.1626 46.3965 36.2748 46.0645C36.3172 45.9391 36.3619 45.8142 36.3744 45.7867C36.3868 45.7594 36.4301 45.6627 36.4704 45.572C36.5952 45.2922 36.6654 45.2552 36.7694 45.414ZM11.8781 45.6985C11.4753 45.8037 11.3316 45.8933 10.8492 46.3395C10.3572 46.7948 10.3864 46.8009 10.3859 46.2418L10.3855 45.8512L10.3039 45.8389C10.0418 45.7993 8.98252 45.8039 8.97094 45.8446C8.95137 45.9129 8.92247 51.6749 8.94128 51.7598C8.95092 51.8028 8.97771 51.8466 9.00104 51.8574C9.08668 51.8968 10.377 51.8997 10.3922 51.8606C10.3998 51.8411 10.4129 51.4457 10.4214 50.982C10.4636 48.6876 10.5032 48.2407 10.6906 47.948C10.9899 47.4801 11.533 47.1918 12.1152 47.1918C12.4439 47.1918 12.5059 47.0784 12.503 46.4831C12.4993 45.7206 12.3777 45.5681 11.8781 45.6985ZM22.3084 45.7005C21.6885 45.7781 20.8713 46.1408 20.8713 46.3383C20.8713 46.3877 20.8585 46.3961 20.7834 46.3961C20.7068 46.3961 20.6957 46.4038 20.6957 46.4576C20.6957 46.5002 20.6735 46.5305 20.6236 46.556C20.475 46.6321 20.1951 47.0427 20.1943 47.1855C20.1942 47.2164 20.1829 47.2415 20.1692 47.2415C20.0724 47.2415 19.8815 47.7404 19.779 48.2612C19.6996 48.6658 19.7521 49.7036 19.8701 50.0578C19.9362 50.2561 19.9488 50.2755 20.012 50.2755C20.0683 50.2755 20.0733 50.2831 20.0598 50.3501C20.0375 50.46 20.081 50.5563 20.1437 50.5366C20.1854 50.5235 20.194 50.5321 20.194 50.5873C20.194 50.8568 20.8585 51.5345 21.378 51.7948C21.9758 52.0943 23.6896 52.0406 24.4027 51.6999C24.5235 51.6422 24.6342 51.5345 24.6342 51.4745C24.6342 51.4612 24.6682 51.4436 24.7097 51.4354C24.9555 51.3868 25.5933 50.5146 25.7218 50.0517C25.8819 49.4741 25.922 48.6024 25.8139 48.0409C25.7397 47.6549 25.44 46.9661 25.3234 46.9134C25.2806 46.8941 25.2612 46.8652 25.2611 46.821C25.2603 46.6506 24.7042 46.1602 24.308 45.9807C23.7934 45.7473 22.9161 45.6244 22.3084 45.7005ZM49.8382 45.917C49.8323 45.9547 49.8275 45.9298 49.8274 45.8613C49.8271 45.793 49.8319 45.7621 49.8377 45.7927C49.8438 45.8233 49.8439 45.8792 49.8382 45.917ZM41.5637 45.8771L41.5101 45.9301L41.5214 48.8858C41.5277 50.5114 41.5392 51.8477 41.5468 51.8553C41.5547 51.863 41.8756 51.8715 42.2601 51.8744L42.9593 51.8794L42.9526 50.064C42.9406 46.6914 42.9289 45.8688 42.892 45.8457C42.808 45.7928 41.6203 45.8209 41.5637 45.8771ZM9.52799 45.8953C9.56396 45.918 9.37251 45.9479 9.18918 45.9482C9.08036 45.9485 9.02181 45.9112 9.09947 45.891C9.17804 45.8707 9.49397 45.8739 9.52799 45.8953ZM42.2399 45.8955C42.2601 45.9082 42.1856 45.9212 42.0518 45.9282C41.7851 45.9423 41.5956 45.9274 41.6454 45.8961C41.6897 45.8685 42.196 45.8679 42.2399 45.8955ZM16.538 45.9162C16.5072 45.922 16.4507 45.9222 16.4127 45.9165C16.3746 45.9109 16.3997 45.9059 16.4688 45.9058C16.5377 45.9056 16.5689 45.9103 16.538 45.9162ZM30.084 45.9162C30.053 45.9222 30.0021 45.9222 29.9711 45.9162C29.9401 45.9103 29.9655 45.9055 30.0275 45.9055C30.0896 45.9055 30.115 45.9103 30.084 45.9162ZM47.3079 46.9216C47.801 47.0068 48.2847 47.5327 48.4139 48.1243C48.4318 48.2064 48.4563 48.3126 48.4684 48.3605C48.587 48.832 48.4271 49.6737 48.1378 50.1013C47.9608 50.3628 47.75 50.5226 47.4122 50.651C46.9536 50.8253 46.2861 50.5619 45.9591 50.0778C45.8001 49.842 45.7439 49.705 45.645 49.3108C45.5365 48.8778 45.5826 48.1998 45.7427 47.8756C45.7805 47.7988 45.8058 47.7143 45.7989 47.6878C45.7906 47.6569 45.8059 47.6236 45.8413 47.5959C45.8717 47.572 45.9533 47.4796 46.0227 47.3907C46.0921 47.3018 46.1989 47.1927 46.2599 47.1481C46.321 47.1035 46.4047 47.0365 46.4461 46.9989C46.5666 46.89 46.9336 46.857 47.3079 46.9216ZM49.8382 47.0609C49.8323 47.0987 49.8275 47.0736 49.8274 47.0053C49.8271 46.937 49.8319 46.9059 49.8377 46.9365C49.8438 46.9671 49.8439 47.023 49.8382 47.0609ZM23.2996 46.9932C23.7708 47.1464 24.1254 47.5481 24.2547 48.0747C24.3708 48.5473 24.3336 49.7346 24.1984 49.8686C24.1613 49.9054 24.0956 50.0011 24.0526 50.0812C23.5476 51.0203 22.0319 50.972 21.5673 50.0018C21.2524 49.3447 21.2509 48.2679 21.564 47.653C21.6125 47.558 21.6468 47.4599 21.6403 47.4355C21.6332 47.4085 21.6423 47.3907 21.663 47.3907C21.7028 47.3907 21.8128 47.3316 21.975 47.2231C22.1898 47.0794 22.2726 47.0432 22.552 46.9705C22.7214 46.9264 23.1326 46.9389 23.2996 46.9932ZM44.2665 48.203C44.2568 48.4034 44.2416 48.6188 44.2325 48.6816L44.2159 48.7958L44.1975 48.6963C44.1632 48.5118 44.2213 47.8383 44.2714 47.8383C44.2782 47.8383 44.276 48.0024 44.2665 48.203ZM10.4451 48.1567C10.4518 48.1676 10.4416 48.3383 10.4222 48.5359C10.4028 48.7336 10.3858 49.0184 10.3843 49.1688C10.3828 49.3192 10.3673 49.6325 10.3499 49.8651L10.3183 50.2879L10.308 49.8153C10.292 49.0861 10.3226 48.1849 10.3641 48.1588C10.4068 48.132 10.4293 48.1314 10.4451 48.1567ZM49.8385 48.8511C49.8331 48.9028 49.8284 48.8667 49.8284 48.7709C49.8283 48.6752 49.8326 48.633 49.8382 48.6772C49.8438 48.7212 49.8439 48.7995 49.8385 48.8511ZM49.8386 50.8909C49.8334 50.9559 49.8292 50.9027 49.8292 50.7728C49.8292 50.6428 49.8334 50.5897 49.8386 50.6546C49.8438 50.7197 49.8438 50.8259 49.8386 50.8909Z" fill="#1346A0"/>
</svg>
