<svg width="468" height="278" viewBox="0 0 468 278" fill="none" xmlns="http://www.w3.org/2000/svg">
<path fill-rule="evenodd" clip-rule="evenodd" d="M292.767 0.381633C290.73 0.970074 288.453 2.01717 286.838 3.10852C285.993 3.68073 285.244 3.83412 284.017 3.68811C283.097 3.57898 280.535 3.27075 278.322 3.00233C271.373 2.16023 269.871 2.53335 266.372 5.96961C261.974 10.2863 259.534 10.6653 252.01 8.19654C247.944 6.86333 247.323 6.84268 241.74 7.85734C233.462 9.3631 222.288 17.1928 220.058 23.0491C218.679 26.6742 218.693 27.1299 220.278 30.1797C221.946 33.3933 222.256 36.3237 221.087 37.8486C219.861 39.4488 217.856 38.3516 217.856 36.0804C217.856 35.3681 217.485 34.5776 216.941 34.1278C216.439 33.7119 215.541 32.6131 214.946 31.684C213.855 29.9821 212.927 29.5441 212.511 30.5352C212.275 31.0956 210.34 31.6516 208.084 31.8064C207.368 31.8551 205.133 32.01 203.12 32.1486C201.106 32.2872 199.243 32.563 198.98 32.7636C198.717 32.9641 197.191 33.0939 195.591 33.0526C193.066 32.9892 192.595 33.091 192.035 33.821C190.459 35.8783 187.497 34.8932 187.172 32.2032C186.545 27.006 181.687 25.2525 177.862 28.8436C175.753 30.8227 175.682 30.8537 174.642 30.2299C173.812 29.7329 173.194 29.6709 171.847 29.9482C170.6 30.2033 169.903 30.162 169.36 29.7978C168.403 29.1577 163.75 29.4866 162.398 30.2889C160.951 31.1487 159.709 30.5588 158.778 28.5707C157.831 26.5518 156.958 26.3512 155.066 27.7139C152.278 29.7211 144.489 29.168 143.543 26.8954C143.254 26.2037 142.945 26.0208 142.395 26.2244C139.197 27.4027 134.768 26.0946 132.521 23.3072C130.659 20.9977 129.154 20.4978 127.481 21.6289L126.181 22.5064L124.28 21.4873C123.233 20.9269 121.821 20.4697 121.141 20.4697C120.46 20.4697 119.49 20.2057 118.987 19.8828C118.482 19.5598 116.925 19.1911 115.525 19.0628C111.753 18.7192 111.209 18.5732 109.864 17.5511C109.188 17.0379 107.855 16.5129 106.898 16.3846C105.943 16.2548 103.305 15.8492 101.035 15.4805C98.7671 15.1133 95.8632 14.8375 94.5838 14.87C93.3044 14.9009 91.0571 14.6694 89.5906 14.3523C83.9665 13.143 74.1301 12.9586 72.3748 14.0323C71.7456 14.4157 70.3743 14.7077 69.1175 14.724C67.9237 14.7402 65.4795 14.9835 63.6887 15.2637C61.8979 15.5439 59.4586 15.892 58.2712 16.0365C56.1368 16.2976 56.0932 16.33 54.8655 18.6823C52.7198 22.7955 48.6913 24.1228 44.7128 22.0301C42.6994 20.9712 41.5362 21.1349 39.3873 22.7778L37.8869 23.9266L39.0614 24.9236C40.4585 26.1064 40.4892 26.3984 39.4228 28.3259C38.0627 30.78 39.1582 36.3989 42.1654 42.4116C42.7769 43.6342 43.2786 44.7403 43.2786 44.8716C43.2786 45.0014 44.4225 46.8449 45.8228 48.9656C48.9752 53.7439 49.2011 54.3604 48.2783 55.6493C47.612 56.5799 47.6104 56.7835 48.2734 58.509C50.3175 63.8241 49.8351 66.1513 46.3843 67.6158C43.7287 68.7425 39.626 72.0313 36.806 75.295C35.5589 76.7374 33.2438 79.0602 31.6627 80.4553C26.7179 84.8192 24.5802 86.9237 23.8833 88.1183C23.5122 88.7539 22.3603 90.3821 21.3229 91.7389C20.2856 93.0942 18.8287 95.3448 18.0866 96.737C17.3429 98.1307 16.5507 99.5804 16.3265 99.9594C14.4502 103.129 14.2388 105.714 15.6924 107.72C17.1751 109.77 17.1928 114.974 15.7263 117.813C14.7132 119.773 14.8406 120.71 16.0619 120.281C16.9686 119.963 16.9783 120.27 16.1006 121.496C15.5956 122.199 14.8729 122.519 13.3854 122.696C9.46987 123.164 8.59062 124.078 7.03699 129.293C6.54331 130.951 5.82861 132.055 4.27015 133.574C-0.122924 137.851 -1.08124 141.11 1.18709 144.053C1.97439 145.073 2.97303 146.013 3.4054 146.138C3.83939 146.263 4.19271 146.7 4.19271 147.108C4.19271 148.209 7.23058 150.671 8.59223 150.676C10.2088 150.68 11.0332 151.668 10.1733 152.572C9.13915 153.658 9.7151 154.252 11.8043 154.252C12.8449 154.252 13.8178 154.431 13.9646 154.649C14.113 154.867 14.8132 155.046 15.5231 155.046C17.159 155.046 17.4542 155.754 16.5975 157.628C15.7279 159.531 15.6731 159.413 17.4445 159.413C18.2834 159.413 19.3837 159.637 19.8903 159.91C20.626 160.306 20.8486 160.306 21.0051 159.91C21.1277 159.603 22.0263 159.413 23.3509 159.413C25.637 159.413 28.5135 158.539 28.5135 157.845C28.5135 157.134 30.6076 157.367 30.7609 158.096C30.8577 158.556 31.8482 158.986 33.9407 159.482C40.6537 161.069 44.9968 161.395 48.1041 160.544C49.6964 160.107 49.8642 160.151 51.8082 161.536C54.1056 163.173 54.1621 163.179 59.6812 162.411C64.0824 161.799 66.1991 162.344 67.8672 164.523C70.5082 167.968 77.6585 167.724 82.2613 164.032C83.902 162.715 87.9176 161.552 88.6177 162.194C90.9216 164.3 107.116 156.476 107.116 153.257C107.116 151.943 108.754 150.915 111.295 150.635C115.463 150.173 117.804 149.505 118.864 148.474C119.413 147.94 120.118 147.504 120.434 147.504C120.749 147.504 121.249 147.147 121.547 146.71C121.846 146.272 122.305 145.915 122.57 145.915C122.833 145.915 123.403 146.272 123.835 146.71C124.937 147.822 125.337 147.787 128.396 146.309C128.993 146.02 130.946 145.7 132.737 145.597C134.96 145.468 136.312 145.182 136.993 144.697C137.542 144.306 138.547 143.874 139.228 143.737C139.908 143.6 140.809 143.141 141.228 142.716C142.249 141.686 143.358 141.745 144.337 142.882C145.463 144.19 151.016 147.184 154.83 148.537C156.59 149.163 158.12 149.887 158.229 150.146C158.357 150.45 158.97 150.539 159.946 150.394C161.056 150.229 161.935 150.412 163.223 151.073C164.991 151.981 166.117 152.31 170.52 153.207C172.843 153.68 172.909 153.73 172.93 155.063C172.946 156.012 173.215 156.554 173.808 156.832C174.277 157.05 175.087 157.622 175.606 158.1C176.126 158.579 177.271 159.095 178.151 159.246C179.193 159.424 179.827 159.781 179.966 160.266C180.082 160.678 180.4 160.989 180.669 160.96C183.581 160.643 184.659 162.986 184.047 168.303C183.394 173.997 184.741 179.262 186.853 179.262C187.395 179.262 187.969 179.453 188.127 179.686C188.302 179.946 189.063 180.012 190.073 179.856C192.291 179.512 193.822 182.413 192.204 183.893C190.917 185.069 191.688 189.641 193.484 191.485C193.98 191.995 194.727 192.937 195.142 193.579C195.555 194.221 196.031 194.744 196.199 194.744C196.365 194.744 196.959 195.097 197.517 195.526C198.073 195.955 199.409 196.913 200.484 197.654C201.586 198.413 202.358 199.242 202.255 199.553C202.155 199.856 202.107 200.46 202.147 200.897C202.187 201.335 202.283 202.942 202.358 204.47C202.434 205.998 202.728 207.64 203.01 208.116C203.78 209.414 203.641 210.139 202.439 211.095C201.842 211.57 201.353 212.194 201.353 212.481C201.353 213.166 201.392 213.173 198.92 211.965C197.72 211.378 196.01 210.902 194.995 210.874C193.701 210.837 192.62 210.443 191.135 209.467L189.07 208.112L185.986 209.07C182.892 210.032 179.64 212.176 179.64 213.254C179.64 213.558 179.265 214.099 178.809 214.458C178.201 214.934 178.038 215.443 178.199 216.359C178.325 217.064 178.12 218.27 177.728 219.127C177.346 219.962 177.034 221.326 177.034 222.156C177.034 222.988 176.741 223.935 176.382 224.263C176.024 224.591 175.731 224.968 175.731 225.103C175.731 225.235 175.532 225.561 175.289 225.825C175.047 226.089 173.735 227.611 172.375 229.21C170.776 231.089 169.513 232.188 168.8 232.322C167.161 232.63 165.993 235.14 166.349 237.591C166.638 239.585 165.884 240.911 162.159 244.961C160.538 246.724 160.42 249.968 161.958 250.608C164.921 251.842 167.883 252.075 168.951 251.158C169.594 250.605 170.684 250.221 171.876 250.127C175.25 249.86 176.774 249.431 177.55 248.53C178.065 247.931 178.983 247.567 180.417 247.393C181.577 247.252 182.903 246.876 183.363 246.559C183.823 246.241 184.652 245.975 185.206 245.968C187.374 245.94 189.591 244.145 189.631 242.383C189.66 241.179 191.665 239.616 192.038 240.505C192.165 240.808 192.072 241.526 191.832 242.104C191.48 242.951 191.538 243.225 192.132 243.529C192.774 243.858 192.72 243.965 191.694 244.393C190.365 244.946 190.502 245.558 191.954 245.558C193.124 245.558 193.984 244.862 193.688 244.155C193.443 243.573 194.84 243.049 195.771 243.377C196.433 243.608 197.444 241.639 197.444 240.12C197.444 239.671 197.738 239.081 198.096 238.809C198.454 238.538 198.748 238.088 198.748 237.811C198.748 237.534 199.09 237.186 199.508 237.037C200.216 236.786 200.209 236.728 199.422 236.199C198.766 235.758 198.693 235.523 199.096 235.156C199.866 234.453 199.732 234.177 198.638 234.212C198.044 234.232 197.662 234.01 197.662 233.649C197.662 233.199 198.219 233.046 199.934 233.022C201.408 233.002 202.486 232.758 203.007 232.328C203.52 231.903 204.554 231.664 205.874 231.664C208.504 231.664 212.643 229.363 212.643 227.902C212.643 227.405 212.911 226.796 213.235 226.548C213.561 226.3 214.578 224.983 215.492 223.62C216.407 222.259 217.654 220.693 218.266 220.141C219.845 218.715 221.329 216.879 221.329 216.354C221.329 216.108 221.72 215.494 222.197 214.99C222.675 214.487 223.067 213.912 223.067 213.713C223.067 213.512 223.583 212.731 224.212 211.976C225.145 210.859 225.277 210.436 224.921 209.719C223.935 207.736 227.447 203.209 229.198 204.209C229.641 204.461 230.579 204.669 231.284 204.669C231.987 204.669 233.029 204.83 233.599 205.029C234.417 205.312 234.743 205.23 235.151 204.631C235.746 203.761 236.616 203.67 237.813 204.354C238.506 204.749 238.813 204.699 239.584 204.062C240.426 203.364 240.565 203.351 241.022 203.922C241.757 204.843 243.401 205.221 244.163 204.643C244.661 204.265 245.058 204.259 245.929 204.622L247.051 205.09L245.954 203.898C244.611 202.44 244.808 201.096 246.365 201.096C246.941 201.096 247.525 201.364 247.664 201.692C247.801 202.019 248.136 202.292 248.409 202.299C250.016 202.341 250.621 203.438 249.679 204.603C248.411 206.172 248.97 206.972 250.84 206.264C252.684 205.566 253.644 203.808 253.201 201.941C253.012 201.149 252.83 200.322 252.796 200.103C252.76 199.885 252.507 199.204 252.231 198.589C251.955 197.974 251.729 197.366 251.729 197.236C251.729 197.108 251.24 196.416 250.643 195.701C249.366 194.172 249.343 194.03 250.24 193.125C250.852 192.507 250.855 192.314 250.272 191.283C249.503 189.924 249.879 189.13 251.145 189.433C251.928 189.621 252.081 190.034 252.271 192.466C252.425 194.426 252.705 195.423 253.196 195.751C253.583 196.009 253.899 196.723 253.899 197.335C253.899 198.633 256.498 203.171 258.174 204.798C259.457 206.044 258.81 207.051 256.726 207.051C256.222 207.051 255.59 207.252 255.322 207.498C255.02 207.772 253.823 207.877 252.21 207.771C250.158 207.635 249.684 207.705 250.034 208.089C250.342 208.429 250.31 209.098 249.932 210.251C249.409 211.846 249.435 211.961 250.49 212.762C251.098 213.223 252.054 214.36 252.612 215.288C253.168 216.216 253.749 216.975 253.902 216.975C254.054 216.975 254.956 217.584 255.908 218.329C258.341 220.233 261.443 221.739 262.931 221.739C263.624 221.739 265.146 222.202 266.309 222.768C268.829 223.992 269.91 223.814 275.143 221.301C276.915 220.45 278.91 219.754 279.58 219.754C280.248 219.754 281.469 219.46 282.292 219.102L283.788 218.45L286.056 220.491C287.309 221.619 288.736 222.539 289.244 222.547C289.749 222.556 290.651 222.817 291.247 223.128C293.022 224.056 293.653 223.827 295.073 221.739C296.518 219.612 296.91 219.413 297.77 220.36C298.217 220.852 298.185 221.349 297.596 223.016C296.959 224.818 296.949 225.137 297.509 225.648C298.07 226.161 298.069 226.368 297.504 227.366C296.873 228.484 296.883 228.506 298.19 228.745C300.193 229.111 300.182 229.562 298.124 231.282C296.081 232.988 294.721 233.317 294.721 232.103C294.721 230.919 293.779 230.866 290.109 231.844C285.075 233.186 283.959 233.695 280.608 236.177C278.936 237.416 276.297 238.977 274.745 239.65C273.193 240.321 271.646 240.998 271.307 241.153C270.686 241.437 269.134 245.176 269.111 246.443C269.089 247.693 271.142 248.562 272.727 247.972C275.895 246.792 276.027 246.831 281.046 250.348C284.641 252.867 284.936 252.979 288.758 253.305C294.645 253.806 297.56 258.731 294.456 262.927C293.73 263.904 293.556 264.587 293.727 265.757C293.876 266.767 293.655 268.034 293.087 269.429C291.091 274.341 294.108 276.545 304.793 277.975C306.71 278.232 311.191 276.456 314.065 274.305C315.06 273.56 316.054 272.949 316.275 272.949C317.009 272.949 320.029 269.994 320.628 268.689C320.986 267.91 321.63 267.311 322.268 267.165C322.846 267.032 323.658 266.583 324.07 266.165C324.484 265.748 325.139 265.407 325.526 265.407C325.913 265.407 326.665 265.128 327.196 264.789C328.304 264.08 329.028 264.325 329.028 265.407C329.028 266.363 329.775 266.789 330.493 266.243C331.182 265.72 336.167 264.313 337.929 264.143C338.981 264.041 339.413 263.677 340.196 262.232C340.726 261.248 341.367 260.178 341.62 259.85C341.872 259.521 342.461 258.673 342.93 257.964C344.31 255.873 352.336 256.308 353.912 258.56C354.104 258.833 354.812 259.055 355.488 259.055C356.163 259.055 356.95 259.313 357.237 259.629C357.631 260.062 358.031 260.108 358.876 259.815C359.768 259.505 360.177 259.58 360.904 260.191C363.227 262.138 366.517 261.596 367.933 259.036C371.12 253.28 371.363 251.973 369.568 250.258C367.574 248.356 369.403 247.311 372.594 248.531C373.977 249.059 374.212 249.056 374.819 248.503C376.103 247.328 375.842 247.168 370.068 245.607C367.308 244.86 365.141 244.624 361.995 244.728C360.599 244.773 359.531 246.5 360.343 247.397C360.74 247.832 360.68 248.127 360.073 248.741C359.181 249.64 358.368 249.276 357.962 247.792C357.762 247.064 357.473 246.915 356.506 247.04C355.845 247.126 354.919 246.937 354.451 246.618C353.683 246.099 353.554 246.123 353.147 246.853C352.333 248.32 351.313 248.615 349.798 247.823C348.962 247.387 348.28 247.254 348.033 247.48C347.804 247.689 347.135 247.707 346.473 247.519C345.836 247.339 344.506 247.002 343.517 246.77C342.295 246.483 341.352 245.906 340.565 244.961C339.928 244.197 339.173 243.568 338.887 243.563C337.427 243.536 333.675 239.206 335.109 239.206C335.636 239.206 335.685 237.924 335.178 237.399C334.978 237.193 334.552 236.398 334.231 235.634C333.912 234.869 333 233.574 332.208 232.754C331.18 231.692 330.766 230.878 330.766 229.922C330.766 228.928 330.483 228.411 329.68 227.928C329.083 227.571 328.594 227.043 328.594 226.756C328.594 226.468 327.813 225.504 326.857 224.613C325.902 223.721 325.121 222.625 325.121 222.177C325.121 221.466 324.979 221.411 324.006 221.749C322.888 222.138 321.212 221.684 321.212 220.992C321.212 219.917 322.999 219.262 325.432 219.447C327.367 219.594 328.314 219.462 329.554 218.87C330.483 218.428 331.769 218.158 332.594 218.235C333.779 218.342 334.046 218.22 334.155 217.513C334.312 216.515 335.414 215.528 336.593 215.329C337.051 215.253 337.509 214.958 337.613 214.676C337.748 214.303 337.49 214.233 336.671 214.421C335.278 214.741 335.133 213.728 336.303 211.85C337.172 210.455 337.797 210.454 338.156 211.844C338.366 212.654 338.628 212.787 339.797 212.678C340.588 212.604 341.188 212.734 341.188 212.975C341.188 213.21 340.809 213.403 340.346 213.403C339.234 213.403 338.874 213.992 339.634 214.568C340.05 214.884 340.331 214.897 340.525 214.612C340.678 214.384 341.822 214.197 343.066 214.197C344.792 214.197 345.426 214.028 345.754 213.483C349.393 207.429 353.956 203.745 357.882 203.689C359.254 203.669 360.782 203.327 361.924 202.782L363.763 201.907L364.42 202.824C365.283 204.028 369.553 203.873 370.891 202.59C371.557 201.95 372.114 201.835 373.817 201.985C376.231 202.196 377.312 201.684 378.36 199.831C379.033 198.643 379.106 198.62 381.395 198.865C383.794 199.123 385.001 198.608 385.583 197.077C385.753 196.635 385.948 196.657 386.616 197.198C388.776 198.946 389.75 196.136 387.614 194.313C386.125 193.041 385.983 190.607 387.222 187.599C387.539 186.835 388.284 184.959 388.882 183.431C389.713 181.307 390.423 180.276 391.893 179.064C395.357 176.206 395.384 173.308 391.949 173.308C391.186 173.308 389.384 172.672 386.479 171.382C385.712 171.041 384.349 169.95 383.45 168.957C382.553 167.966 381.666 167.095 381.48 167.022C381.293 166.949 381.142 166.671 381.142 166.403C381.142 166.136 380.616 165.338 379.974 164.629C377.292 161.67 375.532 153.845 377.016 151.474C377.357 150.928 377.649 150.123 377.665 149.686C377.72 148.228 378.828 147.306 379.941 147.794C380.482 148.032 381.285 148.332 381.726 148.462C382.166 148.592 382.629 149.055 382.753 149.49C383.052 150.536 384.025 150.499 384.657 149.418C386.23 146.731 387.238 130.583 385.88 129.816C383.913 128.704 387.214 124.479 390.05 124.479C391.093 124.479 392.067 124.299 392.216 124.081C392.362 123.863 392.85 123.684 393.298 123.684C393.756 123.684 394.243 123.301 394.416 122.807C395.116 120.789 400.64 117.332 403.164 117.332C403.909 117.332 405.601 117.946 407.037 118.736C410.112 120.429 411.324 120.427 411.324 118.722C411.324 117.776 411.033 117.399 409.917 116.888C406.213 115.197 404.507 110.628 406.28 107.146C407.96 103.85 408.333 103.326 409.218 103.018C410.632 102.527 411.106 101.419 411.109 98.6011C411.111 97.2222 411.319 95.4126 411.572 94.5794C411.963 93.2919 411.896 92.8258 411.135 91.4897C410.641 90.624 410.238 89.7273 410.238 89.4958C410.238 89.2627 409.142 87.9738 407.803 86.6288C405.319 84.132 402.133 79.9126 399.161 75.1829C396.489 70.9311 395.313 70.7099 386.787 72.8631C384.996 73.3144 382.749 73.8689 381.793 74.0945C380.837 74.3202 379.273 74.9175 378.318 75.4218C375.371 76.9792 372.551 77.1444 372.378 75.7684C372.28 74.9838 371.834 74.4721 370.858 74.0267C370.099 73.6801 368.929 73.0666 368.259 72.6655C364.844 70.6199 359.288 70.4267 356.072 72.2407C349.995 75.6696 346.296 71.8632 345.324 61.1798C345.166 59.4455 344.739 57.3911 344.376 56.6153C344.011 55.8396 343.43 54.3545 343.083 53.3133C342.493 51.5376 340.234 48.6544 339.434 48.6544C337.847 48.6544 336.754 47.8167 337.44 47.1251C338.242 46.3154 338.318 45.7727 337.768 44.7787C337.558 44.3997 337.072 43.4204 336.688 42.6004C335.861 40.8351 335.611 40.8086 330.137 41.9146C324.959 42.9603 323.449 42.9234 321.646 41.7082C320.837 41.1625 319.824 40.7156 319.397 40.7156C318.054 40.7156 316.328 37.5788 314.696 32.1796C313.487 28.1829 313.818 27.1446 317.293 24.052C320.86 20.8753 320.547 19.486 315.431 15.7652C313.227 14.1621 312.369 13.1828 310.985 10.6904C309.272 7.60515 304.903 3.00233 303.689 3.00233C303.365 3.00233 302.158 2.54367 301.007 1.98325C296.713 -0.103574 295.357 -0.36756 292.767 0.381633ZM195.707 211.815C195.707 212.449 193.98 213.851 193.521 213.592C192.946 213.267 192.995 212.468 193.622 211.894C194.255 211.318 195.707 211.262 195.707 211.815ZM210.391 216.453C210.533 217.366 209.083 218.41 208.292 217.963C207.802 217.686 207.719 216.052 208.174 215.636C208.804 215.059 210.257 215.596 210.391 216.453ZM309.839 221.041C309.662 222.721 308.368 223.026 307.747 221.537C307.2 220.22 307.497 219.754 308.888 219.754C309.854 219.754 309.96 219.9 309.839 221.041ZM302.021 227.327C301.936 227.561 301.679 227.753 301.453 227.753C301.226 227.753 300.969 227.561 300.884 227.327C300.798 227.092 301.055 226.9 301.453 226.9C301.85 226.9 302.107 227.092 302.021 227.327ZM324.471 229.285C324.619 229.505 324.427 229.794 324.043 229.93C323.212 230.22 322.749 229.9 323.148 229.309C323.509 228.775 324.119 228.765 324.471 229.285ZM193.101 235.062C193.101 235.757 192.862 236.031 192.259 236.031C191.033 236.031 190.733 235.301 191.598 234.426C192.509 233.506 193.101 233.755 193.101 235.062ZM198.577 236.18C198.83 236.896 198.167 237.6 197.223 237.612C195.828 237.632 193.813 234.718 194.676 233.929C195.111 233.531 198.288 235.363 198.577 236.18Z" fill="#E3E6EC"/>
<path fill-rule="evenodd" clip-rule="evenodd" d="M412.944 85.986C412.403 86.1851 411.781 86.7795 411.561 87.3089C411.342 87.8369 410.909 88.3472 410.601 88.4401C410.185 88.5684 410.333 89.1981 411.188 90.9266C412.074 92.7155 412.242 93.4617 411.931 94.2124C411.708 94.7463 411.468 96.6148 411.395 98.3639C411.29 100.88 411.087 101.7 410.424 102.287C409.962 102.695 409.125 103.439 408.564 103.939C405.029 107.084 405.398 116.143 409.06 116.143C410.174 116.143 411.974 117.746 411.974 118.737C411.974 120.649 410.524 120.71 407.021 118.942C405.268 118.057 403.504 117.333 403.102 117.333C401.204 117.333 395.326 121.036 394.794 122.568C394.444 123.578 392.361 124.479 390.378 124.479C387.231 124.479 384.686 127.506 386.055 129.622C387.031 131.134 387.081 141.301 386.122 143.733C385.777 144.606 385.493 146 385.49 146.828C385.477 149.681 383.854 151.487 382.773 149.855C382.471 149.402 381.479 148.697 380.564 148.29L378.904 147.547L378.285 148.902C377.944 149.647 377.665 150.421 377.665 150.622C377.665 150.822 377.373 151.498 377.017 152.123C376.202 153.551 376.183 155.776 376.968 157.718C377.301 158.541 377.898 160.22 378.294 161.448C378.691 162.677 379.493 164.092 380.079 164.594C380.663 165.095 381.14 165.707 381.14 165.952C381.14 167.217 386.613 171.534 389.175 172.288C395.822 174.245 396.515 175.519 392.616 178.618C390.288 180.468 389.823 181.225 388.024 186.096C386.248 190.908 386.174 192.864 387.726 194.056C388.362 194.544 389.013 195.355 389.173 195.858C389.405 196.588 389.586 196.679 390.073 196.309C390.409 196.055 391.164 195.957 391.751 196.092C392.464 196.256 392.94 196.141 393.181 195.747C393.627 195.017 398.379 192.759 399.468 192.759C399.907 192.759 401.068 192.296 402.047 191.731C404.867 190.103 407.844 189.454 411.187 189.736C413.084 189.897 414.194 189.832 414.384 189.552C414.544 189.314 415.522 188.789 416.556 188.384C417.672 187.947 418.7 187.192 419.081 186.531C419.433 185.918 420.112 185.117 420.589 184.753C422.298 183.446 422.336 179.852 420.659 178.269C417.987 175.751 420.918 172.702 425.866 172.853C427.181 172.894 428.465 172.789 428.719 172.621C429.619 172.022 430.647 170.338 430.647 169.462C430.647 168.502 431.781 167.75 433.231 167.75C433.728 167.75 435.22 167.091 436.547 166.285C438.829 164.901 439.054 164.844 440.727 165.253C441.948 165.551 443.444 165.564 445.567 165.296C447.257 165.08 449.179 165.005 449.837 165.125C452.886 165.682 458.325 161.864 460.798 157.431C461.592 156.01 462.655 154.173 463.163 153.347C463.671 152.521 464.086 151.439 464.086 150.942C464.086 150.445 464.373 149.691 464.723 149.266C465.604 148.203 465.543 147.294 464.517 146.228C456.481 137.872 455.537 135.846 457.788 131.792C459.422 128.848 459.582 127.521 458.423 126.534C457.099 125.406 457.567 124.328 459.235 124.662C460.351 124.887 460.538 124.758 461.279 123.258C461.726 122.35 462.855 121.048 463.787 120.363C468.235 117.101 469.023 114.733 466.8 111.308C465.309 109.009 465.172 108.549 465.172 105.832V102.868L463.429 102.027C462.471 101.564 460.829 101.082 459.78 100.952C458.731 100.824 457.325 100.349 456.655 99.8948C455.984 99.442 455.132 99.0718 454.763 99.0718C453.935 99.0718 448.279 95.2654 446.498 93.5089C444.436 91.4767 442.879 91.0534 438.628 91.369C434.544 91.6713 430.698 90.6567 426.955 88.2882C423.474 86.0849 416.012 84.8593 412.944 85.986Z" fill="#BBBBBB"/>
</svg>
