<svg width="131" height="43" viewBox="0 0 131 43" fill="none" xmlns="http://www.w3.org/2000/svg">
<g clip-path="url(#clip0_679_3557)">
<path fill-rule="evenodd" clip-rule="evenodd" d="M0 21.4999V43.0001H65.5H131V21.4999V0H65.5H0V21.4999ZM37.0075 13.4117V18.6058H32.2725H27.5375L32.2725 23.0894L37.0075 27.5728V31.3327V35.0927H33.0768H29.1462L24.3709 30.5888L19.5953 26.085V30.5888V35.0927H14.1097H8.62406V21.6894C8.62406 14.3178 8.64043 8.27088 8.66041 8.25197C8.68071 8.23305 15.067 8.21755 22.8523 8.21755H37.0075V13.4117ZM101.58 8.36825C102.775 8.79805 103.347 10.1811 102.863 11.472C102.132 13.4247 99.2142 13.3016 98.6623 11.2946C98.14 9.3956 99.8023 7.72853 101.58 8.36825ZM85.5132 10.5175C85.9429 11.7114 86.2949 12.7065 86.2956 12.7288C86.2959 12.7512 86.0821 12.7629 85.8201 12.7546L85.3442 12.7397L85.206 12.3139L85.0681 11.8885L84.2206 11.8875L83.373 11.8869L83.2426 12.3263L83.1126 12.7657H82.6345H82.1566L82.9161 10.6078C83.334 9.42103 83.6877 8.42004 83.7024 8.38345C83.7221 8.33445 83.86 8.32081 84.2304 8.33197L84.7318 8.34686L85.5132 10.5175ZM115.922 10.5048C116.351 11.7055 116.701 12.7065 116.7 12.7288C116.7 12.7512 116.487 12.7629 116.229 12.7546L115.758 12.7397L115.619 12.3121L115.479 11.8844L114.633 11.8987L113.786 11.913L113.651 12.3393L113.517 12.7657H113.036H112.555L113.344 10.5628C113.778 9.35126 114.134 8.3512 114.134 8.34035C114.134 8.3298 114.361 8.32112 114.639 8.32143L115.143 8.32174L115.922 10.5048ZM120.465 10.1556V11.9905H121.393H122.321V12.3781V12.7657H120.929H119.537V10.5777C119.537 9.37452 119.554 8.37446 119.574 8.35523C119.594 8.33632 119.803 8.32081 120.038 8.32081H120.465V10.1556ZM45.7409 10.569V12.7657H45.3041H44.8675V10.569V8.3726H45.3041H45.7409V10.569ZM50.9429 9.52491C51.3576 10.156 51.8072 10.8354 51.9422 11.0342L52.1878 11.396L52.1567 10.6208C52.1396 10.1944 52.1111 9.51406 52.0935 9.10907L52.061 8.3726H52.5035H52.9459V10.5715V12.7701L52.5559 12.7549L52.1658 12.7397L51.2049 11.2887L50.2441 9.83749L50.2293 11.3015L50.2149 12.7657H49.779H49.3434V10.569V8.3726L49.7662 8.37477L50.1894 8.37725L50.9429 9.52491ZM59.3322 8.76022V9.14784H58.7044H58.0766V10.9566V12.7657H57.6128H57.1487V10.9566V9.14784H56.5209H55.8934V8.76022V8.3726H57.6128H59.3322V8.76022ZM65.5547 8.73448V9.09605H64.3266H63.0984V9.61298V10.1299H64.2172H65.3363V10.4915V10.8534H64.2172H63.0984V11.4218V11.9905H64.4084H65.7184V12.3781V12.7657H63.9716H62.225V10.569V8.3726H63.8897H65.5547V8.73448ZM71.4061 8.45291C72.4728 8.79712 72.6821 10.2967 71.7382 10.832L71.4572 10.9914L71.9445 11.8305C72.538 12.8513 72.5386 12.7726 71.9364 12.7546L71.4405 12.7397L70.9892 11.9387L70.5379 11.1377L70.1751 11.1222L69.8122 11.107V11.9362V12.7657H69.3481H68.884V10.569V8.3726H70.0208C70.9054 8.3726 71.2122 8.39027 71.4061 8.45291ZM77.517 9.86416C78.0491 10.6704 78.5008 11.3449 78.5204 11.3629C78.5404 11.3811 78.542 11.1982 78.5247 10.9566C78.507 10.7151 78.4772 10.0347 78.4585 9.44491L78.4241 8.3726H78.8669H79.3097V10.5715V12.7701L78.9164 12.7549L78.523 12.7397L77.7839 11.6274C77.3771 11.0155 76.9337 10.3473 76.7984 10.1426L76.5525 9.77051L76.5724 11.268L76.5924 12.7657H76.1496H75.7072V10.5668V8.36825L76.1284 8.38345L76.5495 8.39833L77.517 9.86416ZM91.6453 8.76022V9.14784H91.0178H90.39V10.9566V12.7657H89.9259H89.4622V10.9566V9.14784H88.8344H88.2066V8.76022V8.3726H89.9259H91.6453V8.76022ZM95.4662 10.569V12.7657H95.0022H94.5384V10.569V8.3726H95.0022H95.4662V10.569ZM107.911 9.87129C108.996 11.5129 108.957 11.463 108.922 11.1504C108.908 11.0298 108.884 10.3554 108.867 9.65174L108.836 8.3726H109.274H109.712V10.569V12.7657L109.317 12.7645L108.921 12.7632L107.923 11.2528L106.924 9.74229L106.962 11.254L107 12.7657H106.555H106.11V10.569V8.3726H106.515H106.921L107.911 9.87129ZM100.294 9.14194C99.1503 9.63376 99.2754 11.7278 100.467 12.0438C101.141 12.2221 101.908 11.7744 102.056 11.1173C102.361 9.76307 101.387 8.67184 100.294 9.14194ZM69.8122 9.77547V10.4546L70.3666 10.4186C71.1402 10.3681 71.3688 10.2378 71.4251 9.81578C71.4919 9.31467 71.1599 9.09605 70.3323 9.09605H69.8122V9.77547ZM114.344 10.1894L114.044 11.1377L114.615 11.1523C114.929 11.1604 115.197 11.156 115.211 11.1424C115.225 11.129 115.104 10.6955 114.941 10.1795L114.645 9.24118L114.344 10.1894ZM84.2009 9.35467C84.1826 9.39715 84.0473 9.81578 83.9006 10.285L83.6337 11.1377L84.2081 11.1523C84.5238 11.1604 84.7927 11.1573 84.8051 11.1455C84.8228 11.1287 84.3591 9.5981 84.2549 9.32862C84.2438 9.3004 84.2196 9.31188 84.2009 9.35467ZM91.8457 15.3798C93.7809 15.694 95.5832 16.841 96.4481 18.309L96.6233 18.6067L94.9668 19.381C94.0557 19.8071 93.292 20.1556 93.27 20.1559C93.2478 20.1559 93.1335 19.9752 93.0156 19.7534C91.8068 17.477 88.8999 17.7499 88.1715 20.208C87.9049 21.1076 88.0706 22.8097 88.5065 23.6517C89.5179 25.6043 92.4136 25.2263 93.1918 23.0398C93.2173 22.9682 96.4402 24.3692 96.6027 24.5227C96.6721 24.5885 95.9218 25.6958 95.5301 26.1054C93.5091 28.2194 89.2631 28.6405 86.685 26.9827C83.0792 24.6641 83.0596 18.9199 86.649 16.4094C88.0484 15.4304 89.8994 15.0639 91.8457 15.3798ZM78.2178 15.4251C79.517 15.591 80.5876 15.9566 81.5105 16.5498C81.8639 16.7768 82.5968 17.4119 82.5726 17.4699C82.5644 17.4904 82.0047 17.949 81.329 18.4889L80.1009 19.4706L79.7918 19.172C78.6088 18.0305 75.4341 17.8981 75.4341 18.9903C75.4341 19.4892 75.6964 19.6105 77.4593 19.9258C79.8029 20.3448 80.6292 20.6093 81.4725 21.2093C83.3455 22.5424 83.0366 25.6329 80.8925 27.0131C78.6478 28.4585 74.1673 28.3211 71.7778 26.734C71.3953 26.4797 70.3575 25.5125 70.3588 25.4118C70.3594 25.3578 73.1285 23.6086 73.3272 23.5363C73.3754 23.5189 73.4648 23.5918 73.5663 23.7317C73.9921 24.3174 74.5662 24.6585 75.5071 24.8843C77.4816 25.3587 79.2553 24.7708 78.6567 23.8408C78.4559 23.5292 78.111 23.4259 75.8434 22.9977C72.6169 22.388 71.4222 21.4038 71.4222 19.3553C71.4222 16.5588 74.2577 14.919 78.2178 15.4251ZM53.0003 15.7873C54.9384 16.0369 56.0385 17.0119 56.3624 18.7664C56.6883 20.5336 55.8666 22.0481 54.2445 22.6686C54.0431 22.7456 53.8859 22.8225 53.8954 22.8392C53.9333 22.9065 56.6834 27.2246 56.8032 27.4054L56.9326 27.5998L54.6905 27.5862L52.4485 27.5728L51.237 25.4927L50.0256 23.4123H49.4663H48.9066V25.5054V27.5986H46.8872H44.8675V21.6549V15.7116L48.6475 15.7126C51.614 15.7132 52.5506 15.7293 53.0003 15.7873ZM68.5565 17.0296V18.3475H65.5547H62.5525V19.2002V20.053H65.3363H68.12V21.3709V22.6888H65.3363H62.5525V23.8517V25.0145H65.8003H69.0478V26.3324V27.6503H63.7806H58.5134V21.681V15.7116H63.535H68.5565V17.0296ZM102.192 19.8074C102.207 23.8585 102.208 23.9059 102.323 24.1407C102.886 25.2927 104.901 25.2728 105.466 24.11L105.592 23.8517L105.607 19.7817L105.623 15.7116H107.64H109.658V19.4198C109.657 23.9906 109.631 24.2598 109.061 25.3544C107.302 28.732 100.318 28.7971 98.6312 25.4518C98.1812 24.5596 98.1409 24.0663 98.1409 19.4716V15.7116H100.159H102.177L102.192 19.8074ZM121.775 17.0296V18.3475H118.801H115.826V19.1996V20.0521L118.596 20.0654L121.366 20.0787L121.381 21.3836L121.395 22.6888H118.611H115.826V23.8517V25.0145H119.073H122.321V26.3324V27.6503H117.054H111.787V21.681V15.7116H116.781H121.775V17.0296ZM48.9066 19.6158V20.996L50.0666 20.9699C50.9541 20.9501 51.297 20.9228 51.5266 20.8543C52.6685 20.5141 52.793 18.9339 51.7178 18.425L51.3903 18.2699L50.1484 18.2526L48.9066 18.2355V19.6158ZM47.6329 30.6037C48.019 30.7405 48.4169 31.0825 48.6043 31.4385C48.8135 31.8357 48.8031 31.8559 48.3351 31.9604C47.9142 32.0543 47.815 32.0435 47.815 31.9042C47.815 31.2152 46.4893 31.027 45.9911 31.645C45.0155 32.8562 46.1434 34.8396 47.4086 34.1376C47.6306 34.0144 47.9787 33.598 47.9787 33.4557C47.9787 33.3657 47.9558 33.3598 48.4395 33.5713C48.7739 33.7177 48.8538 33.7738 48.8266 33.8427C48.0989 35.6834 45.2648 35.4576 44.763 33.5186C44.2662 31.601 45.8647 29.9773 47.6329 30.6037ZM57.4864 30.6877C59.2012 31.4869 59.1399 34.3013 57.394 34.9364C55.6688 35.564 54.0981 34.3025 54.3159 32.4646C54.4967 30.9398 56.0998 30.0415 57.4864 30.6877ZM66.2886 32.1808C66.5274 33.0522 66.7288 33.744 66.7366 33.718C66.7445 33.6923 66.9132 33.0665 67.1116 32.3275C67.3101 31.5886 67.4964 30.8964 67.5256 30.7901L67.5783 30.5963H68.2313H68.884V32.7927V34.9891H68.4478H68.0113L68.0391 33.3484L68.0669 31.7073L67.6386 33.206C67.4031 34.0306 67.1935 34.7698 67.1725 34.8492C67.1342 34.9931 67.1332 34.9934 66.718 34.9785L66.3014 34.9633L65.8226 33.2578L65.3435 31.5523L65.3667 32.3275C65.3792 32.7539 65.4021 33.5273 65.4171 34.0461L65.4446 34.9891H64.9812H64.5175V32.7927V30.5963L65.1863 30.5966L65.8547 30.5969L66.2886 32.1808ZM76.2489 30.7901C76.2793 30.8964 76.4647 31.5653 76.6609 32.2757C76.8574 32.9865 77.0326 33.6026 77.0506 33.6454C77.0729 33.6991 77.9283 30.7922 77.944 30.609C77.9443 30.6018 78.2397 30.5963 78.6 30.5963H79.255V32.7927V34.9891H78.8099H78.3649L78.4038 33.3353C78.4254 32.4258 78.4333 31.6816 78.4218 31.6816C78.4104 31.6816 78.1942 32.4258 77.9417 33.3353L77.4822 34.9891H77.0699H76.6573L76.2024 33.3484C75.9518 32.4457 75.7363 31.6962 75.7236 31.6825C75.7105 31.6689 75.7177 32.4072 75.7393 33.3232L75.7783 34.9891H75.3335H74.8884V32.7927V30.5963H75.5411H76.1942L76.2489 30.7901ZM86.1872 32.7927V34.9891H85.7503H85.3137V32.7927V30.5963H85.7503H86.1872V32.7927ZM95.3025 30.9839V31.3715H94.6747H94.0472V33.1803V34.9891H93.5831H93.1191V33.1803V31.3715H92.5187H91.9184V30.9839V30.5963H93.6103H95.3025V30.9839ZM104.036 30.9839V31.3715H103.408H102.78V33.1803V34.9891H102.317H101.852V33.1803V31.3715H101.225H100.597V30.9839V30.5963H102.317H104.036V30.9839ZM112.987 30.9578V31.3197H111.787H110.586V31.8366V32.3533H111.705H112.824V32.7151V33.077H111.705H110.586V33.6454V34.2138H111.896H113.206V34.6015V34.9891H111.459H109.712V32.7927V30.5963H111.35H112.987V30.9578ZM122.157 30.9578V31.3197H120.929H119.701V31.8366V32.3533H120.82H121.939V32.7151V33.077H120.82H119.701V33.6454V34.2138H121.011H122.321V34.6015V34.9891H120.575H118.828V32.7927V30.5963H120.493H122.157V30.9578ZM56.07 31.3371C54.681 31.814 55.0302 34.2802 56.4862 34.2749C57.339 34.2718 57.8421 33.6603 57.7903 32.6894C57.734 31.6326 56.9663 31.0292 56.07 31.3371Z" fill="#FCC42C"/>
<path fill-rule="evenodd" clip-rule="evenodd" d="M8.67871 21.6551V35.0411H14.1096H19.5409V30.5447C19.5409 28.0717 19.5566 26.0483 19.5763 26.0483C19.5956 26.0483 21.7564 28.0717 24.3784 30.5447L29.1452 35.0411H33.0762H37.0075V31.3329V27.6248L32.2178 23.0896L27.4284 18.5542H32.2178H37.0075V13.4119V8.26953H22.8431H8.67871V21.6551ZM100.335 8.32442C98.8133 8.60816 98.0937 10.5807 99.0153 11.9408C99.8799 13.2165 102.023 13.0813 102.726 11.7066C103.638 9.92141 102.256 7.96626 100.335 8.32442ZM44.9222 10.5435V12.7141H45.3315H45.7409V10.5435V8.37279H45.3315H44.9222V10.5435ZM49.3978 10.5435V12.7141H49.794H50.19L50.1739 11.2024C50.1592 9.81009 50.1648 9.69876 50.2453 9.79396C50.2932 9.85102 50.7523 10.5311 51.2652 11.3057L52.1979 12.7141H52.5719H52.9459V10.5435V8.37279H52.5303H52.115L52.1497 9.54868C52.1691 10.1952 52.1989 10.8815 52.2159 11.0731C52.2352 11.2892 52.2267 11.422 52.1933 11.422C52.1635 11.422 51.688 10.7363 51.1368 9.89816L50.1346 8.37434L49.7662 8.37372L49.3978 8.37279V10.5435ZM55.9478 8.73468V9.09625H56.5756H57.2034V10.9053V12.7141H57.6128H58.0222V10.9053V9.09625H58.6496H59.2775V8.73468V8.37279H57.6128H55.9478V8.73468ZM62.2797 10.5435V12.7141H63.9715H65.6637V12.3783V12.0422H64.3809H63.0984V11.422V10.8018H64.19H65.2815V10.4659V10.1301H64.19H63.0984V9.61318V9.09625H64.299H65.5V8.73468V8.37279H63.8896H62.2797V10.5435ZM68.9387 10.537V12.7141H69.3481H69.7575V11.8871V11.0604H70.1403C70.5854 11.0604 70.4914 10.9643 71.094 12.036L71.4755 12.7141H71.9265C72.1744 12.7141 72.3775 12.7008 72.3775 12.6847C72.3775 12.6577 71.935 11.8806 71.5505 11.2322L71.3917 10.9649L71.6642 10.8247C72.6241 10.3301 72.46 8.81592 71.41 8.48009C71.283 8.43946 70.7691 8.4038 70.0712 8.38706L68.9387 8.36008V10.537ZM75.7615 10.541V12.7141H76.1427H76.5243L76.5387 11.2061L76.5531 9.69814L77.5533 11.2061L78.5531 12.7141H78.9042H79.255V10.5435V8.37279H78.8665H78.4778L78.5155 9.83273C78.5361 10.6359 78.5652 11.3336 78.5803 11.3832C78.6576 11.6421 78.4277 11.3314 77.5068 9.93351L76.4951 8.39853L76.1283 8.38334L75.7615 8.36814V10.541ZM82.975 10.5456L82.2097 12.7182L82.6508 12.7033L83.0919 12.6884L83.2125 12.3008L83.333 11.9132H84.2261H85.1192L85.2498 12.3135L85.3802 12.7141H85.8167C86.1426 12.7141 86.2471 12.6977 86.2291 12.6496C86.2156 12.614 85.8659 11.6372 85.4519 10.479L84.699 8.37279H84.2195H83.7401L82.975 10.5456ZM88.2612 8.73468V9.09625H88.889H89.5165V10.9053V12.7141H89.9259H90.3353V10.9053V9.09625H90.9631H91.5909V8.73468V8.37279H89.9259H88.2612V8.73468ZM94.5928 10.5435V12.7141H95.0021H95.4115V10.5435V8.37279H95.0021H94.5928V10.5435ZM106.11 10.5413V12.7141H106.524H106.938L106.92 11.2154C106.909 10.3909 106.914 9.71644 106.929 9.71644C106.945 9.71644 107.4 10.3853 107.942 11.2024L108.927 12.6884L109.319 12.7036L109.712 12.7188V10.5456V8.37279H109.298H108.884L108.92 9.9363L108.956 11.4995L108.829 11.3203C108.76 11.222 108.295 10.5242 107.797 9.76978L106.892 8.39853L106.501 8.38334L106.11 8.36814V10.5413ZM113.386 10.5441L112.611 12.7141H113.072C113.381 12.7141 113.533 12.6946 113.533 12.6552C113.533 12.6227 113.584 12.4366 113.645 12.2416L113.756 11.8871H114.644H115.532L115.659 12.3008L115.785 12.7141H116.215C116.451 12.7141 116.645 12.6974 116.645 12.6772C116.645 12.6465 115.226 8.67173 115.134 8.44505C115.112 8.39078 114.987 8.37279 114.633 8.37341L114.161 8.37372L113.386 10.5441ZM119.592 10.5435V12.7141H120.929H122.267V12.3523V11.9907H121.339H120.411V10.1816V8.37279H120.002H119.592V10.5435ZM101.211 9.06679C101.882 9.29347 102.263 10.0718 102.119 10.9202C101.867 12.4013 100.009 12.574 99.5544 11.1581C99.1434 9.87707 100.086 8.68661 101.211 9.06679ZM71.0494 9.14493C71.3445 9.27176 71.4677 9.45286 71.4631 9.75303C71.4549 10.2504 71.1385 10.4399 70.3168 10.4399L69.7575 10.4402V9.74249V9.04477L70.2896 9.0457C70.6935 9.04663 70.8769 9.07051 71.0494 9.14493ZM84.5765 10.1989C84.7465 10.7345 84.8749 11.1829 84.8614 11.1956C84.848 11.2083 84.5546 11.212 84.2091 11.204L83.5809 11.1894L83.8747 10.2591C84.2081 9.20292 84.2169 9.17749 84.2457 9.20509C84.2575 9.21656 84.4062 9.66372 84.5765 10.1989ZM115 10.2182C115.154 10.7072 115.28 11.1317 115.28 11.1615C115.28 11.1959 115.046 11.2154 114.632 11.2154H113.985L114.281 10.2721C114.665 9.05035 114.623 9.15765 114.676 9.2513C114.7 9.29409 114.845 9.72915 115 10.2182ZM89.5984 15.3571C82.9921 16.1472 81.8786 25.6845 88.1666 27.6223C90.6945 28.4013 93.662 27.8192 95.3512 26.2132C95.8386 25.75 96.655 24.6147 96.5578 24.5356C96.5063 24.4941 93.2657 22.9982 93.2556 23.0115C93.2503 23.0189 93.1426 23.2286 93.0168 23.4776C92.1159 25.26 89.6767 25.4827 88.5917 23.8816C87.9196 22.8903 87.7896 20.9202 88.3172 19.7229C89.2195 17.6738 91.9276 17.6481 93.0254 19.6783C93.1518 19.9124 93.271 20.1044 93.2896 20.1047C93.3086 20.1047 94.0524 19.7648 94.9425 19.3496L96.5614 18.5942L96.3898 18.303C95.1751 16.2412 92.372 15.0253 89.5984 15.3571ZM75.5159 15.4802C72.6185 15.9177 70.9571 17.8704 71.5256 20.1698C71.9173 21.7541 73.0187 22.4217 76.2777 23.0503C78.5263 23.4841 78.8184 23.6153 78.8184 24.1911C78.8184 25.6665 74.5363 25.2547 73.4657 23.6763C73.3924 23.5684 73.3662 23.5607 73.2597 23.6146C72.965 23.7641 70.4125 25.3772 70.4125 25.4141C70.4125 25.5084 71.2672 26.3246 71.6563 26.6021C74.0454 28.3058 78.6664 28.4518 80.9812 26.897C83.1846 25.4172 83.2298 22.2025 81.0647 20.9847C80.3026 20.5559 79.3509 20.2845 77.5146 19.9729C75.5316 19.6361 75.0332 19.3105 75.5025 18.6568C76.0615 17.8779 78.7899 18.1709 79.7858 19.1173L80.1006 19.4166L81.1381 18.5908C81.7083 18.1365 82.2581 17.6965 82.3597 17.6127L82.544 17.4605L82.305 17.2279C80.8551 15.8167 78.0576 15.0963 75.5159 15.4802ZM44.9222 18.8509C44.9222 20.5828 44.9058 23.2596 44.8858 24.7995L44.8494 27.5988H46.8508H48.8522V25.4799V23.3607H49.4466H50.0413L51.2688 25.4668L52.4962 27.573L54.6853 27.5863L56.8739 27.6L55.3727 25.2445C54.547 23.9489 53.8658 22.8667 53.859 22.8394C53.8521 22.8121 54.0306 22.7129 54.2559 22.6192C57.3711 21.3218 57.0131 16.7228 53.7362 15.945C53.0016 15.7704 52.565 15.7515 48.7565 15.7267L44.9222 15.7019V18.8509ZM58.5678 21.6551V27.5988H63.7806H68.9934V26.3326V25.0662H65.7456H62.4978V23.8519V22.6372H65.309H68.12V21.3711V20.1047H65.3362H62.5525V19.2004V18.2959H65.5271H68.5022V17.0037V15.7118H63.535H58.5678V21.6551ZM98.2097 19.8851C98.2323 24.5648 98.2303 24.5372 98.6446 25.3797C100.172 28.4828 106.625 28.7808 108.727 25.8455C109.562 24.6789 109.602 24.3874 109.603 19.5232L109.603 15.7118H107.641H105.679L105.661 19.7558C105.64 24.3437 105.665 24.0882 105.188 24.5508C104.398 25.3158 102.775 25.1217 102.317 24.2075C102.145 23.8633 102.126 23.4137 102.126 19.575L102.125 15.7118H100.157H98.1894L98.2097 19.8851ZM111.841 21.6551V27.5988H117.054H122.267V26.3326V25.0662H119.019H115.771V23.8519V22.6372H118.555H121.339V21.3711V20.1047H118.555H115.771V19.2004V18.2959H118.746H121.721V17.0037V15.7118H116.781H111.841V21.6551ZM51.6048 18.3213C52.5287 18.6441 52.7943 19.9626 52.0662 20.6135C51.7276 20.9162 51.3556 20.9835 50.0197 20.9835H48.8522V19.5831V18.1827L50.0937 18.205C51.1185 18.2233 51.3827 18.2438 51.6048 18.3213ZM46.4928 30.5453C44.9487 30.7977 44.2154 32.635 45.0676 34.1176C45.7691 35.3378 47.8041 35.3989 48.5685 34.2227C48.8302 33.8199 48.8341 33.7653 48.6095 33.6732C48.5027 33.6298 48.3314 33.5594 48.2289 33.5176L48.0422 33.441L47.8739 33.7235C46.9091 35.3425 44.8956 33.4707 45.8326 31.826C46.3104 30.9872 47.6673 31.0219 47.848 31.8775L47.8805 32.0303L48.298 31.9289C48.5276 31.8734 48.7212 31.8229 48.7277 31.8164C48.7343 31.8102 48.6704 31.6663 48.5859 31.4967C48.227 30.7782 47.3915 30.3983 46.4928 30.5453ZM56.1787 30.5456C54.4079 30.79 53.7011 33.1101 54.9869 34.4571C55.5338 35.0299 56.6539 35.2228 57.4313 34.8776C59.1049 34.135 59.1494 31.5097 57.5018 30.732C57.2804 30.6275 56.6123 30.4737 56.4937 30.4997C56.4786 30.5031 56.3368 30.5239 56.1787 30.5456ZM64.5722 32.7671V34.9378H64.9832H65.3945L65.3634 33.4C65.3467 32.5544 65.3218 31.7637 65.308 31.643C65.2507 31.1264 65.3929 31.5298 65.8507 33.1808L66.338 34.9378H66.7245H67.1109L67.5442 33.3743C68.1756 31.0954 68.1262 31.1143 68.0879 33.1675L68.0551 34.9378H68.4697H68.884V32.7653V30.593L68.246 30.6076L67.6081 30.6222L67.1722 32.2403C66.9321 33.1303 66.7192 33.828 66.6989 33.7908C66.6786 33.7535 66.47 33.0195 66.2352 32.1596L65.8085 30.5965H65.1901H64.5722V32.7671ZM74.9428 32.7653V34.9378H75.3525H75.7625L75.736 34.5889C75.679 33.8379 75.658 31.3984 75.7094 31.5007C75.7379 31.5578 75.9587 32.3135 76.1997 33.1805C76.4408 34.0475 76.651 34.7976 76.6674 34.8473C76.6916 34.922 76.7624 34.9378 77.0738 34.9378H77.4508L77.5313 34.6665C77.5755 34.517 77.7858 33.7672 77.998 32.9997C78.2102 32.2322 78.4071 31.5578 78.4349 31.5007C78.485 31.3984 78.4631 33.8509 78.4074 34.5889L78.3809 34.9378H78.7906H79.2003V32.7653V30.593L78.5891 30.6076L77.978 30.6222L77.5408 32.2114C77.3004 33.0856 77.0882 33.8007 77.0699 33.8007C77.0512 33.8007 76.8396 33.0856 76.5999 32.2114L76.1637 30.6222L75.5532 30.6076L74.9428 30.593V32.7653ZM85.3684 32.7671V34.9378H85.7503H86.1325V32.7671V30.5965H85.7503H85.3684V32.7671ZM91.9184 30.958V31.3199H92.5459H93.1737V33.1287V34.9378H93.5824H93.9911L94.0056 33.1417L94.0196 31.3456L94.6612 31.3311L95.3025 31.3165V30.9565V30.5965H93.6103H91.9184V30.958ZM100.652 30.958V31.3199H101.279H101.907V33.1287V34.9378H102.317H102.726V33.1287V31.3199H103.353H103.981V30.958V30.5965H102.317H100.652V30.958ZM109.712 32.7671V34.9378H111.432H113.151V34.6017V34.2658H111.841H110.531V33.6456V33.0254H111.65H112.769V32.6896V32.3535H111.65H110.531V31.8368V31.3199H111.759H112.987V30.958V30.5965H111.35H109.712V32.7671ZM118.882 32.7671V34.9378H120.575H122.267V34.6017V34.2658H120.955H119.643L119.659 33.6587L119.674 33.0512L120.779 33.0372L121.885 33.0233V32.6884V32.3535H120.766H119.647V31.8368V31.3199H120.875H122.103V30.958V30.5965H120.493H118.882V32.7671ZM56.851 31.2743C58.049 31.5599 58.2187 33.6478 57.0875 34.1818C56.1027 34.6463 55.1742 33.9579 55.1742 32.7631C55.1742 31.6883 55.897 31.0467 56.851 31.2743Z" fill="#040404"/>
<path fill-rule="evenodd" clip-rule="evenodd" d="M59.2956 8.7343C59.2956 8.94734 59.3051 9.03447 59.3169 8.92811C59.3287 8.82144 59.3287 8.64685 59.3169 8.54049C59.3051 8.43382 59.2956 8.52095 59.2956 8.7343ZM65.5181 8.7343C65.5181 8.94734 65.5276 9.03447 65.5394 8.92811C65.5512 8.82144 65.5512 8.64685 65.5394 8.54049C65.5276 8.43382 65.5181 8.52095 65.5181 8.7343ZM75.7332 10.5561L75.7342 12.7395H76.1436H76.5529L76.5569 12.3906L76.5611 12.0415L76.5408 12.3776L76.5205 12.7138H76.1416H75.7627L75.7476 10.5431L75.7325 8.37242L75.7332 10.5561ZM78.4488 8.52747C78.4488 8.62701 78.46 8.66763 78.4737 8.61801C78.4875 8.56809 78.4875 8.48684 78.4737 8.43692C78.46 8.3873 78.4488 8.42792 78.4488 8.52747ZM79.2679 10.5344L79.2548 12.7221L78.8779 12.7051C78.6702 12.6958 78.512 12.7054 78.5261 12.7268C78.571 12.795 79.2558 12.7718 79.2843 12.7007C79.2987 12.6654 79.3039 11.6709 79.2957 10.4913L79.281 8.34668L79.2679 10.5344ZM91.6091 8.7343C91.6091 8.94734 91.6186 9.03447 91.6304 8.92811C91.6422 8.82144 91.6422 8.64685 91.6304 8.54049C91.6186 8.43382 91.6091 8.52095 91.6091 8.7343ZM120.435 10.1812C120.435 11.1903 120.443 11.6033 120.451 11.0988C120.461 10.5943 120.461 9.76847 120.451 9.26394C120.443 8.75942 120.435 9.17216 120.435 10.1812ZM52.1417 9.71606C52.1417 9.84413 52.1525 9.89654 52.1653 9.83235C52.1784 9.76847 52.1784 9.66397 52.1653 9.59978C52.1525 9.5359 52.1417 9.5883 52.1417 9.71606ZM106.874 9.84537C106.874 9.91639 106.883 9.97468 106.895 9.97468C106.906 9.97468 106.928 9.91639 106.942 9.84537C106.956 9.77436 106.947 9.71606 106.921 9.71606C106.895 9.71606 106.874 9.77436 106.874 9.84537ZM108.91 10.0262C108.91 10.1824 108.92 10.2466 108.933 10.1685C108.945 10.0904 108.945 9.96228 108.933 9.88414C108.92 9.80599 108.91 9.86987 108.91 10.0262ZM78.5055 10.0262C78.5055 10.1542 78.5163 10.2066 78.5291 10.1424C78.5422 10.0786 78.5422 9.97406 78.5291 9.90987C78.5163 9.84599 78.5055 9.8984 78.5055 10.0262ZM65.2994 10.4656C65.2997 10.6646 65.3095 10.7397 65.3213 10.6324C65.3331 10.5251 65.3328 10.3623 65.321 10.2705C65.3089 10.1787 65.299 10.2665 65.2994 10.4656ZM52.1951 11.2408C52.1958 11.3546 52.2069 11.3949 52.22 11.3307C52.2331 11.2662 52.2328 11.1732 52.219 11.1239C52.2053 11.0746 52.1948 11.127 52.1951 11.2408ZM69.9348 11.0975C70.0471 11.1087 70.2315 11.1087 70.3442 11.0975C70.4565 11.0864 70.3645 11.0774 70.1395 11.0774C69.9142 11.0774 69.8221 11.0864 69.9348 11.0975ZM50.182 11.8092C50.182 12.0936 50.1911 12.2033 50.2023 12.0529C50.2134 11.9029 50.2131 11.6703 50.202 11.5363C50.1908 11.4021 50.1816 11.5252 50.182 11.8092ZM108.942 12.7293C108.967 12.7519 109.156 12.7634 109.363 12.7544L109.739 12.7386L109.319 12.7131C109.088 12.6992 108.918 12.7066 108.942 12.7293ZM45.128 12.7516C45.2564 12.7624 45.4529 12.7624 45.5645 12.7513C45.6766 12.7401 45.5714 12.7314 45.3314 12.7314C45.091 12.7317 44.9996 12.7407 45.128 12.7516ZM49.6039 12.7516C49.7323 12.7624 49.9288 12.7624 50.0405 12.7513C50.1522 12.7401 50.0474 12.7314 49.807 12.7314C49.5669 12.7317 49.4756 12.7407 49.6039 12.7516ZM52.3851 12.751C52.4817 12.7624 52.6536 12.7628 52.7669 12.7516C52.8802 12.7404 52.801 12.7308 52.5907 12.7308C52.3808 12.7305 52.2881 12.7395 52.3851 12.751ZM57.4092 12.7516C57.5376 12.7624 57.7341 12.7624 57.8458 12.7513C57.9578 12.7401 57.8527 12.7314 57.6126 12.7314C57.3722 12.7317 57.2809 12.7407 57.4092 12.7516ZM63.1117 12.7525C63.5846 12.7609 64.3585 12.7609 64.831 12.7525C65.304 12.7438 64.9172 12.7367 63.9714 12.7367C63.0259 12.7367 62.6391 12.7438 63.1117 12.7525ZM89.7227 12.7516C89.8511 12.7624 90.0476 12.7624 90.1592 12.7513C90.2709 12.7401 90.1661 12.7314 89.9257 12.7314C89.6857 12.7317 89.5943 12.7407 89.7227 12.7516ZM94.7989 12.7516C94.9273 12.7624 95.1238 12.7624 95.2355 12.7513C95.3472 12.7401 95.2424 12.7314 95.002 12.7314C94.7619 12.7317 94.6706 12.7407 94.7989 12.7516ZM106.316 12.7516C106.444 12.7624 106.641 12.7624 106.753 12.7513C106.864 12.7401 106.759 12.7314 106.519 12.7314C106.279 12.7317 106.187 12.7407 106.316 12.7516ZM100.693 12.8536C100.761 12.866 100.859 12.8657 100.911 12.8527C100.963 12.8397 100.908 12.8297 100.788 12.83C100.668 12.8307 100.625 12.8412 100.693 12.8536ZM76.6771 15.3874C76.8054 15.3983 77.0019 15.3983 77.1139 15.3871C77.2256 15.3759 77.1205 15.3673 76.8804 15.3673C76.6404 15.3676 76.5487 15.3766 76.6771 15.3874ZM51.8411 15.7481C51.9089 15.7601 52.0071 15.7598 52.0592 15.7468C52.1116 15.7338 52.0559 15.7239 51.9357 15.7245C51.8159 15.7251 51.773 15.7357 51.8411 15.7481ZM105.644 19.5359C105.644 21.6535 105.651 22.5199 105.659 21.461C105.668 20.4023 105.668 18.6695 105.659 17.6108C105.651 16.5518 105.644 17.4182 105.644 19.5359ZM109.629 19.2515C109.629 21.2129 109.636 22.008 109.644 21.0178C109.652 20.028 109.652 18.4233 109.644 17.4517C109.636 16.4805 109.629 17.2902 109.629 19.2515ZM121.733 16.99L121.721 18.2946L118.732 18.3085L115.744 18.3222L118.734 18.3346C121.109 18.3445 121.73 18.3336 121.751 18.2815C121.765 18.2456 121.77 17.6468 121.762 16.9509L121.746 15.6854L121.733 16.99ZM44.8932 20.1561C44.8932 22.217 44.9001 23.0601 44.9082 22.0297C44.9164 20.9992 44.9164 19.3129 44.9082 18.2825C44.9001 17.252 44.8932 18.0952 44.8932 20.1561ZM76.7576 18.2279C76.81 18.2406 76.8961 18.2406 76.9485 18.2279C77.0013 18.2149 76.958 18.204 76.8532 18.204C76.7481 18.204 76.7052 18.2149 76.7576 18.2279ZM64.0434 18.3343C64.8789 18.3423 66.2298 18.3423 67.0456 18.3343C67.8617 18.3262 67.1782 18.3197 65.527 18.3197C63.8761 18.3197 63.2083 18.3262 64.0434 18.3343ZM63.9072 22.6756C64.6971 22.6837 65.9743 22.6837 66.7453 22.6756C67.5162 22.6675 66.8697 22.6607 65.3089 22.661C63.7477 22.661 63.1169 22.6675 63.9072 22.6756ZM117.149 22.6756C117.922 22.6837 119.187 22.6837 119.96 22.6756C120.733 22.6675 120.101 22.6607 118.555 22.6607C117.009 22.6607 116.376 22.6675 117.149 22.6756ZM102.138 23.4121C102.138 23.5116 102.149 23.5522 102.163 23.5026C102.177 23.4527 102.177 23.3715 102.163 23.3215C102.149 23.2719 102.138 23.3125 102.138 23.4121ZM49.0157 23.3938C49.4634 23.4319 50.0952 23.435 50.0716 23.3991C50.0578 23.378 49.7713 23.3643 49.4353 23.369C49.0996 23.3739 48.9106 23.3851 49.0157 23.3938ZM82.6516 23.774C82.6516 23.8732 82.6628 23.9141 82.6765 23.8642C82.6903 23.8146 82.6903 23.733 82.6765 23.6834C82.6628 23.6338 82.6516 23.6744 82.6516 23.774ZM69.0168 26.3323C69.0168 27.0427 69.0244 27.3407 69.0339 26.994C69.0434 26.6476 69.0434 26.0662 69.0339 25.7021C69.0247 25.3381 69.0168 25.6215 69.0168 26.3323ZM19.5538 30.5313L19.5407 35.0401L14.0961 35.0537L8.65137 35.067L14.0977 35.0798C18.4145 35.0897 19.5496 35.0788 19.5702 35.0277C19.5843 34.9923 19.5895 32.9516 19.5817 30.4925L19.5673 26.0222L19.5538 30.5313ZM108.208 26.4225L108.048 26.5906L108.225 26.4386C108.322 26.3552 108.402 26.2798 108.402 26.2709C108.402 26.2309 108.357 26.2659 108.208 26.4225ZM104.077 27.8933C104.145 27.9057 104.243 27.9054 104.295 27.8923C104.348 27.8793 104.292 27.8694 104.172 27.8697C104.052 27.8703 104.009 27.8809 104.077 27.8933ZM85.3401 32.7795L85.3407 34.9632H85.7501H86.1595L86.1605 32.7667L86.1615 30.57L86.1464 32.7537L86.131 34.9374H85.7501H85.3692L85.3542 32.7667L85.3391 30.5961L85.3401 32.7795ZM118.854 32.7795L118.855 34.9632L120.561 34.9644L122.266 34.9653L120.575 34.9508L118.884 34.9359L118.868 32.7658L118.853 30.5961L118.854 32.7795ZM119.667 31.8365C119.667 32.1348 119.676 32.257 119.687 32.1078C119.698 31.9583 119.698 31.7143 119.687 31.5651C119.676 31.4157 119.667 31.5378 119.667 31.8365ZM94.0051 33.1392L93.9923 34.9331L93.5692 34.9504L93.1464 34.9681L93.5711 34.9787C94.1004 34.9917 94.0513 35.1908 94.0332 33.1023L94.0182 31.3453L94.0051 33.1392ZM75.6693 32.1723C75.6697 32.3428 75.6798 32.4064 75.6919 32.3134C75.704 32.2207 75.7037 32.0811 75.6913 32.0033C75.6788 31.9258 75.669 32.0017 75.6693 32.1723ZM78.4531 32.1723C78.4534 32.3428 78.4636 32.4064 78.4757 32.3134C78.4878 32.2207 78.4875 32.0811 78.475 32.0033C78.4626 31.9258 78.4528 32.0017 78.4531 32.1723ZM68.0815 33.0768C68.0815 33.2331 68.092 33.297 68.1044 33.2189C68.1169 33.1407 68.1169 33.0127 68.1044 32.9345C68.092 32.8564 68.0815 32.9202 68.0815 33.0768ZM119.667 33.671C119.667 34.0121 119.676 34.1451 119.687 33.9662C119.698 33.7876 119.697 33.5085 119.687 33.346C119.676 33.1838 119.667 33.3299 119.667 33.671ZM65.3531 33.5159C65.3534 33.6865 65.3636 33.7501 65.3757 33.6573C65.3878 33.5643 65.3875 33.4248 65.375 33.3472C65.3626 33.2694 65.3528 33.3454 65.3531 33.5159ZM28.5195 34.4723C28.8489 34.7849 29.1303 35.0407 29.1453 35.0407C29.1604 35.0407 28.9033 34.7849 28.5742 34.4723C28.245 34.1594 27.9634 33.9036 27.9483 33.9036C27.9333 33.9036 28.1903 34.1594 28.5195 34.4723ZM75.7237 34.3948C75.724 34.5653 75.7342 34.6289 75.7463 34.5358C75.7587 34.4428 75.7584 34.3033 75.746 34.2258C75.7335 34.1482 75.7234 34.2242 75.7237 34.3948ZM78.3977 34.4205C78.3977 34.5768 78.4082 34.6407 78.4207 34.5625C78.4331 34.4844 78.4331 34.3566 78.4207 34.2785C78.4082 34.2003 78.3977 34.2642 78.3977 34.4205ZM76.6486 34.8856C76.6656 34.9452 76.7645 34.9641 77.0759 34.9672L77.4807 34.9712L77.1002 34.9517C76.8896 34.9408 76.699 34.9042 76.6731 34.8701C76.6404 34.8264 76.6332 34.8311 76.6486 34.8856ZM64.778 34.9753C64.9064 34.9861 65.1029 34.9861 65.2146 34.9749C65.3266 34.9638 65.2214 34.9548 64.9814 34.9551C64.741 34.9551 64.6496 34.9644 64.778 34.9753ZM66.5219 34.9746C66.6189 34.9861 66.7908 34.9861 66.9041 34.9749C67.0174 34.9638 66.9382 34.9545 66.7279 34.9542C66.5177 34.9542 66.425 34.9632 66.5219 34.9746ZM68.2714 34.9753C68.3998 34.9861 68.5963 34.9861 68.708 34.9749C68.8197 34.9638 68.7149 34.9548 68.4745 34.9551C68.2344 34.9551 68.1431 34.9644 68.2714 34.9753ZM75.1489 34.9753C75.2773 34.9861 75.4738 34.9861 75.5855 34.9749C75.6972 34.9638 75.5924 34.9548 75.352 34.9551C75.1119 34.9551 75.0206 34.9644 75.1489 34.9753ZM78.5877 34.9753C78.7161 34.9861 78.9126 34.9861 79.0242 34.9749C79.1359 34.9638 79.0311 34.9548 78.7907 34.9551C78.5507 34.9551 78.4593 34.9644 78.5877 34.9753ZM102.113 34.9753C102.241 34.9861 102.438 34.9861 102.55 34.9749C102.662 34.9638 102.556 34.9548 102.316 34.9551C102.076 34.9551 101.985 34.9644 102.113 34.9753ZM110.575 34.9759C111.065 34.9846 111.851 34.9846 112.322 34.9759C112.793 34.9675 112.392 34.9604 111.432 34.9604C110.471 34.9604 110.086 34.9675 110.575 34.9759ZM56.3707 35.0773C56.4382 35.0894 56.5489 35.0894 56.6164 35.0773C56.6838 35.0649 56.6285 35.0546 56.4936 35.0546C56.3586 35.0546 56.3033 35.0649 56.3707 35.0773Z" fill="#44340C"/>
<path fill-rule="evenodd" clip-rule="evenodd" d="M15.7654 8.2565C19.6781 8.26394 26.0643 8.26394 29.9573 8.2565C33.85 8.24906 30.6487 8.24316 22.8434 8.24316C15.0381 8.24316 11.8528 8.24906 15.7654 8.2565ZM83.7128 8.35542C83.6928 8.37464 83.6768 8.41527 83.6775 8.44597C83.6778 8.4807 83.6942 8.47822 83.72 8.43945C83.7462 8.40069 83.947 8.37061 84.2512 8.35976L84.7409 8.34239L84.245 8.33185C83.9722 8.32596 83.7328 8.3365 83.7128 8.35542ZM114.422 8.35914C114.566 8.36968 114.787 8.36968 114.913 8.35883C115.04 8.34798 114.923 8.33929 114.652 8.33929C114.382 8.3396 114.279 8.3486 114.422 8.35914ZM119.797 8.35883C119.924 8.36968 120.133 8.36968 120.261 8.35883C120.389 8.34798 120.284 8.33929 120.029 8.33929C119.774 8.33929 119.669 8.34798 119.797 8.35883ZM44.8926 10.5435C44.8926 11.7516 44.8998 12.2459 44.9087 11.6418C44.9172 11.0378 44.9172 10.0492 44.9087 9.4451C44.8998 8.84103 44.8926 9.33532 44.8926 10.5435ZM49.3686 10.5435C49.3686 11.7516 49.3758 12.2459 49.3843 11.6418C49.3931 11.0378 49.3931 10.0492 49.3843 9.4451C49.3758 8.84103 49.3686 9.33532 49.3686 10.5435ZM52.0855 8.52783C52.0855 8.62737 52.0966 8.668 52.1104 8.61838C52.1242 8.56845 52.1242 8.48721 52.1104 8.43728C52.0966 8.38767 52.0855 8.42829 52.0855 8.52783ZM62.2501 10.5435C62.2501 11.7516 62.2573 12.2459 62.2662 11.6418C62.2747 11.0378 62.2747 10.0492 62.2662 9.4451C62.2573 8.84103 62.2501 9.33532 62.2501 10.5435ZM95.437 10.5692C95.437 11.7916 95.4442 12.2843 95.4527 11.6641C95.4616 11.044 95.4616 10.0439 95.4527 9.44169C95.4439 8.83948 95.437 9.34711 95.437 10.5692ZM108.854 8.57962C108.854 8.70738 108.865 8.75978 108.878 8.6959C108.891 8.63171 108.891 8.52721 108.878 8.46333C108.865 8.39914 108.854 8.45155 108.854 8.57962ZM78.4492 8.83793C78.4492 8.93747 78.4604 8.97809 78.4741 8.92848C78.4879 8.87855 78.4879 8.79731 78.4741 8.74738C78.4604 8.69776 78.4492 8.73839 78.4492 8.83793ZM69.7816 9.11205C69.7666 9.14926 69.762 9.46897 69.7715 9.82279L69.7888 10.4659L69.8006 9.78496C69.8108 9.18524 69.8239 9.1012 69.9077 9.08042C69.9975 9.0581 69.9971 9.05624 69.9061 9.05065C69.8527 9.04724 69.7967 9.07515 69.7816 9.11205ZM56.5614 9.13438L57.1477 9.15144L57.1631 10.9326L57.1785 12.7141L57.1775 10.9181L57.1762 9.12229L56.5759 9.1195L55.9756 9.11701L56.5614 9.13438ZM58.0473 9.16136C58.0326 9.19702 58.0277 10.0284 58.0358 11.0089L58.0512 12.7917L58.064 10.9714L58.0768 9.15144L58.6908 9.135L59.3049 9.11857L58.6892 9.1074C58.2366 9.09934 58.0666 9.1136 58.0473 9.16136ZM88.8749 9.13438L89.4608 9.15144L89.4762 10.9326L89.4919 12.7141L89.4906 10.9181L89.4896 9.12229L88.8893 9.1195L88.2887 9.11701L88.8749 9.13438ZM90.3604 9.16136C90.346 9.19702 90.3411 10.0284 90.3493 11.0089L90.3643 12.7917L90.3775 10.9714L90.3902 9.15144L91.0043 9.135L91.6184 9.11857L91.0027 9.1074C90.5497 9.09934 90.3797 9.1136 90.3604 9.16136ZM52.1399 10.0783C52.1399 10.1779 52.1513 10.2185 52.1651 10.1689C52.1785 10.1189 52.1785 10.0377 52.1651 9.98776C52.1513 9.93815 52.1399 9.97877 52.1399 10.0783ZM78.5036 10.3884C78.5036 10.4879 78.5151 10.5286 78.5288 10.479C78.5423 10.429 78.5423 10.3478 78.5288 10.2979C78.5151 10.2482 78.5036 10.2889 78.5036 10.3884ZM108.91 10.5177C108.91 10.6597 108.921 10.7118 108.933 10.6331C108.946 10.5546 108.945 10.4383 108.932 10.3748C108.92 10.3112 108.909 10.3754 108.91 10.5177ZM99.4649 10.5177C99.4656 10.6312 99.4767 10.6718 99.4898 10.6073C99.5026 10.5431 99.5023 10.4501 99.4885 10.4008C99.4748 10.3512 99.4643 10.4039 99.4649 10.5177ZM50.1821 10.8536C50.1821 11.1236 50.1912 11.234 50.2024 11.0991C50.2138 10.9639 50.2138 10.7432 50.2024 10.608C50.1912 10.4731 50.1821 10.5835 50.1821 10.8536ZM63.6309 10.8405C63.9384 10.8495 64.4421 10.8495 64.7496 10.8405C65.0574 10.8312 64.8056 10.8238 64.1902 10.8238C63.5749 10.8238 63.323 10.8312 63.6309 10.8405ZM69.7698 11.898L69.7577 12.7098L69.3346 12.7275L68.9118 12.7451L69.3366 12.7554C69.8527 12.7681 69.8196 12.8323 69.7987 11.8592L69.782 11.0861L69.7698 11.898ZM76.5455 11.6031C76.5452 11.8589 76.5547 11.9699 76.5658 11.8499C76.5773 11.7302 76.5776 11.5209 76.5661 11.3847C76.555 11.2489 76.5455 11.3472 76.5455 11.6031ZM83.9083 11.2018C84.0809 11.212 84.3636 11.212 84.5362 11.2018C84.7088 11.1916 84.5676 11.1832 84.2224 11.1832C83.8769 11.1832 83.7358 11.1916 83.9083 11.2018ZM114.341 11.2021C114.53 11.212 114.824 11.212 114.996 11.2018C115.167 11.1916 115.013 11.1832 114.652 11.1835C114.292 11.1835 114.152 11.1919 114.341 11.2021ZM106.948 12.3265C106.948 12.5823 106.957 12.6937 106.969 12.5737C106.98 12.4536 106.98 12.2443 106.969 12.1085C106.958 11.9727 106.949 12.0707 106.948 12.3265ZM64.3789 12.0288L65.6594 12.044L65.6787 12.3919L65.6984 12.7399L65.6948 12.3783L65.6912 12.0164L64.3949 12.0149L63.0983 12.0136L64.3789 12.0288ZM122.277 12.3386L122.267 12.7123L120.916 12.7272L119.565 12.7417L120.918 12.7538C122.452 12.7675 122.338 12.8053 122.307 12.2952L122.288 11.9646L122.277 12.3386ZM102.286 12.2877L102.098 12.4816L102.303 12.3036C102.494 12.1377 102.533 12.0939 102.491 12.0939C102.482 12.0939 102.39 12.1811 102.286 12.2877ZM82.6393 12.7141L82.1756 12.7467L82.6226 12.7563C82.8735 12.7616 83.0844 12.743 83.1034 12.7141C83.122 12.6856 83.1296 12.6667 83.1204 12.672C83.1109 12.6772 82.8944 12.6961 82.6393 12.7141ZM71.6818 12.7523C71.8243 12.7628 72.0578 12.7628 72.2002 12.7523C72.343 12.7414 72.2261 12.7327 71.9412 12.7327C71.6559 12.7327 71.5393 12.7414 71.6818 12.7523ZM85.5734 12.752C85.7008 12.7628 85.9097 12.7628 86.0371 12.752C86.1648 12.7411 86.0603 12.7321 85.8052 12.7321C85.5501 12.7321 85.4456 12.7411 85.5734 12.752ZM112.81 12.752C112.938 12.7628 113.147 12.7628 113.274 12.752C113.402 12.7411 113.298 12.7321 113.042 12.7321C112.787 12.7321 112.683 12.7411 112.81 12.752ZM116.005 12.7523C116.149 12.7628 116.37 12.7628 116.496 12.752C116.623 12.7411 116.506 12.7324 116.236 12.7324C115.965 12.7327 115.862 12.7414 116.005 12.7523ZM77.3583 15.3856C77.4111 15.3986 77.4969 15.3986 77.5496 15.3856C77.602 15.3726 77.5591 15.362 77.454 15.362C77.3489 15.362 77.3059 15.3726 77.3583 15.3856ZM44.8861 16.0734C44.8861 16.2867 44.8956 16.3739 44.9074 16.2672C44.9192 16.1608 44.9192 15.9863 44.9074 15.8796C44.8956 15.7732 44.8861 15.8604 44.8861 16.0734ZM102.151 19.4845C102.151 21.5739 102.158 22.4285 102.166 21.3838C102.175 20.3394 102.175 18.6298 102.166 17.5851C102.158 16.5407 102.151 17.3953 102.151 19.4845ZM111.814 21.6551L111.814 27.6245H117.054H122.294V26.3326V25.0405L119.061 25.0271L115.828 25.0138L115.812 23.8512L115.796 22.6887L115.797 23.8646L115.799 25.0405L119.033 25.0538L122.267 25.0671V26.3329V27.5987H117.054H111.842L111.828 21.6424L111.814 15.6858L111.814 21.6551ZM94.9752 16.7097C94.9752 16.7187 95.0551 16.7944 95.1527 16.8778L95.3299 17.0297L95.1698 16.8617C95.0204 16.7051 94.9752 16.67 94.9752 16.7097ZM82.2846 17.2105C82.4323 17.3525 82.5656 17.4688 82.5807 17.4688C82.5957 17.4688 82.487 17.3525 82.3393 17.2105C82.1913 17.0685 82.058 16.9522 82.0432 16.9522C82.0282 16.9522 82.1369 17.0685 82.2846 17.2105ZM48.877 18.258C48.8623 18.294 48.8573 18.9278 48.8658 19.6662L48.8816 21.0092L48.8943 19.6277L48.9068 18.2466L49.9577 18.2311L51.0084 18.2159L49.9558 18.2044C49.1478 18.1951 48.8973 18.2078 48.877 18.258ZM115.794 19.2004C115.794 19.6835 115.802 19.8882 115.812 19.655C115.822 19.4218 115.822 19.0264 115.812 18.7765C115.802 18.5263 115.794 18.717 115.794 19.2004ZM84.6835 18.6624C84.6357 18.7505 84.6059 18.8314 84.618 18.8426C84.6298 18.854 84.6803 18.7821 84.73 18.6829C84.8424 18.4599 84.8034 18.4428 84.6835 18.6624ZM29.8709 18.5929C31.1845 18.6007 33.3335 18.6007 34.6471 18.5929C35.9604 18.5852 34.8859 18.579 32.259 18.579C29.6321 18.579 28.5576 18.5852 29.8709 18.5929ZM98.1661 20.9317C98.1661 22.1398 98.1733 22.6341 98.1818 22.03C98.1906 21.426 98.1906 20.4374 98.1818 19.8333C98.1733 19.2292 98.1661 19.7235 98.1661 20.9317ZM56.4023 19.5362C56.4023 19.7211 56.4121 19.7967 56.4242 19.7043C56.4363 19.6119 56.4363 19.4606 56.4242 19.3682C56.4121 19.2758 56.4023 19.3514 56.4023 19.5362ZM121.363 21.3968C121.363 22.1215 121.37 22.4183 121.38 22.0558C121.389 21.6933 121.389 21.1004 121.38 20.7379C121.37 20.3754 121.363 20.6718 121.363 21.3968ZM88.0077 21.4486C88.0077 21.6902 88.0172 21.7891 88.0286 21.6682C88.0401 21.5472 88.0401 21.3497 88.0286 21.2288C88.0172 21.1081 88.0077 21.2067 88.0077 21.4486ZM83.9663 21.7327C83.9666 21.9032 83.9768 21.9668 83.9889 21.8741C84.001 21.781 84.0007 21.6415 83.9883 21.564C83.9758 21.4861 83.966 21.5621 83.9663 21.7327ZM62.5239 23.8646L62.5256 25.0405L65.773 25.0411L69.0209 25.0417L65.7878 25.0277L62.5547 25.0138L62.5386 23.8512L62.5223 22.6887L62.5239 23.8646ZM109.617 22.973C109.618 23.0868 109.629 23.1272 109.642 23.063C109.655 22.9988 109.655 22.9058 109.641 22.8561C109.627 22.8068 109.617 22.8595 109.617 22.973ZM95.4118 24.0069C95.607 24.1037 95.7914 24.1827 95.8212 24.1827C95.8513 24.1827 95.716 24.1037 95.5212 24.0069C95.326 23.9102 95.1416 23.8311 95.1118 23.8311C95.0817 23.8311 95.2166 23.9102 95.4118 24.0069ZM82.6521 24.0844C82.6521 24.1837 82.6632 24.2246 82.6769 24.1747C82.6907 24.125 82.6907 24.0435 82.6769 23.9939C82.6632 23.9443 82.6521 23.9849 82.6521 24.0844ZM82.2407 25.5062C82.1906 25.6054 82.1611 25.6864 82.1749 25.6864C82.2122 25.6864 82.3779 25.3701 82.3531 25.3465C82.3413 25.335 82.2905 25.407 82.2407 25.5062ZM70.9859 26.1C71.1031 26.2135 71.2112 26.3066 71.2262 26.3066C71.2413 26.3066 71.1578 26.2135 71.0406 26.1C70.9233 25.9862 70.8149 25.8932 70.7998 25.8932C70.7851 25.8932 70.8686 25.9862 70.9859 26.1ZM85.6962 26.1776C85.798 26.2768 85.8937 26.3584 85.9084 26.3584C85.9235 26.3584 85.8524 26.2768 85.7505 26.1776C85.6487 26.078 85.5531 25.9965 85.5383 25.9965C85.5232 25.9965 85.5943 26.078 85.6962 26.1776ZM22.2431 28.5808C23.7139 29.9735 24.9295 31.1131 24.9443 31.1131C24.9593 31.1131 23.7682 29.9735 22.2974 28.5808C20.8266 27.1879 19.6109 26.0483 19.5962 26.0483C19.5811 26.0483 20.7722 27.1879 22.2431 28.5808ZM95.3545 26.2421L95.1662 26.4359L95.3708 26.2579C95.4835 26.1599 95.5755 26.0725 95.5755 26.0641C95.5755 26.0244 95.5294 26.0616 95.3545 26.2421ZM61.1432 27.6375C62.5743 27.6453 64.9323 27.6453 66.3832 27.6375C67.834 27.6298 66.6629 27.6236 63.7809 27.6236C60.8989 27.6236 59.712 27.6298 61.1432 27.6375ZM76.5124 27.9988C76.6699 28.009 76.928 28.009 77.0855 27.9988C77.2431 27.9882 77.1144 27.9795 76.799 27.9795C76.4836 27.9795 76.3549 27.9882 76.5124 27.9988ZM90.3493 27.9975C90.4318 28.0093 90.5671 28.0093 90.6496 27.9975C90.7321 27.9857 90.6643 27.9761 90.4993 27.9761C90.3342 27.9761 90.2668 27.9857 90.3493 27.9975ZM74.9136 32.7671C74.9136 33.9753 74.9208 34.4692 74.9293 33.8652C74.9381 33.2611 74.9381 32.2728 74.9293 31.6688C74.9208 31.0647 74.9136 31.559 74.9136 32.7671ZM79.2258 32.7929C79.2258 34.0153 79.233 34.5077 79.2415 33.8875C79.2503 33.2673 79.2503 32.2672 79.2415 31.6653C79.2326 31.0631 79.2258 31.5705 79.2258 32.7929ZM100.62 30.958L100.625 31.3456L101.238 31.3602L101.851 31.3751L101.867 33.1563L101.882 34.9378L101.881 33.1417L101.88 31.3456L101.268 31.3311L100.657 31.3165L100.636 30.9434L100.616 30.5704L100.62 30.958ZM103.992 30.9434L103.981 31.3165L103.367 31.3311L102.753 31.3456L102.752 33.1547L102.751 34.9635L102.767 33.1675L102.782 31.3717H103.383C104.074 31.3717 104.051 31.3881 104.022 30.901L104.002 30.5704L103.992 30.9434ZM92.2347 31.3584C92.4233 31.3683 92.7181 31.3683 92.8897 31.358C93.061 31.3478 92.9064 31.3394 92.5462 31.3397C92.1859 31.3397 92.0457 31.3481 92.2347 31.3584ZM94.3635 31.3584C94.5521 31.3683 94.8468 31.3683 95.0185 31.358C95.1897 31.3478 95.0352 31.3394 94.6749 31.3397C94.3147 31.3397 94.1745 31.3481 94.3635 31.3584ZM110.552 31.8368C110.552 32.1351 110.561 32.2573 110.572 32.1082C110.583 31.9587 110.583 31.7147 110.572 31.5655C110.561 31.416 110.552 31.5382 110.552 31.8368ZM75.6675 31.6818C75.6675 31.8095 75.6783 31.8619 75.6914 31.7981C75.7041 31.7339 75.7041 31.6294 75.6914 31.5655C75.6783 31.5013 75.6675 31.5537 75.6675 31.6818ZM78.4253 31.5394C78.4126 31.5751 78.4194 31.674 78.4401 31.7593C78.4751 31.9013 78.4787 31.8961 78.4846 31.6945C78.4912 31.4756 78.4686 31.4173 78.4253 31.5394ZM68.0832 32.5085C68.0832 32.6933 68.093 32.769 68.1052 32.6766C68.1173 32.5842 68.1173 32.4331 68.1052 32.3407C68.093 32.2483 68.0832 32.3237 68.0832 32.5085ZM112.78 32.6756L112.769 33.0233L111.664 33.0372L110.559 33.0512V33.6456V34.2401L111.869 34.2413L113.179 34.2429L111.882 34.2277L110.586 34.2122V33.6447V33.0772H111.679C112.916 33.0772 112.841 33.1067 112.81 32.6319L112.79 32.3277L112.78 32.6756ZM121.895 32.6756L121.885 33.0233L120.78 33.0385L119.674 33.0536L120.781 33.0654C122.035 33.0788 121.957 33.1082 121.926 32.6319L121.906 32.3277L121.895 32.6756ZM57.8197 32.7929C57.82 32.9349 57.8305 32.987 57.8433 32.9085C57.8557 32.8298 57.8554 32.7135 57.8423 32.6499C57.8295 32.5863 57.819 32.6508 57.8197 32.7929ZM65.3529 32.9736C65.3529 33.1299 65.363 33.1941 65.3755 33.116C65.3882 33.0378 65.3882 32.9098 65.3755 32.8316C65.363 32.7535 65.3529 32.8174 65.3529 32.9736ZM78.3995 33.8525C78.3995 34.0373 78.4093 34.1126 78.4214 34.0202C78.4335 33.9278 78.4335 33.7768 78.4214 33.6844C78.4093 33.592 78.3995 33.6676 78.3995 33.8525ZM75.7238 33.8525C75.7238 34.0087 75.7339 34.0726 75.7464 33.9945C75.7588 33.9163 75.7588 33.7883 75.7464 33.7101C75.7339 33.632 75.7238 33.6959 75.7238 33.8525ZM120.982 34.2525L122.262 34.2677L122.282 34.6156L122.301 34.9635L122.298 34.6016L122.294 34.2401L120.998 34.2385L119.701 34.237L120.982 34.2525ZM54.8565 34.3852C54.8565 34.3942 54.9364 34.4699 55.034 34.5533L55.2112 34.7052L55.051 34.5371C54.9017 34.3805 54.8565 34.3455 54.8565 34.3852ZM68.0266 34.7052C68.0272 34.8472 68.0377 34.8993 68.0501 34.8206C68.0629 34.7421 68.0626 34.6258 68.0495 34.5623C68.0364 34.4987 68.0262 34.5629 68.0266 34.7052ZM31.099 35.0798C32.1873 35.0876 33.9682 35.0876 35.0565 35.0798C36.1448 35.0721 35.2543 35.0655 33.0777 35.0655C30.9012 35.0655 30.0107 35.0721 31.099 35.0798Z" fill="#846414"/>
<path fill-rule="evenodd" clip-rule="evenodd" d="M8.65088 21.6812C8.65088 29.0718 8.65743 32.1029 8.66496 28.4168C8.67282 24.731 8.67282 18.6841 8.66496 14.9794C8.65743 11.2747 8.65088 14.2904 8.65088 21.6812ZM55.9121 8.76045C55.9121 8.98775 55.9219 9.07458 55.9334 8.95302C55.9448 8.83146 55.9448 8.64541 55.933 8.53935C55.9212 8.43361 55.9117 8.53315 55.9121 8.76045ZM68.9092 10.5692C68.9092 11.7916 68.9164 12.2844 68.925 11.6642C68.9338 11.044 68.9338 10.0439 68.925 9.44173C68.9161 8.83953 68.9092 9.34715 68.9092 10.5692ZM88.2252 8.76045C88.2255 8.98775 88.235 9.07458 88.2468 8.95302C88.2583 8.83146 88.2579 8.64541 88.2461 8.53935C88.2347 8.43361 88.2252 8.53315 88.2252 8.76045ZM94.5633 10.5692C94.5633 11.7916 94.5705 12.2844 94.5793 11.6642C94.5879 11.044 94.5879 10.0439 94.579 9.44173C94.5705 8.83953 94.5633 9.34715 94.5633 10.5692ZM119.562 10.5692C119.562 11.7916 119.57 12.2844 119.578 11.6642C119.587 11.044 119.587 10.0439 119.578 9.44173C119.57 8.83953 119.562 9.34715 119.562 10.5692ZM52.0872 8.88976C52.0872 9.01752 52.098 9.06993 52.1111 9.00605C52.1239 8.94186 52.1239 8.83736 52.1111 8.77348C52.098 8.70929 52.0872 8.76169 52.0872 8.88976ZM108.855 9.04481C108.855 9.2011 108.866 9.26498 108.878 9.18683C108.891 9.10869 108.891 8.98062 108.878 8.90248C108.866 8.82433 108.855 8.88821 108.855 9.04481ZM78.451 9.19986C78.451 9.32762 78.4618 9.38002 78.4749 9.31614C78.4876 9.25195 78.4876 9.14745 78.4749 9.08357C78.4618 9.01938 78.451 9.07179 78.451 9.19986ZM70.1269 9.08202C70.2251 9.09381 70.3725 9.0935 70.4544 9.08171C70.5363 9.06993 70.456 9.06032 70.2759 9.06063C70.0958 9.06094 70.0286 9.07055 70.1269 9.08202ZM50.1795 10.0784C50.1795 10.2632 50.1893 10.3388 50.2015 10.2464C50.2136 10.154 50.2136 10.0027 50.2015 9.91029C50.1893 9.81788 50.1795 9.89354 50.1795 10.0784ZM76.5459 10.6728C76.5459 10.9569 76.5551 11.0666 76.5662 10.9166C76.5773 10.7662 76.577 10.5336 76.5659 10.3996C76.5547 10.2657 76.5456 10.3885 76.5459 10.6728ZM52.1419 10.4402C52.1419 10.568 52.1527 10.6204 52.1655 10.5565C52.1786 10.4923 52.1786 10.3878 52.1655 10.324C52.1527 10.2598 52.1419 10.3122 52.1419 10.4402ZM78.5056 10.7503C78.5056 10.8781 78.5164 10.9305 78.5292 10.8666C78.5423 10.8024 78.5423 10.6979 78.5292 10.6341C78.5164 10.5699 78.5056 10.6223 78.5056 10.7503ZM108.909 10.9829C108.91 11.1249 108.92 11.177 108.933 11.0983C108.945 11.0198 108.945 10.9035 108.932 10.84C108.919 10.7764 108.909 10.8406 108.909 10.9829ZM106.949 11.3963C106.949 11.6806 106.958 11.7901 106.969 11.64C106.98 11.4899 106.98 11.2573 106.969 11.1231C106.958 10.9891 106.948 11.1119 106.949 11.3963ZM58.5396 21.6812C58.5396 24.9785 58.5462 26.3352 58.5543 24.6957C58.5622 23.0562 58.5622 20.3584 58.5543 18.7006C58.5462 17.0425 58.5396 18.3837 58.5396 21.6812ZM68.5257 17.0298C68.5257 17.7687 68.5336 18.064 68.5428 17.6856C68.5523 17.3073 68.5523 16.7026 68.5428 16.3417C68.5336 15.981 68.5257 16.2905 68.5257 17.0298ZM98.1651 17.2363C98.1648 18.0891 98.1723 18.4454 98.1815 18.0277C98.1907 17.6103 98.1907 16.9126 98.1815 16.4772C98.1723 16.0421 98.1651 16.3835 98.1651 17.2363ZM32.2315 23.1024C34.843 25.5754 36.9921 27.5988 37.0071 27.5988C37.0222 27.5988 34.8977 25.5754 32.2859 23.1024C29.6744 20.6294 27.5254 18.606 27.5103 18.606C27.4952 18.606 29.6197 20.6294 32.2315 23.1024ZM63.9306 20.092C64.7038 20.1 65.9686 20.1 66.7418 20.092C67.5147 20.0836 66.8823 20.0771 65.3362 20.0771C63.7901 20.0771 63.1577 20.0836 63.9306 20.092ZM117.208 20.092C117.983 20.1 119.236 20.1 119.992 20.092C120.748 20.0836 120.113 20.0771 118.582 20.0771C117.051 20.0771 116.433 20.0836 117.208 20.092ZM83.9618 21.2936C83.9618 21.3928 83.9729 21.4338 83.9867 21.3838C84.0004 21.3342 84.0004 21.2527 83.9867 21.2031C83.9729 21.1534 83.9618 21.1941 83.9618 21.2936ZM83.9618 22.1721C83.9618 22.2717 83.9729 22.3123 83.9867 22.2627C84.0004 22.2127 84.0004 22.1315 83.9867 22.0816C83.9729 22.0319 83.9618 22.0726 83.9618 22.1721ZM98.1547 23.2832C98.1553 23.397 98.1665 23.4373 98.1796 23.3731C98.1923 23.3089 98.192 23.2159 98.1782 23.1663C98.1645 23.117 98.154 23.1697 98.1547 23.2832ZM48.877 25.5056C48.877 26.671 48.8843 27.1554 48.8928 26.5814C48.9016 26.0077 48.9016 25.0541 48.8931 24.4625C48.8843 23.8708 48.877 24.3403 48.877 25.5056ZM90.8681 27.9973C90.9362 28.0094 91.0345 28.0091 91.0866 27.996C91.1386 27.983 91.0833 27.9731 90.9631 27.9737C90.8429 27.9743 90.8003 27.9849 90.8681 27.9973ZM64.5424 32.7929C64.5424 34.0153 64.5496 34.5077 64.5584 33.8875C64.5669 33.2674 64.5669 32.2673 64.5584 31.6654C64.5496 31.0632 64.5424 31.5705 64.5424 32.7929ZM122.121 30.9581C122.121 31.1714 122.131 31.2586 122.143 31.1519C122.155 31.0455 122.155 30.8709 122.143 30.7643C122.131 30.6579 122.121 30.745 122.121 30.9581ZM24.9447 31.1264C24.9447 31.1339 25.6137 31.7674 26.4318 32.5349L27.9193 33.93L26.4459 32.5216C25.0766 31.2127 24.9447 31.0899 24.9447 31.1264ZM93.1436 33.1805C93.1436 34.1896 93.1511 34.6023 93.16 34.0978C93.1688 33.5933 93.1688 32.7678 93.16 32.2633C93.1511 31.7587 93.1436 32.1715 93.1436 33.1805ZM68.0816 31.9401C68.0816 32.0964 68.0921 32.1603 68.1046 32.0822C68.117 32.004 68.117 31.8763 68.1046 31.7981C68.0921 31.72 68.0816 31.7839 68.0816 31.9401ZM65.3536 32.4053C65.3536 32.5901 65.3637 32.6658 65.3758 32.5734C65.388 32.4809 65.388 32.3296 65.3758 32.2372C65.3637 32.1448 65.3536 32.2205 65.3536 32.4053ZM75.7239 33.3098C75.7242 33.4804 75.7343 33.544 75.7465 33.4509C75.7589 33.3579 75.7586 33.2184 75.7461 33.1408C75.7337 33.0633 75.7235 33.1393 75.7239 33.3098ZM78.3979 33.2838C78.3979 33.4401 78.4084 33.5043 78.4208 33.4261C78.4333 33.348 78.4333 33.2199 78.4208 33.1418C78.4084 33.0636 78.3979 33.1275 78.3979 33.2838ZM68.0276 34.1883C68.0279 34.3589 68.0381 34.4225 68.0502 34.3294C68.0627 34.2367 68.0623 34.0972 68.0499 34.0193C68.0374 33.9418 68.0273 34.0178 68.0276 34.1883ZM113.17 34.6017C113.17 34.8293 113.18 34.9158 113.191 34.7943C113.203 34.6727 113.203 34.4867 113.191 34.3809C113.179 34.2749 113.17 34.3744 113.17 34.6017ZM65.4076 34.6535C65.4079 34.824 65.4181 34.8876 65.4302 34.7946C65.4427 34.7019 65.4423 34.5623 65.4299 34.4845C65.4174 34.407 65.4073 34.4829 65.4076 34.6535Z" fill="#BC9424"/>
</g>
<defs>
<clipPath id="clip0_679_3557">
<rect width="131" height="43" fill="white"/>
</clipPath>
</defs>
</svg>
